<?xml version="1.0" encoding="UTF-8"?>
<svg xmlns="http://www.w3.org/2000/svg" xmlns:xlink="http://www.w3.org/1999/xlink" width="252.41pt" height="107.48pt" viewBox="0 0 252.41 107.48" version="1.1">
<defs>
<clipPath id="clip1">
  <path d="M 0 0 L 18 0 L 18 107.480469 L 0 107.480469 Z M 0 0 "/>
</clipPath>
<clipPath id="clip2">
  <path d="M 6 0 L 28 0 L 28 107.480469 L 6 107.480469 Z M 6 0 "/>
</clipPath>
<clipPath id="clip3">
  <path d="M 26 0 L 48 0 L 48 107.480469 L 26 107.480469 Z M 26 0 "/>
</clipPath>
<clipPath id="clip4">
  <path d="M 56 0 L 78 0 L 78 107.480469 L 56 107.480469 Z M 56 0 "/>
</clipPath>
<clipPath id="clip5">
  <path d="M 66 0 L 88 0 L 88 107.480469 L 66 107.480469 Z M 66 0 "/>
</clipPath>
<clipPath id="clip6">
  <path d="M 85 0 L 108 0 L 108 107.480469 L 85 107.480469 Z M 85 0 "/>
</clipPath>
<clipPath id="clip7">
  <path d="M 115 0 L 137 0 L 137 107.480469 L 115 107.480469 Z M 115 0 "/>
</clipPath>
<clipPath id="clip8">
  <path d="M 125 0 L 147 0 L 147 107.480469 L 125 107.480469 Z M 125 0 "/>
</clipPath>
<clipPath id="clip9">
  <path d="M 145 0 L 167 0 L 167 107.480469 L 145 107.480469 Z M 145 0 "/>
</clipPath>
<clipPath id="clip10">
  <path d="M 175 0 L 197 0 L 197 107.480469 L 175 107.480469 Z M 175 0 "/>
</clipPath>
<clipPath id="clip11">
  <path d="M 185 0 L 207 0 L 207 107.480469 L 185 107.480469 Z M 185 0 "/>
</clipPath>
<clipPath id="clip12">
  <path d="M 204 0 L 227 0 L 227 107.480469 L 204 107.480469 Z M 204 0 "/>
</clipPath>
<clipPath id="clip13">
  <path d="M 234 13 L 252.410156 13 L 252.410156 94 L 234 94 Z M 234 13 "/>
</clipPath>
</defs>
<g id="surface1">
<path style="fill:none;stroke-width:0.3985;stroke-linecap:butt;stroke-linejoin:miter;stroke:rgb(0%,0%,0%);stroke-opacity:1;stroke-miterlimit:10;" d="M 9.923281 0.0009375 L 29.763125 0.0009375 M 69.450625 0.0009375 L 89.290469 0.0009375 M 128.977969 0.0009375 L 148.821719 0.0009375 M 188.505313 0.0009375 L 208.349063 0.0009375 " transform="matrix(1,0,0,-1,2.19,105.29)"/>
<path style="fill:none;stroke-width:0.3985;stroke-linecap:butt;stroke-linejoin:miter;stroke:rgb(0%,0%,0%);stroke-opacity:1;stroke-miterlimit:10;" d="M 19.84125 17.579063 L 59.52875 17.579063 M 79.3725 17.579063 L 119.056094 17.579063 M 138.899844 17.579063 L 178.583438 17.579063 M 198.427188 17.579063 L 238.110781 17.579063 " transform="matrix(1,0,0,-1,2.19,105.29)"/>
<path style="fill:none;stroke-width:0.3985;stroke-linecap:butt;stroke-linejoin:miter;stroke:rgb(0%,0%,0%);stroke-opacity:1;stroke-miterlimit:10;" d="M 9.923281 34.368125 L 29.763125 34.368125 M 49.606875 34.368125 L 89.290469 34.368125 M 109.134219 34.368125 L 148.821719 34.368125 M 168.661563 34.368125 L 208.349063 34.368125 M 228.188906 34.368125 L 248.032656 34.368125 " transform="matrix(1,0,0,-1,2.19,105.29)"/>
<path style="fill:none;stroke-width:0.3985;stroke-linecap:butt;stroke-linejoin:miter;stroke:rgb(0%,0%,0%);stroke-opacity:1;stroke-miterlimit:10;" d="M 19.84125 51.551719 L 59.52875 51.551719 M 79.3725 51.551719 L 119.056094 51.551719 M 138.899844 51.551719 L 178.583438 51.551719 M 198.427188 51.551719 L 238.110781 51.551719 " transform="matrix(1,0,0,-1,2.19,105.29)"/>
<path style="fill:none;stroke-width:0.3985;stroke-linecap:butt;stroke-linejoin:miter;stroke:rgb(0%,0%,0%);stroke-opacity:1;stroke-miterlimit:10;" d="M 9.923281 68.735313 L 29.763125 68.735313 M 49.606875 68.735313 L 89.290469 68.735313 M 109.134219 68.735313 L 148.821719 68.735313 M 168.661563 68.735313 L 208.349063 68.735313 M 228.188906 68.735313 L 248.032656 68.735313 " transform="matrix(1,0,0,-1,2.19,105.29)"/>
<path style="fill:none;stroke-width:0.3985;stroke-linecap:butt;stroke-linejoin:miter;stroke:rgb(0%,0%,0%);stroke-opacity:1;stroke-miterlimit:10;" d="M 19.84125 85.918906 L 59.52875 85.918906 M 79.3725 85.918906 L 119.056094 85.918906 M 138.899844 85.918906 L 178.583438 85.918906 M 198.427188 85.918906 L 238.110781 85.918906 " transform="matrix(1,0,0,-1,2.19,105.29)"/>
<path style="fill:none;stroke-width:0.3985;stroke-linecap:butt;stroke-linejoin:miter;stroke:rgb(0%,0%,0%);stroke-opacity:1;stroke-miterlimit:10;" d="M 9.923281 103.1025 L 29.763125 103.1025 M 69.450625 103.1025 L 89.290469 103.1025 M 128.977969 103.1025 L 148.821719 103.1025 M 188.505313 103.1025 L 208.349063 103.1025 " transform="matrix(1,0,0,-1,2.19,105.29)"/>
<g clip-path="url(#clip1)" clip-rule="nonzero">
<path style="fill:none;stroke-width:0.3985;stroke-linecap:butt;stroke-linejoin:miter;stroke:rgb(0%,0%,0%);stroke-opacity:1;stroke-miterlimit:10;" d="M 9.923281 0.0009375 L 0.00140625 17.579063 L 9.923281 34.368125 L 0.00140625 51.551719 L 9.923281 68.735313 L 0.00140625 85.918906 L 9.923281 103.1025 " transform="matrix(1,0,0,-1,2.19,105.29)"/>
</g>
<g clip-path="url(#clip2)" clip-rule="nonzero">
<path style="fill:none;stroke-width:0.3985;stroke-linecap:butt;stroke-linejoin:miter;stroke:rgb(0%,0%,0%);stroke-opacity:1;stroke-miterlimit:10;" d="M 9.923281 0.0009375 L 19.84125 17.579063 L 9.923281 34.368125 L 19.84125 51.551719 L 9.923281 68.735313 L 19.84125 85.918906 L 9.923281 103.1025 " transform="matrix(1,0,0,-1,2.19,105.29)"/>
</g>
<g clip-path="url(#clip3)" clip-rule="nonzero">
<path style="fill:none;stroke-width:0.3985;stroke-linecap:butt;stroke-linejoin:miter;stroke:rgb(0%,0%,0%);stroke-opacity:1;stroke-miterlimit:10;" d="M 29.763125 0.0009375 L 39.685 17.579063 L 29.763125 34.368125 L 39.685 51.551719 L 29.763125 68.735313 L 39.685 85.918906 L 29.763125 103.1025 " transform="matrix(1,0,0,-1,2.19,105.29)"/>
</g>
<path style="fill:none;stroke-width:0.3985;stroke-linecap:butt;stroke-linejoin:miter;stroke:rgb(0%,0%,0%);stroke-opacity:1;stroke-miterlimit:10;" d="M 39.685 17.579063 L 49.606875 34.368125 L 39.685 51.551719 L 49.606875 68.735313 L 39.685 85.918906 " transform="matrix(1,0,0,-1,2.19,105.29)"/>
<path style="fill:none;stroke-width:0.3985;stroke-linecap:butt;stroke-linejoin:miter;stroke:rgb(0%,0%,0%);stroke-opacity:1;stroke-miterlimit:10;" d="M 59.52875 17.579063 L 69.450625 34.368125 L 59.52875 51.551719 L 69.450625 68.735313 L 59.52875 85.918906 " transform="matrix(1,0,0,-1,2.19,105.29)"/>
<g clip-path="url(#clip4)" clip-rule="nonzero">
<path style="fill:none;stroke-width:0.3985;stroke-linecap:butt;stroke-linejoin:miter;stroke:rgb(0%,0%,0%);stroke-opacity:1;stroke-miterlimit:10;" d="M 69.450625 0.0009375 L 59.52875 17.579063 M 59.52875 85.918906 L 69.450625 103.1025 " transform="matrix(1,0,0,-1,2.19,105.29)"/>
</g>
<g clip-path="url(#clip5)" clip-rule="nonzero">
<path style="fill:none;stroke-width:0.3985;stroke-linecap:butt;stroke-linejoin:miter;stroke:rgb(0%,0%,0%);stroke-opacity:1;stroke-miterlimit:10;" d="M 69.450625 0.0009375 L 79.3725 17.579063 L 69.450625 34.368125 L 79.3725 51.551719 L 69.450625 68.735313 L 79.3725 85.918906 L 69.450625 103.1025 " transform="matrix(1,0,0,-1,2.19,105.29)"/>
</g>
<g clip-path="url(#clip6)" clip-rule="nonzero">
<path style="fill:none;stroke-width:0.3985;stroke-linecap:butt;stroke-linejoin:miter;stroke:rgb(0%,0%,0%);stroke-opacity:1;stroke-miterlimit:10;" d="M 89.290469 0.0009375 L 99.212344 17.579063 L 89.290469 34.368125 L 99.212344 51.551719 L 89.290469 68.735313 L 99.212344 85.918906 L 89.290469 103.1025 " transform="matrix(1,0,0,-1,2.19,105.29)"/>
</g>
<path style="fill:none;stroke-width:0.3985;stroke-linecap:butt;stroke-linejoin:miter;stroke:rgb(0%,0%,0%);stroke-opacity:1;stroke-miterlimit:10;" d="M 99.212344 17.579063 L 109.134219 34.368125 L 99.212344 51.551719 L 109.134219 68.735313 L 99.212344 85.918906 " transform="matrix(1,0,0,-1,2.19,105.29)"/>
<g clip-path="url(#clip7)" clip-rule="nonzero">
<path style="fill:none;stroke-width:0.3985;stroke-linecap:butt;stroke-linejoin:miter;stroke:rgb(0%,0%,0%);stroke-opacity:1;stroke-miterlimit:10;" d="M 128.977969 0.0009375 L 119.056094 17.579063 L 128.977969 34.368125 L 119.056094 51.551719 L 128.977969 68.735313 L 119.056094 85.918906 L 128.977969 103.1025 " transform="matrix(1,0,0,-1,2.19,105.29)"/>
</g>
<g clip-path="url(#clip8)" clip-rule="nonzero">
<path style="fill:none;stroke-width:0.3985;stroke-linecap:butt;stroke-linejoin:miter;stroke:rgb(0%,0%,0%);stroke-opacity:1;stroke-miterlimit:10;" d="M 128.977969 0.0009375 L 138.899844 17.579063 L 128.977969 34.368125 L 138.899844 51.551719 L 128.977969 68.735313 L 138.899844 85.918906 L 128.977969 103.1025 " transform="matrix(1,0,0,-1,2.19,105.29)"/>
</g>
<g clip-path="url(#clip9)" clip-rule="nonzero">
<path style="fill:none;stroke-width:0.3985;stroke-linecap:butt;stroke-linejoin:miter;stroke:rgb(0%,0%,0%);stroke-opacity:1;stroke-miterlimit:10;" d="M 148.821719 0.0009375 L 158.739688 17.579063 L 148.821719 34.368125 L 158.739688 51.551719 L 148.821719 68.735313 L 158.739688 85.918906 L 148.821719 103.1025 " transform="matrix(1,0,0,-1,2.19,105.29)"/>
</g>
<path style="fill:none;stroke-width:0.3985;stroke-linecap:butt;stroke-linejoin:miter;stroke:rgb(0%,0%,0%);stroke-opacity:1;stroke-miterlimit:10;" d="M 158.739688 17.579063 L 168.661563 34.368125 L 158.739688 51.551719 L 168.661563 68.735313 L 158.739688 85.918906 " transform="matrix(1,0,0,-1,2.19,105.29)"/>
<g clip-path="url(#clip10)" clip-rule="nonzero">
<path style="fill:none;stroke-width:0.3985;stroke-linecap:butt;stroke-linejoin:miter;stroke:rgb(0%,0%,0%);stroke-opacity:1;stroke-miterlimit:10;" d="M 188.505313 0.0009375 L 178.583438 17.579063 L 188.505313 34.368125 L 178.583438 51.551719 L 188.505313 68.735313 L 178.583438 85.918906 L 188.505313 103.1025 " transform="matrix(1,0,0,-1,2.19,105.29)"/>
</g>
<g clip-path="url(#clip11)" clip-rule="nonzero">
<path style="fill:none;stroke-width:0.3985;stroke-linecap:butt;stroke-linejoin:miter;stroke:rgb(0%,0%,0%);stroke-opacity:1;stroke-miterlimit:10;" d="M 188.505313 0.0009375 L 198.427188 17.579063 L 188.505313 34.368125 L 198.427188 51.551719 L 188.505313 68.735313 L 198.427188 85.918906 L 188.505313 103.1025 " transform="matrix(1,0,0,-1,2.19,105.29)"/>
</g>
<g clip-path="url(#clip12)" clip-rule="nonzero">
<path style="fill:none;stroke-width:0.3985;stroke-linecap:butt;stroke-linejoin:miter;stroke:rgb(0%,0%,0%);stroke-opacity:1;stroke-miterlimit:10;" d="M 208.349063 0.0009375 L 218.270938 17.579063 L 208.349063 34.368125 L 218.270938 51.551719 L 208.349063 68.735313 L 218.270938 85.918906 L 208.349063 103.1025 " transform="matrix(1,0,0,-1,2.19,105.29)"/>
</g>
<path style="fill:none;stroke-width:0.3985;stroke-linecap:butt;stroke-linejoin:miter;stroke:rgb(0%,0%,0%);stroke-opacity:1;stroke-miterlimit:10;" d="M 218.270938 17.579063 L 228.188906 34.368125 L 218.270938 51.551719 L 228.188906 68.735313 L 218.270938 85.918906 " transform="matrix(1,0,0,-1,2.19,105.29)"/>
<g clip-path="url(#clip13)" clip-rule="nonzero">
<path style="fill:none;stroke-width:0.3985;stroke-linecap:butt;stroke-linejoin:miter;stroke:rgb(0%,0%,0%);stroke-opacity:1;stroke-miterlimit:10;" d="M 238.110781 17.579063 L 248.032656 34.368125 L 238.110781 51.551719 L 248.032656 68.735313 L 238.110781 85.918906 " transform="matrix(1,0,0,-1,2.19,105.29)"/>
</g>
</g>
</svg>
