<?xml version="1.0" encoding="UTF-8"?>
<svg xmlns="http://www.w3.org/2000/svg" xmlns:xlink="http://www.w3.org/1999/xlink" width="252pt" height="107pt" viewBox="0 0 252 107" version="1.1">
<g id="surface1">
<path style="fill:none;stroke-width:0.3985;stroke-linecap:butt;stroke-linejoin:miter;stroke:rgb(0%,0%,0%);stroke-opacity:1;stroke-miterlimit:10;" d="M 9.92209 -0.00080471 L 29.764252 -0.00080471 M 69.448578 -0.00080471 L 89.29074 -0.00080471 M 128.978972 -0.00080471 L 148.821134 -0.00080471 M 188.505459 -0.00080471 L 208.347622 -0.00080471 " transform="matrix(1.00008,0,0,-1.00005,2.096648,104.905445)"/>
<path style="fill:none;stroke-width:0.3985;stroke-linecap:butt;stroke-linejoin:miter;stroke:rgb(0%,0%,0%);stroke-opacity:1;stroke-miterlimit:10;" d="M 19.843171 17.580347 L 59.527496 17.580347 M 79.369659 17.580347 L 119.05789 17.580347 M 138.900053 17.580347 L 178.584378 17.580347 M 198.426541 17.580347 L 238.110866 17.580347 " transform="matrix(1.00008,0,0,-1.00005,2.096648,104.905445)"/>
<path style="fill:none;stroke-width:0.3985;stroke-linecap:butt;stroke-linejoin:miter;stroke:rgb(0%,0%,0%);stroke-opacity:1;stroke-miterlimit:10;" d="M 9.92209 34.368571 L 29.764252 34.368571 M 49.606415 34.368571 L 89.29074 34.368571 M 109.132903 34.368571 L 148.821134 34.368571 M 168.663297 34.368571 L 208.347622 34.368571 M 228.189785 34.368571 L 248.031947 34.368571 " transform="matrix(1.00008,0,0,-1.00005,2.096648,104.905445)"/>
<path style="fill:none;stroke-width:0.3985;stroke-linecap:butt;stroke-linejoin:miter;stroke:rgb(0%,0%,0%);stroke-opacity:1;stroke-miterlimit:10;" d="M 19.843171 51.551305 L 59.527496 51.551305 M 79.369659 51.551305 L 119.05789 51.551305 M 138.900053 51.551305 L 178.584378 51.551305 M 198.426541 51.551305 L 238.110866 51.551305 " transform="matrix(1.00008,0,0,-1.00005,2.096648,104.905445)"/>
<path style="fill:none;stroke-width:0.3985;stroke-linecap:butt;stroke-linejoin:miter;stroke:rgb(0%,0%,0%);stroke-opacity:1;stroke-miterlimit:10;" d="M 9.92209 68.73404 L 29.764252 68.73404 M 49.606415 68.73404 L 89.29074 68.73404 M 109.132903 68.73404 L 148.821134 68.73404 M 168.663297 68.73404 L 208.347622 68.73404 M 228.189785 68.73404 L 248.031947 68.73404 " transform="matrix(1.00008,0,0,-1.00005,2.096648,104.905445)"/>
<path style="fill:none;stroke-width:0.3985;stroke-linecap:butt;stroke-linejoin:miter;stroke:rgb(0%,0%,0%);stroke-opacity:1;stroke-miterlimit:10;" d="M 19.843171 85.92068 L 59.527496 85.92068 M 79.369659 85.92068 L 119.05789 85.92068 M 138.900053 85.92068 L 178.584378 85.92068 M 198.426541 85.92068 L 238.110866 85.92068 " transform="matrix(1.00008,0,0,-1.00005,2.096648,104.905445)"/>
<path style="fill:none;stroke-width:0.3985;stroke-linecap:butt;stroke-linejoin:miter;stroke:rgb(0%,0%,0%);stroke-opacity:1;stroke-miterlimit:10;" d="M 9.92209 103.103415 L 29.764252 103.103415 M 69.448578 103.103415 L 89.29074 103.103415 M 128.978972 103.103415 L 148.821134 103.103415 M 188.505459 103.103415 L 208.347622 103.103415 " transform="matrix(1.00008,0,0,-1.00005,2.096648,104.905445)"/>
<path style="fill:none;stroke-width:0.3985;stroke-linecap:butt;stroke-linejoin:miter;stroke:rgb(0%,0%,0%);stroke-opacity:1;stroke-miterlimit:10;" d="M 9.92209 -0.00080471 L 0.00100849 17.580347 L 9.92209 34.368571 L 0.00100849 51.551305 L 9.92209 68.73404 L 0.00100849 85.92068 L 9.92209 103.103415 " transform="matrix(1.00008,0,0,-1.00005,2.096648,104.905445)"/>
<path style="fill:none;stroke-width:0.3985;stroke-linecap:butt;stroke-linejoin:miter;stroke:rgb(0%,0%,0%);stroke-opacity:1;stroke-miterlimit:10;" d="M 9.92209 -0.00080471 L 19.843171 17.580347 L 9.92209 34.368571 L 19.843171 51.551305 L 9.92209 68.73404 L 19.843171 85.92068 L 9.92209 103.103415 " transform="matrix(1.00008,0,0,-1.00005,2.096648,104.905445)"/>
<path style="fill:none;stroke-width:0.3985;stroke-linecap:butt;stroke-linejoin:miter;stroke:rgb(0%,0%,0%);stroke-opacity:1;stroke-miterlimit:10;" d="M 29.764252 -0.00080471 L 39.685334 17.580347 L 29.764252 34.368571 L 39.685334 51.551305 L 29.764252 68.73404 L 39.685334 85.92068 L 29.764252 103.103415 " transform="matrix(1.00008,0,0,-1.00005,2.096648,104.905445)"/>
<path style="fill:none;stroke-width:0.3985;stroke-linecap:butt;stroke-linejoin:miter;stroke:rgb(0%,0%,0%);stroke-opacity:1;stroke-miterlimit:10;" d="M 39.685334 17.580347 L 49.606415 34.368571 L 39.685334 51.551305 L 49.606415 68.73404 L 39.685334 85.92068 " transform="matrix(1.00008,0,0,-1.00005,2.096648,104.905445)"/>
<path style="fill:none;stroke-width:0.3985;stroke-linecap:butt;stroke-linejoin:miter;stroke:rgb(0%,0%,0%);stroke-opacity:1;stroke-miterlimit:10;" d="M 59.527496 17.580347 L 69.448578 34.368571 L 59.527496 51.551305 L 69.448578 68.73404 L 59.527496 85.92068 " transform="matrix(1.00008,0,0,-1.00005,2.096648,104.905445)"/>
<path style="fill:none;stroke-width:0.3985;stroke-linecap:butt;stroke-linejoin:miter;stroke:rgb(0%,0%,0%);stroke-opacity:1;stroke-miterlimit:10;" d="M 69.448578 -0.00080471 L 59.527496 17.580347 M 59.527496 85.92068 L 69.448578 103.103415 " transform="matrix(1.00008,0,0,-1.00005,2.096648,104.905445)"/>
<path style="fill:none;stroke-width:0.3985;stroke-linecap:butt;stroke-linejoin:miter;stroke:rgb(0%,0%,0%);stroke-opacity:1;stroke-miterlimit:10;" d="M 69.448578 -0.00080471 L 79.369659 17.580347 L 69.448578 34.368571 L 79.369659 51.551305 L 69.448578 68.73404 L 79.369659 85.92068 L 69.448578 103.103415 " transform="matrix(1.00008,0,0,-1.00005,2.096648,104.905445)"/>
<path style="fill:none;stroke-width:0.3985;stroke-linecap:butt;stroke-linejoin:miter;stroke:rgb(0%,0%,0%);stroke-opacity:1;stroke-miterlimit:10;" d="M 89.29074 -0.00080471 L 99.211822 17.580347 L 89.29074 34.368571 L 99.211822 51.551305 L 89.29074 68.73404 L 99.211822 85.92068 L 89.29074 103.103415 " transform="matrix(1.00008,0,0,-1.00005,2.096648,104.905445)"/>
<path style="fill:none;stroke-width:0.3985;stroke-linecap:butt;stroke-linejoin:miter;stroke:rgb(0%,0%,0%);stroke-opacity:1;stroke-miterlimit:10;" d="M 99.211822 17.580347 L 109.132903 34.368571 L 99.211822 51.551305 L 109.132903 68.73404 L 99.211822 85.92068 " transform="matrix(1.00008,0,0,-1.00005,2.096648,104.905445)"/>
<path style="fill:none;stroke-width:0.3985;stroke-linecap:butt;stroke-linejoin:miter;stroke:rgb(0%,0%,0%);stroke-opacity:1;stroke-miterlimit:10;" d="M 128.978972 -0.00080471 L 119.05789 17.580347 L 128.978972 34.368571 L 119.05789 51.551305 L 128.978972 68.73404 L 119.05789 85.92068 L 128.978972 103.103415 " transform="matrix(1.00008,0,0,-1.00005,2.096648,104.905445)"/>
<path style="fill:none;stroke-width:0.3985;stroke-linecap:butt;stroke-linejoin:miter;stroke:rgb(0%,0%,0%);stroke-opacity:1;stroke-miterlimit:10;" d="M 128.978972 -0.00080471 L 138.900053 17.580347 L 128.978972 34.368571 L 138.900053 51.551305 L 128.978972 68.73404 L 138.900053 85.92068 L 128.978972 103.103415 " transform="matrix(1.00008,0,0,-1.00005,2.096648,104.905445)"/>
<path style="fill:none;stroke-width:0.3985;stroke-linecap:butt;stroke-linejoin:miter;stroke:rgb(0%,0%,0%);stroke-opacity:1;stroke-miterlimit:10;" d="M 148.821134 -0.00080471 L 158.742215 17.580347 L 148.821134 34.368571 L 158.742215 51.551305 L 148.821134 68.73404 L 158.742215 85.92068 L 148.821134 103.103415 " transform="matrix(1.00008,0,0,-1.00005,2.096648,104.905445)"/>
<path style="fill:none;stroke-width:0.3985;stroke-linecap:butt;stroke-linejoin:miter;stroke:rgb(0%,0%,0%);stroke-opacity:1;stroke-miterlimit:10;" d="M 158.742215 17.580347 L 168.663297 34.368571 L 158.742215 51.551305 L 168.663297 68.73404 L 158.742215 85.92068 " transform="matrix(1.00008,0,0,-1.00005,2.096648,104.905445)"/>
<path style="fill:none;stroke-width:0.3985;stroke-linecap:butt;stroke-linejoin:miter;stroke:rgb(0%,0%,0%);stroke-opacity:1;stroke-miterlimit:10;" d="M 188.505459 -0.00080471 L 178.584378 17.580347 L 188.505459 34.368571 L 178.584378 51.551305 L 188.505459 68.73404 L 178.584378 85.92068 L 188.505459 103.103415 " transform="matrix(1.00008,0,0,-1.00005,2.096648,104.905445)"/>
<path style="fill:none;stroke-width:0.3985;stroke-linecap:butt;stroke-linejoin:miter;stroke:rgb(0%,0%,0%);stroke-opacity:1;stroke-miterlimit:10;" d="M 188.505459 -0.00080471 L 198.426541 17.580347 L 188.505459 34.368571 L 198.426541 51.551305 L 188.505459 68.73404 L 198.426541 85.92068 L 188.505459 103.103415 " transform="matrix(1.00008,0,0,-1.00005,2.096648,104.905445)"/>
<path style="fill:none;stroke-width:0.3985;stroke-linecap:butt;stroke-linejoin:miter;stroke:rgb(0%,0%,0%);stroke-opacity:1;stroke-miterlimit:10;" d="M 208.347622 -0.00080471 L 218.268703 17.580347 L 208.347622 34.368571 L 218.268703 51.551305 L 208.347622 68.73404 L 218.268703 85.92068 L 208.347622 103.103415 " transform="matrix(1.00008,0,0,-1.00005,2.096648,104.905445)"/>
<path style="fill:none;stroke-width:0.3985;stroke-linecap:butt;stroke-linejoin:miter;stroke:rgb(0%,0%,0%);stroke-opacity:1;stroke-miterlimit:10;" d="M 218.268703 17.580347 L 228.189785 34.368571 L 218.268703 51.551305 L 228.189785 68.73404 L 218.268703 85.92068 " transform="matrix(1.00008,0,0,-1.00005,2.096648,104.905445)"/>
<path style="fill:none;stroke-width:0.3985;stroke-linecap:butt;stroke-linejoin:miter;stroke:rgb(0%,0%,0%);stroke-opacity:1;stroke-miterlimit:10;" d="M 238.110866 17.580347 L 248.031947 34.368571 L 238.110866 51.551305 L 248.031947 68.73404 L 238.110866 85.92068 " transform="matrix(1.00008,0,0,-1.00005,2.096648,104.905445)"/>
</g>
</svg>
