<?xml version="1.0" encoding="UTF-8"?>
<svg xmlns="http://www.w3.org/2000/svg" xmlns:xlink="http://www.w3.org/1999/xlink" width="251pt" height="107pt" viewBox="0 0 251 107" version="1.1">
<g id="surface1">
<path style="fill:none;stroke-width:0.3985;stroke-linecap:butt;stroke-linejoin:miter;stroke:rgb(0%,0%,0%);stroke-opacity:1;stroke-miterlimit:10;" d="M 9.921406 0.0015625 L 29.765156 0.0015625 M 69.44875 0.0015625 L 89.2925 0.0015625 M 128.976094 0.0015625 L 148.819844 0.0015625 M 188.507344 0.0015625 L 208.347188 0.0015625 " transform="matrix(1,0,0,-1,1.52,104.9)"/>
<path style="fill:none;stroke-width:0.3985;stroke-linecap:butt;stroke-linejoin:miter;stroke:rgb(0%,0%,0%);stroke-opacity:1;stroke-miterlimit:10;" d="M 19.843281 17.579687 L 59.526875 17.579687 M 79.370625 17.579687 L 119.054219 17.579687 M 138.897969 17.579687 L 178.585469 17.579687 M 198.425313 17.579687 L 238.112813 17.579687 " transform="matrix(1,0,0,-1,1.52,104.9)"/>
<path style="fill:none;stroke-width:0.3985;stroke-linecap:butt;stroke-linejoin:miter;stroke:rgb(0%,0%,0%);stroke-opacity:1;stroke-miterlimit:10;" d="M 9.921406 34.36875 L 29.765156 34.36875 M 49.605 34.36875 L 89.2925 34.36875 M 109.13625 34.36875 L 148.819844 34.36875 M 168.663594 34.36875 L 208.347188 34.36875 M 228.190938 34.36875 L 248.034688 34.36875 " transform="matrix(1,0,0,-1,1.52,104.9)"/>
<path style="fill:none;stroke-width:0.3985;stroke-linecap:butt;stroke-linejoin:miter;stroke:rgb(0%,0%,0%);stroke-opacity:1;stroke-miterlimit:10;" d="M 19.843281 51.552344 L 59.526875 51.552344 M 79.370625 51.552344 L 119.054219 51.552344 M 138.897969 51.552344 L 178.585469 51.552344 M 198.425313 51.552344 L 238.112813 51.552344 " transform="matrix(1,0,0,-1,1.52,104.9)"/>
<path style="fill:none;stroke-width:0.3985;stroke-linecap:butt;stroke-linejoin:miter;stroke:rgb(0%,0%,0%);stroke-opacity:1;stroke-miterlimit:10;" d="M 9.921406 68.735937 L 29.765156 68.735937 M 49.605 68.735937 L 89.2925 68.735937 M 109.13625 68.735937 L 148.819844 68.735937 M 168.663594 68.735937 L 208.347188 68.735937 M 228.190938 68.735937 L 248.034688 68.735937 " transform="matrix(1,0,0,-1,1.52,104.9)"/>
<path style="fill:none;stroke-width:0.3985;stroke-linecap:butt;stroke-linejoin:miter;stroke:rgb(0%,0%,0%);stroke-opacity:1;stroke-miterlimit:10;" d="M 19.843281 85.919531 L 59.526875 85.919531 M 79.370625 85.919531 L 119.054219 85.919531 M 138.897969 85.919531 L 178.585469 85.919531 M 198.425313 85.919531 L 238.112813 85.919531 " transform="matrix(1,0,0,-1,1.52,104.9)"/>
<path style="fill:none;stroke-width:0.3985;stroke-linecap:butt;stroke-linejoin:miter;stroke:rgb(0%,0%,0%);stroke-opacity:1;stroke-miterlimit:10;" d="M 9.921406 103.103125 L 29.765156 103.103125 M 69.44875 103.103125 L 89.2925 103.103125 M 128.976094 103.103125 L 148.819844 103.103125 M 188.507344 103.103125 L 208.347188 103.103125 " transform="matrix(1,0,0,-1,1.52,104.9)"/>
<path style="fill:none;stroke-width:0.3985;stroke-linecap:butt;stroke-linejoin:miter;stroke:rgb(0%,0%,0%);stroke-opacity:1;stroke-miterlimit:10;" d="M 9.921406 0.0015625 L -0.00046875 17.579687 L 9.921406 34.36875 L -0.00046875 51.552344 L 9.921406 68.735937 L -0.00046875 85.919531 L 9.921406 103.103125 " transform="matrix(1,0,0,-1,1.52,104.9)"/>
<path style="fill:none;stroke-width:0.3985;stroke-linecap:butt;stroke-linejoin:miter;stroke:rgb(0%,0%,0%);stroke-opacity:1;stroke-miterlimit:10;" d="M 9.921406 0.0015625 L 19.843281 17.579687 L 9.921406 34.36875 L 19.843281 51.552344 L 9.921406 68.735937 L 19.843281 85.919531 L 9.921406 103.103125 " transform="matrix(1,0,0,-1,1.52,104.9)"/>
<path style="fill:none;stroke-width:0.3985;stroke-linecap:butt;stroke-linejoin:miter;stroke:rgb(0%,0%,0%);stroke-opacity:1;stroke-miterlimit:10;" d="M 29.765156 0.0015625 L 39.687031 17.579687 L 29.765156 34.36875 L 39.687031 51.552344 L 29.765156 68.735937 L 39.687031 85.919531 L 29.765156 103.103125 " transform="matrix(1,0,0,-1,1.52,104.9)"/>
<path style="fill:none;stroke-width:0.3985;stroke-linecap:butt;stroke-linejoin:miter;stroke:rgb(0%,0%,0%);stroke-opacity:1;stroke-miterlimit:10;" d="M 39.687031 17.579687 L 49.605 34.36875 L 39.687031 51.552344 L 49.605 68.735937 L 39.687031 85.919531 " transform="matrix(1,0,0,-1,1.52,104.9)"/>
<path style="fill:none;stroke-width:0.3985;stroke-linecap:butt;stroke-linejoin:miter;stroke:rgb(0%,0%,0%);stroke-opacity:1;stroke-miterlimit:10;" d="M 59.526875 17.579687 L 69.44875 34.36875 L 59.526875 51.552344 L 69.44875 68.735937 L 59.526875 85.919531 " transform="matrix(1,0,0,-1,1.52,104.9)"/>
<path style="fill:none;stroke-width:0.3985;stroke-linecap:butt;stroke-linejoin:miter;stroke:rgb(0%,0%,0%);stroke-opacity:1;stroke-miterlimit:10;" d="M 69.44875 0.0015625 L 59.526875 17.579687 M 59.526875 85.919531 L 69.44875 103.103125 " transform="matrix(1,0,0,-1,1.52,104.9)"/>
<path style="fill:none;stroke-width:0.3985;stroke-linecap:butt;stroke-linejoin:miter;stroke:rgb(0%,0%,0%);stroke-opacity:1;stroke-miterlimit:10;" d="M 69.44875 0.0015625 L 79.370625 17.579687 L 69.44875 34.36875 L 79.370625 51.552344 L 69.44875 68.735937 L 79.370625 85.919531 L 69.44875 103.103125 " transform="matrix(1,0,0,-1,1.52,104.9)"/>
<path style="fill:none;stroke-width:0.3985;stroke-linecap:butt;stroke-linejoin:miter;stroke:rgb(0%,0%,0%);stroke-opacity:1;stroke-miterlimit:10;" d="M 89.2925 0.0015625 L 99.214375 17.579687 L 89.2925 34.36875 L 99.214375 51.552344 L 89.2925 68.735937 L 99.214375 85.919531 L 89.2925 103.103125 " transform="matrix(1,0,0,-1,1.52,104.9)"/>
<path style="fill:none;stroke-width:0.3985;stroke-linecap:butt;stroke-linejoin:miter;stroke:rgb(0%,0%,0%);stroke-opacity:1;stroke-miterlimit:10;" d="M 99.214375 17.579687 L 109.13625 34.36875 L 99.214375 51.552344 L 109.13625 68.735937 L 99.214375 85.919531 " transform="matrix(1,0,0,-1,1.52,104.9)"/>
<path style="fill:none;stroke-width:0.3985;stroke-linecap:butt;stroke-linejoin:miter;stroke:rgb(0%,0%,0%);stroke-opacity:1;stroke-miterlimit:10;" d="M 128.976094 0.0015625 L 119.054219 17.579687 L 128.976094 34.36875 L 119.054219 51.552344 L 128.976094 68.735937 L 119.054219 85.919531 L 128.976094 103.103125 " transform="matrix(1,0,0,-1,1.52,104.9)"/>
<path style="fill:none;stroke-width:0.3985;stroke-linecap:butt;stroke-linejoin:miter;stroke:rgb(0%,0%,0%);stroke-opacity:1;stroke-miterlimit:10;" d="M 128.976094 0.0015625 L 138.897969 17.579687 L 128.976094 34.36875 L 138.897969 51.552344 L 128.976094 68.735937 L 138.897969 85.919531 L 128.976094 103.103125 " transform="matrix(1,0,0,-1,1.52,104.9)"/>
<path style="fill:none;stroke-width:0.3985;stroke-linecap:butt;stroke-linejoin:miter;stroke:rgb(0%,0%,0%);stroke-opacity:1;stroke-miterlimit:10;" d="M 148.819844 0.0015625 L 158.741719 17.579687 L 148.819844 34.36875 L 158.741719 51.552344 L 148.819844 68.735937 L 158.741719 85.919531 L 148.819844 103.103125 " transform="matrix(1,0,0,-1,1.52,104.9)"/>
<path style="fill:none;stroke-width:0.3985;stroke-linecap:butt;stroke-linejoin:miter;stroke:rgb(0%,0%,0%);stroke-opacity:1;stroke-miterlimit:10;" d="M 158.741719 17.579687 L 168.663594 34.36875 L 158.741719 51.552344 L 168.663594 68.735937 L 158.741719 85.919531 " transform="matrix(1,0,0,-1,1.52,104.9)"/>
<path style="fill:none;stroke-width:0.3985;stroke-linecap:butt;stroke-linejoin:miter;stroke:rgb(0%,0%,0%);stroke-opacity:1;stroke-miterlimit:10;" d="M 188.507344 0.0015625 L 178.585469 17.579687 L 188.507344 34.36875 L 178.585469 51.552344 L 188.507344 68.735937 L 178.585469 85.919531 L 188.507344 103.103125 " transform="matrix(1,0,0,-1,1.52,104.9)"/>
<path style="fill:none;stroke-width:0.3985;stroke-linecap:butt;stroke-linejoin:miter;stroke:rgb(0%,0%,0%);stroke-opacity:1;stroke-miterlimit:10;" d="M 188.507344 0.0015625 L 198.425313 17.579687 L 188.507344 34.36875 L 198.425313 51.552344 L 188.507344 68.735937 L 198.425313 85.919531 L 188.507344 103.103125 " transform="matrix(1,0,0,-1,1.52,104.9)"/>
<path style="fill:none;stroke-width:0.3985;stroke-linecap:butt;stroke-linejoin:miter;stroke:rgb(0%,0%,0%);stroke-opacity:1;stroke-miterlimit:10;" d="M 208.347188 0.0015625 L 218.269063 17.579687 L 208.347188 34.36875 L 218.269063 51.552344 L 208.347188 68.735937 L 218.269063 85.919531 L 208.347188 103.103125 " transform="matrix(1,0,0,-1,1.52,104.9)"/>
<path style="fill:none;stroke-width:0.3985;stroke-linecap:butt;stroke-linejoin:miter;stroke:rgb(0%,0%,0%);stroke-opacity:1;stroke-miterlimit:10;" d="M 218.269063 17.579687 L 228.190938 34.36875 L 218.269063 51.552344 L 228.190938 68.735937 L 218.269063 85.919531 " transform="matrix(1,0,0,-1,1.52,104.9)"/>
<path style="fill:none;stroke-width:0.3985;stroke-linecap:butt;stroke-linejoin:miter;stroke:rgb(0%,0%,0%);stroke-opacity:1;stroke-miterlimit:10;" d="M 238.112813 17.579687 L 248.034688 34.36875 L 238.112813 51.552344 L 248.034688 68.735937 L 238.112813 85.919531 " transform="matrix(1,0,0,-1,1.52,104.9)"/>
</g>
</svg>
