<?xml version="1.0" encoding="UTF-8"?>
<svg xmlns="http://www.w3.org/2000/svg" xmlns:xlink="http://www.w3.org/1999/xlink" width="151pt" height="130pt" viewBox="0 0 151 130" version="1.1">
<g id="surface1">
<path style="fill:none;stroke-width:0.3985;stroke-linecap:butt;stroke-linejoin:miter;stroke:rgb(0%,0%,0%);stroke-opacity:1;stroke-miterlimit:10;" d="M 0.00170821 -0.0016875 L 99.215498 -0.0016875 M 12.403432 12.400656 L 111.617221 12.400656 M 24.805156 24.803 L 124.018945 24.803 " transform="matrix(1.00005,0,0,-1,3.584229,127.303)"/>
<path style="fill-rule:nonzero;fill:rgb(0%,0%,0%);fill-opacity:1;stroke-width:0.3985;stroke-linecap:butt;stroke-linejoin:miter;stroke:rgb(0%,0%,0%);stroke-opacity:1;stroke-miterlimit:10;" d="M 1.489915 -0.0016875 C 1.489915 0.822531 0.82198 1.486594 0.00170821 1.486594 C -0.822469 1.486594 -1.486499 0.822531 -1.486499 -0.0016875 C -1.486499 -0.822 -0.822469 -1.489969 0.00170821 -1.489969 C 0.82198 -1.489969 1.489915 -0.822 1.489915 -0.0016875 Z M 1.489915 -0.0016875 " transform="matrix(1.00005,0,0,-1,3.584229,127.303)"/>
<path style="fill-rule:nonzero;fill:rgb(0%,0%,0%);fill-opacity:1;stroke-width:0.3985;stroke-linecap:butt;stroke-linejoin:miter;stroke:rgb(0%,0%,0%);stroke-opacity:1;stroke-miterlimit:10;" d="M 51.09681 -0.0016875 C 51.09681 0.822531 50.428874 1.486594 49.608603 1.486594 C 48.784425 1.486594 48.120396 0.822531 48.120396 -0.0016875 C 48.120396 -0.822 48.784425 -1.489969 49.608603 -1.489969 C 50.428874 -1.489969 51.09681 -0.822 51.09681 -0.0016875 Z M 51.09681 -0.0016875 " transform="matrix(1.00005,0,0,-1,3.584229,127.303)"/>
<path style="fill-rule:nonzero;fill:rgb(0%,0%,0%);fill-opacity:1;stroke-width:0.3985;stroke-linecap:butt;stroke-linejoin:miter;stroke:rgb(0%,0%,0%);stroke-opacity:1;stroke-miterlimit:10;" d="M 100.703704 -0.0016875 C 100.703704 0.822531 100.035769 1.486594 99.215498 1.486594 C 98.39132 1.486594 97.727291 0.822531 97.727291 -0.0016875 C 97.727291 -0.822 98.39132 -1.489969 99.215498 -1.489969 C 100.035769 -1.489969 100.703704 -0.822 100.703704 -0.0016875 Z M 100.703704 -0.0016875 " transform="matrix(1.00005,0,0,-1,3.584229,127.303)"/>
<path style="fill-rule:nonzero;fill:rgb(0%,0%,0%);fill-opacity:1;stroke-width:0.3985;stroke-linecap:butt;stroke-linejoin:miter;stroke:rgb(0%,0%,0%);stroke-opacity:1;stroke-miterlimit:10;" d="M 13.891639 12.400656 C 13.891639 13.224875 13.223703 13.888937 12.403432 13.888937 C 11.579254 13.888937 10.915225 13.224875 10.915225 12.400656 C 10.915225 11.580344 11.579254 10.912375 12.403432 10.912375 C 13.223703 10.912375 13.891639 11.580344 13.891639 12.400656 Z M 13.891639 12.400656 " transform="matrix(1.00005,0,0,-1,3.584229,127.303)"/>
<path style="fill-rule:nonzero;fill:rgb(0%,0%,0%);fill-opacity:1;stroke-width:0.3985;stroke-linecap:butt;stroke-linejoin:miter;stroke:rgb(0%,0%,0%);stroke-opacity:1;stroke-miterlimit:10;" d="M 63.498533 12.400656 C 63.498533 13.224875 62.830598 13.888937 62.010327 13.888937 C 61.186149 13.888937 60.52212 13.224875 60.52212 12.400656 C 60.52212 11.580344 61.186149 10.912375 62.010327 10.912375 C 62.830598 10.912375 63.498533 11.580344 63.498533 12.400656 Z M 63.498533 12.400656 " transform="matrix(1.00005,0,0,-1,3.584229,127.303)"/>
<path style="fill-rule:nonzero;fill:rgb(0%,0%,0%);fill-opacity:1;stroke-width:0.3985;stroke-linecap:butt;stroke-linejoin:miter;stroke:rgb(0%,0%,0%);stroke-opacity:1;stroke-miterlimit:10;" d="M 113.105428 12.400656 C 113.105428 13.224875 112.437493 13.888937 111.617221 13.888937 C 110.793044 13.888937 110.129014 13.224875 110.129014 12.400656 C 110.129014 11.580344 110.793044 10.912375 111.617221 10.912375 C 112.437493 10.912375 113.105428 11.580344 113.105428 12.400656 Z M 113.105428 12.400656 " transform="matrix(1.00005,0,0,-1,3.584229,127.303)"/>
<path style="fill-rule:nonzero;fill:rgb(0%,0%,0%);fill-opacity:1;stroke-width:0.3985;stroke-linecap:butt;stroke-linejoin:miter;stroke:rgb(0%,0%,0%);stroke-opacity:1;stroke-miterlimit:10;" d="M 26.293362 24.803 C 26.293362 25.627219 25.625427 26.291281 24.805156 26.291281 C 23.980978 26.291281 23.316949 25.627219 23.316949 24.803 C 23.316949 23.982687 23.980978 23.314719 24.805156 23.314719 C 25.625427 23.314719 26.293362 23.982687 26.293362 24.803 Z M 26.293362 24.803 " transform="matrix(1.00005,0,0,-1,3.584229,127.303)"/>
<path style="fill-rule:nonzero;fill:rgb(0%,0%,0%);fill-opacity:1;stroke-width:0.3985;stroke-linecap:butt;stroke-linejoin:miter;stroke:rgb(0%,0%,0%);stroke-opacity:1;stroke-miterlimit:10;" d="M 75.900257 24.803 C 75.900257 25.627219 75.232322 26.291281 74.41205 26.291281 C 73.587873 26.291281 72.923843 25.627219 72.923843 24.803 C 72.923843 23.982687 73.587873 23.314719 74.41205 23.314719 C 75.232322 23.314719 75.900257 23.982687 75.900257 24.803 Z M 75.900257 24.803 " transform="matrix(1.00005,0,0,-1,3.584229,127.303)"/>
<path style="fill-rule:nonzero;fill:rgb(0%,0%,0%);fill-opacity:1;stroke-width:0.3985;stroke-linecap:butt;stroke-linejoin:miter;stroke:rgb(0%,0%,0%);stroke-opacity:1;stroke-miterlimit:10;" d="M 125.507152 24.803 C 125.507152 25.627219 124.839216 26.291281 124.018945 26.291281 C 123.194767 26.291281 122.530738 25.627219 122.530738 24.803 C 122.530738 23.982687 123.194767 23.314719 124.018945 23.314719 C 124.839216 23.314719 125.507152 23.982687 125.507152 24.803 Z M 125.507152 24.803 " transform="matrix(1.00005,0,0,-1,3.584229,127.303)"/>
<path style="fill:none;stroke-width:0.3985;stroke-linecap:butt;stroke-linejoin:miter;stroke:rgb(0%,0%,0%);stroke-opacity:1;stroke-miterlimit:10;" d="M 9.923087 49.607687 L 109.136876 49.607687 M 22.324811 62.010031 L 121.5386 62.010031 M 34.726534 74.408469 L 133.940324 74.408469 " transform="matrix(1.00005,0,0,-1,3.584229,127.303)"/>
<path style="fill-rule:nonzero;fill:rgb(0%,0%,0%);fill-opacity:1;stroke-width:0.3985;stroke-linecap:butt;stroke-linejoin:miter;stroke:rgb(0%,0%,0%);stroke-opacity:1;stroke-miterlimit:10;" d="M 11.411294 49.607687 C 11.411294 50.428 10.743359 51.095969 9.923087 51.095969 C 9.09891 51.095969 8.43488 50.428 8.43488 49.607687 C 8.43488 48.783469 9.09891 48.119406 9.923087 48.119406 C 10.743359 48.119406 11.411294 48.783469 11.411294 49.607687 Z M 11.411294 49.607687 " transform="matrix(1.00005,0,0,-1,3.584229,127.303)"/>
<path style="fill-rule:nonzero;fill:rgb(0%,0%,0%);fill-opacity:1;stroke-width:0.3985;stroke-linecap:butt;stroke-linejoin:miter;stroke:rgb(0%,0%,0%);stroke-opacity:1;stroke-miterlimit:10;" d="M 61.018189 49.607687 C 61.018189 50.428 60.350253 51.095969 59.529982 51.095969 C 58.705804 51.095969 58.041775 50.428 58.041775 49.607687 C 58.041775 48.783469 58.705804 48.119406 59.529982 48.119406 C 60.350253 48.119406 61.018189 48.783469 61.018189 49.607687 Z M 61.018189 49.607687 " transform="matrix(1.00005,0,0,-1,3.584229,127.303)"/>
<path style="fill-rule:nonzero;fill:rgb(0%,0%,0%);fill-opacity:1;stroke-width:0.3985;stroke-linecap:butt;stroke-linejoin:miter;stroke:rgb(0%,0%,0%);stroke-opacity:1;stroke-miterlimit:10;" d="M 110.625083 49.607687 C 110.625083 50.428 109.957148 51.095969 109.136876 51.095969 C 108.312699 51.095969 107.64867 50.428 107.64867 49.607687 C 107.64867 48.783469 108.312699 48.119406 109.136876 48.119406 C 109.957148 48.119406 110.625083 48.783469 110.625083 49.607687 Z M 110.625083 49.607687 " transform="matrix(1.00005,0,0,-1,3.584229,127.303)"/>
<path style="fill-rule:nonzero;fill:rgb(0%,0%,0%);fill-opacity:1;stroke-width:0.3985;stroke-linecap:butt;stroke-linejoin:miter;stroke:rgb(0%,0%,0%);stroke-opacity:1;stroke-miterlimit:10;" d="M 23.813018 62.010031 C 23.813018 62.830344 23.145082 63.498312 22.324811 63.498312 C 21.500633 63.498312 20.836604 62.830344 20.836604 62.010031 C 20.836604 61.185812 21.500633 60.52175 22.324811 60.52175 C 23.145082 60.52175 23.813018 61.185812 23.813018 62.010031 Z M 23.813018 62.010031 " transform="matrix(1.00005,0,0,-1,3.584229,127.303)"/>
<path style="fill-rule:nonzero;fill:rgb(0%,0%,0%);fill-opacity:1;stroke-width:0.3985;stroke-linecap:butt;stroke-linejoin:miter;stroke:rgb(0%,0%,0%);stroke-opacity:1;stroke-miterlimit:10;" d="M 73.419912 62.010031 C 73.419912 62.830344 72.751977 63.498312 71.931705 63.498312 C 71.107528 63.498312 70.443499 62.830344 70.443499 62.010031 C 70.443499 61.185812 71.107528 60.52175 71.931705 60.52175 C 72.751977 60.52175 73.419912 61.185812 73.419912 62.010031 Z M 73.419912 62.010031 " transform="matrix(1.00005,0,0,-1,3.584229,127.303)"/>
<path style="fill-rule:nonzero;fill:rgb(0%,0%,0%);fill-opacity:1;stroke-width:0.3985;stroke-linecap:butt;stroke-linejoin:miter;stroke:rgb(0%,0%,0%);stroke-opacity:1;stroke-miterlimit:10;" d="M 123.026807 62.010031 C 123.026807 62.830344 122.358872 63.498312 121.5386 63.498312 C 120.714423 63.498312 120.050393 62.830344 120.050393 62.010031 C 120.050393 61.185812 120.714423 60.52175 121.5386 60.52175 C 122.358872 60.52175 123.026807 61.185812 123.026807 62.010031 Z M 123.026807 62.010031 " transform="matrix(1.00005,0,0,-1,3.584229,127.303)"/>
<path style="fill-rule:nonzero;fill:rgb(0%,0%,0%);fill-opacity:1;stroke-width:0.3985;stroke-linecap:butt;stroke-linejoin:miter;stroke:rgb(0%,0%,0%);stroke-opacity:1;stroke-miterlimit:10;" d="M 36.214741 74.408469 C 36.214741 75.232687 35.546806 75.89675 34.726534 75.89675 C 33.902357 75.89675 33.238328 75.232687 33.238328 74.408469 C 33.238328 73.588156 33.902357 72.924094 34.726534 72.924094 C 35.546806 72.924094 36.214741 73.588156 36.214741 74.408469 Z M 36.214741 74.408469 " transform="matrix(1.00005,0,0,-1,3.584229,127.303)"/>
<path style="fill-rule:nonzero;fill:rgb(0%,0%,0%);fill-opacity:1;stroke-width:0.3985;stroke-linecap:butt;stroke-linejoin:miter;stroke:rgb(0%,0%,0%);stroke-opacity:1;stroke-miterlimit:10;" d="M 85.821636 74.408469 C 85.821636 75.232687 85.153701 75.89675 84.333429 75.89675 C 83.509252 75.89675 82.845222 75.232687 82.845222 74.408469 C 82.845222 73.588156 83.509252 72.924094 84.333429 72.924094 C 85.153701 72.924094 85.821636 73.588156 85.821636 74.408469 Z M 85.821636 74.408469 " transform="matrix(1.00005,0,0,-1,3.584229,127.303)"/>
<path style="fill-rule:nonzero;fill:rgb(0%,0%,0%);fill-opacity:1;stroke-width:0.3985;stroke-linecap:butt;stroke-linejoin:miter;stroke:rgb(0%,0%,0%);stroke-opacity:1;stroke-miterlimit:10;" d="M 135.428531 74.408469 C 135.428531 75.232687 134.760595 75.89675 133.940324 75.89675 C 133.116146 75.89675 132.452117 75.232687 132.452117 74.408469 C 132.452117 73.588156 133.116146 72.924094 133.940324 72.924094 C 134.760595 72.924094 135.428531 73.588156 135.428531 74.408469 Z M 135.428531 74.408469 " transform="matrix(1.00005,0,0,-1,3.584229,127.303)"/>
<path style="fill:none;stroke-width:0.3985;stroke-linecap:butt;stroke-linejoin:miter;stroke:rgb(0%,0%,0%);stroke-opacity:1;stroke-miterlimit:10;" d="M 19.84056 99.213156 L 119.054349 99.213156 M 32.242284 111.6155 L 131.456073 111.6155 M 44.644007 124.017844 L 143.857797 124.017844 " transform="matrix(1.00005,0,0,-1,3.584229,127.303)"/>
<path style="fill-rule:nonzero;fill:rgb(0%,0%,0%);fill-opacity:1;stroke-width:0.3985;stroke-linecap:butt;stroke-linejoin:miter;stroke:rgb(0%,0%,0%);stroke-opacity:1;stroke-miterlimit:10;" d="M 21.328767 99.213156 C 21.328767 100.037375 20.664738 100.701437 19.84056 100.701437 C 19.020289 100.701437 18.356259 100.037375 18.356259 99.213156 C 18.356259 98.392844 19.020289 97.724875 19.84056 97.724875 C 20.664738 97.724875 21.328767 98.392844 21.328767 99.213156 Z M 21.328767 99.213156 " transform="matrix(1.00005,0,0,-1,3.584229,127.303)"/>
<path style="fill-rule:nonzero;fill:rgb(0%,0%,0%);fill-opacity:1;stroke-width:0.3985;stroke-linecap:butt;stroke-linejoin:miter;stroke:rgb(0%,0%,0%);stroke-opacity:1;stroke-miterlimit:10;" d="M 70.935662 99.213156 C 70.935662 100.037375 70.271632 100.701437 69.447455 100.701437 C 68.627183 100.701437 67.963154 100.037375 67.963154 99.213156 C 67.963154 98.392844 68.627183 97.724875 69.447455 97.724875 C 70.271632 97.724875 70.935662 98.392844 70.935662 99.213156 Z M 70.935662 99.213156 " transform="matrix(1.00005,0,0,-1,3.584229,127.303)"/>
<path style="fill-rule:nonzero;fill:rgb(0%,0%,0%);fill-opacity:1;stroke-width:0.3985;stroke-linecap:butt;stroke-linejoin:miter;stroke:rgb(0%,0%,0%);stroke-opacity:1;stroke-miterlimit:10;" d="M 120.542556 99.213156 C 120.542556 100.037375 119.878527 100.701437 119.054349 100.701437 C 118.234078 100.701437 117.570049 100.037375 117.570049 99.213156 C 117.570049 98.392844 118.234078 97.724875 119.054349 97.724875 C 119.878527 97.724875 120.542556 98.392844 120.542556 99.213156 Z M 120.542556 99.213156 " transform="matrix(1.00005,0,0,-1,3.584229,127.303)"/>
<path style="fill-rule:nonzero;fill:rgb(0%,0%,0%);fill-opacity:1;stroke-width:0.3985;stroke-linecap:butt;stroke-linejoin:miter;stroke:rgb(0%,0%,0%);stroke-opacity:1;stroke-miterlimit:10;" d="M 33.730491 111.6155 C 33.730491 112.435812 33.066461 113.103781 32.242284 113.103781 C 31.422012 113.103781 30.754077 112.435812 30.754077 111.6155 C 30.754077 110.795187 31.422012 110.127219 32.242284 110.127219 C 33.066461 110.127219 33.730491 110.795187 33.730491 111.6155 Z M 33.730491 111.6155 " transform="matrix(1.00005,0,0,-1,3.584229,127.303)"/>
<path style="fill-rule:nonzero;fill:rgb(0%,0%,0%);fill-opacity:1;stroke-width:0.3985;stroke-linecap:butt;stroke-linejoin:miter;stroke:rgb(0%,0%,0%);stroke-opacity:1;stroke-miterlimit:10;" d="M 83.337385 111.6155 C 83.337385 112.435812 82.673356 113.103781 81.849178 113.103781 C 81.028907 113.103781 80.364878 112.435812 80.364878 111.6155 C 80.364878 110.795187 81.028907 110.127219 81.849178 110.127219 C 82.673356 110.127219 83.337385 110.795187 83.337385 111.6155 Z M 83.337385 111.6155 " transform="matrix(1.00005,0,0,-1,3.584229,127.303)"/>
<path style="fill-rule:nonzero;fill:rgb(0%,0%,0%);fill-opacity:1;stroke-width:0.3985;stroke-linecap:butt;stroke-linejoin:miter;stroke:rgb(0%,0%,0%);stroke-opacity:1;stroke-miterlimit:10;" d="M 132.94428 111.6155 C 132.94428 112.435812 132.280251 113.103781 131.456073 113.103781 C 130.635802 113.103781 129.971772 112.435812 129.971772 111.6155 C 129.971772 110.795187 130.635802 110.127219 131.456073 110.127219 C 132.280251 110.127219 132.94428 110.795187 132.94428 111.6155 Z M 132.94428 111.6155 " transform="matrix(1.00005,0,0,-1,3.584229,127.303)"/>
<path style="fill-rule:nonzero;fill:rgb(0%,0%,0%);fill-opacity:1;stroke-width:0.3985;stroke-linecap:butt;stroke-linejoin:miter;stroke:rgb(0%,0%,0%);stroke-opacity:1;stroke-miterlimit:10;" d="M 46.132214 124.017844 C 46.132214 124.838156 45.468185 125.506125 44.644007 125.506125 C 43.823736 125.506125 43.159707 124.838156 43.159707 124.017844 C 43.159707 123.193625 43.823736 122.529562 44.644007 122.529562 C 45.468185 122.529562 46.132214 123.193625 46.132214 124.017844 Z M 46.132214 124.017844 " transform="matrix(1.00005,0,0,-1,3.584229,127.303)"/>
<path style="fill-rule:nonzero;fill:rgb(0%,0%,0%);fill-opacity:1;stroke-width:0.3985;stroke-linecap:butt;stroke-linejoin:miter;stroke:rgb(0%,0%,0%);stroke-opacity:1;stroke-miterlimit:10;" d="M 95.739109 124.017844 C 95.739109 124.838156 95.07508 125.506125 94.250902 125.506125 C 93.430631 125.506125 92.766601 124.838156 92.766601 124.017844 C 92.766601 123.193625 93.430631 122.529562 94.250902 122.529562 C 95.07508 122.529562 95.739109 123.193625 95.739109 124.017844 Z M 95.739109 124.017844 " transform="matrix(1.00005,0,0,-1,3.584229,127.303)"/>
<path style="fill-rule:nonzero;fill:rgb(0%,0%,0%);fill-opacity:1;stroke-width:0.3985;stroke-linecap:butt;stroke-linejoin:miter;stroke:rgb(0%,0%,0%);stroke-opacity:1;stroke-miterlimit:10;" d="M 145.346003 124.017844 C 145.346003 124.838156 144.681974 125.506125 143.857797 125.506125 C 143.037525 125.506125 142.373496 124.838156 142.373496 124.017844 C 142.373496 123.193625 143.037525 122.529562 143.857797 122.529562 C 144.681974 122.529562 145.346003 123.193625 145.346003 124.017844 Z M 145.346003 124.017844 " transform="matrix(1.00005,0,0,-1,3.584229,127.303)"/>
<path style="fill:none;stroke-width:0.3985;stroke-linecap:butt;stroke-linejoin:miter;stroke:rgb(0%,0%,0%);stroke-opacity:1;stroke-miterlimit:10;" d="M 0.00170821 -0.0016875 L 19.84056 99.213156 M 12.403432 12.400656 L 32.242284 111.6155 M 24.805156 24.803 L 44.644007 124.017844 " transform="matrix(1.00005,0,0,-1,3.584229,127.303)"/>
<path style="fill:none;stroke-width:0.3985;stroke-linecap:butt;stroke-linejoin:miter;stroke:rgb(0%,0%,0%);stroke-opacity:1;stroke-miterlimit:10;" d="M 49.608603 -0.0016875 L 69.447455 99.213156 M 62.010327 12.400656 L 81.849178 111.6155 M 74.41205 24.803 L 94.250902 124.017844 " transform="matrix(1.00005,0,0,-1,3.584229,127.303)"/>
<path style="fill:none;stroke-width:0.3985;stroke-linecap:butt;stroke-linejoin:miter;stroke:rgb(0%,0%,0%);stroke-opacity:1;stroke-miterlimit:10;" d="M 99.215498 -0.0016875 L 119.054349 99.213156 M 111.617221 111.6155 L 131.456073 111.6155 M 124.018945 24.803 L 143.857797 124.017844 " transform="matrix(1.00005,0,0,-1,3.584229,127.303)"/>
<path style="fill:none;stroke-width:0.3985;stroke-linecap:butt;stroke-linejoin:miter;stroke:rgb(0%,0%,0%);stroke-opacity:1;stroke-miterlimit:10;" d="M 0.00170821 -0.0016875 L 24.805156 24.803 M 49.608603 -0.0016875 L 74.41205 24.803 M 99.215498 -0.0016875 L 124.018945 24.803 " transform="matrix(1.00005,0,0,-1,3.584229,127.303)"/>
<path style="fill:none;stroke-width:0.3985;stroke-linecap:butt;stroke-linejoin:miter;stroke:rgb(0%,0%,0%);stroke-opacity:1;stroke-miterlimit:10;" d="M 9.923087 49.607687 L 34.726534 74.408469 M 59.529982 49.607687 L 84.333429 74.408469 M 109.136876 49.607687 L 133.940324 74.408469 " transform="matrix(1.00005,0,0,-1,3.584229,127.303)"/>
<path style="fill:none;stroke-width:0.3985;stroke-linecap:butt;stroke-linejoin:miter;stroke:rgb(0%,0%,0%);stroke-opacity:1;stroke-miterlimit:10;" d="M 19.84056 99.213156 L 44.644007 124.017844 M 69.447455 99.213156 L 94.250902 124.017844 M 119.054349 99.213156 L 143.857797 124.017844 " transform="matrix(1.00005,0,0,-1,3.584229,127.303)"/>
</g>
</svg>
