<?xml version="1.0" encoding="UTF-8"?>
<svg xmlns="http://www.w3.org/2000/svg" xmlns:xlink="http://www.w3.org/1999/xlink" width="150pt" height="130pt" viewBox="0 0 150 130" version="1.1">
<g id="surface1">
<path style="fill:none;stroke-width:0.3985;stroke-linecap:butt;stroke-linejoin:miter;stroke:rgb(0%,0%,0%);stroke-opacity:1;stroke-miterlimit:10;" d="M -0.0001875 -0.0016875 L 99.214656 -0.0016875 M 12.402156 12.400656 L 111.617 12.400656 M 24.8045 24.803 L 124.015438 24.803 " transform="matrix(1,0,0,-1,3.008,127.303)"/>
<path style="fill-rule:nonzero;fill:rgb(0%,0%,0%);fill-opacity:1;stroke-width:0.3985;stroke-linecap:butt;stroke-linejoin:miter;stroke:rgb(0%,0%,0%);stroke-opacity:1;stroke-miterlimit:10;" d="M 1.488094 -0.0016875 C 1.488094 0.822531 0.820125 1.486594 -0.0001875 1.486594 C -0.8205 1.486594 -1.488469 0.822531 -1.488469 -0.0016875 C -1.488469 -0.822 -0.8205 -1.489969 -0.0001875 -1.489969 C 0.820125 -1.489969 1.488094 -0.822 1.488094 -0.0016875 Z M 1.488094 -0.0016875 " transform="matrix(1,0,0,-1,3.008,127.303)"/>
<path style="fill-rule:nonzero;fill:rgb(0%,0%,0%);fill-opacity:1;stroke-width:0.3985;stroke-linecap:butt;stroke-linejoin:miter;stroke:rgb(0%,0%,0%);stroke-opacity:1;stroke-miterlimit:10;" d="M 51.093563 -0.0016875 C 51.093563 0.822531 50.4295 1.486594 49.605281 1.486594 C 48.784969 1.486594 48.117 0.822531 48.117 -0.0016875 C 48.117 -0.822 48.784969 -1.489969 49.605281 -1.489969 C 50.4295 -1.489969 51.093563 -0.822 51.093563 -0.0016875 Z M 51.093563 -0.0016875 " transform="matrix(1,0,0,-1,3.008,127.303)"/>
<path style="fill-rule:nonzero;fill:rgb(0%,0%,0%);fill-opacity:1;stroke-width:0.3985;stroke-linecap:butt;stroke-linejoin:miter;stroke:rgb(0%,0%,0%);stroke-opacity:1;stroke-miterlimit:10;" d="M 100.702938 -0.0016875 C 100.702938 0.822531 100.034969 1.486594 99.214656 1.486594 C 98.390438 1.486594 97.726375 0.822531 97.726375 -0.0016875 C 97.726375 -0.822 98.390438 -1.489969 99.214656 -1.489969 C 100.034969 -1.489969 100.702938 -0.822 100.702938 -0.0016875 Z M 100.702938 -0.0016875 " transform="matrix(1,0,0,-1,3.008,127.303)"/>
<path style="fill-rule:nonzero;fill:rgb(0%,0%,0%);fill-opacity:1;stroke-width:0.3985;stroke-linecap:butt;stroke-linejoin:miter;stroke:rgb(0%,0%,0%);stroke-opacity:1;stroke-miterlimit:10;" d="M 13.890438 12.400656 C 13.890438 13.224875 13.222469 13.888937 12.402156 13.888937 C 11.577938 13.888937 10.913875 13.224875 10.913875 12.400656 C 10.913875 11.580344 11.577938 10.912375 12.402156 10.912375 C 13.222469 10.912375 13.890438 11.580344 13.890438 12.400656 Z M 13.890438 12.400656 " transform="matrix(1,0,0,-1,3.008,127.303)"/>
<path style="fill-rule:nonzero;fill:rgb(0%,0%,0%);fill-opacity:1;stroke-width:0.3985;stroke-linecap:butt;stroke-linejoin:miter;stroke:rgb(0%,0%,0%);stroke-opacity:1;stroke-miterlimit:10;" d="M 63.495906 12.400656 C 63.495906 13.224875 62.831844 13.888937 62.007625 13.888937 C 61.187313 13.888937 60.519344 13.224875 60.519344 12.400656 C 60.519344 11.580344 61.187313 10.912375 62.007625 10.912375 C 62.831844 10.912375 63.495906 11.580344 63.495906 12.400656 Z M 63.495906 12.400656 " transform="matrix(1,0,0,-1,3.008,127.303)"/>
<path style="fill-rule:nonzero;fill:rgb(0%,0%,0%);fill-opacity:1;stroke-width:0.3985;stroke-linecap:butt;stroke-linejoin:miter;stroke:rgb(0%,0%,0%);stroke-opacity:1;stroke-miterlimit:10;" d="M 113.105281 12.400656 C 113.105281 13.224875 112.437313 13.888937 111.617 13.888937 C 110.792781 13.888937 110.128719 13.224875 110.128719 12.400656 C 110.128719 11.580344 110.792781 10.912375 111.617 10.912375 C 112.437313 10.912375 113.105281 11.580344 113.105281 12.400656 Z M 113.105281 12.400656 " transform="matrix(1,0,0,-1,3.008,127.303)"/>
<path style="fill-rule:nonzero;fill:rgb(0%,0%,0%);fill-opacity:1;stroke-width:0.3985;stroke-linecap:butt;stroke-linejoin:miter;stroke:rgb(0%,0%,0%);stroke-opacity:1;stroke-miterlimit:10;" d="M 26.292781 24.803 C 26.292781 25.627219 25.624813 26.291281 24.8045 26.291281 C 23.980281 26.291281 23.316219 25.627219 23.316219 24.803 C 23.316219 23.982687 23.980281 23.314719 24.8045 23.314719 C 25.624813 23.314719 26.292781 23.982687 26.292781 24.803 Z M 26.292781 24.803 " transform="matrix(1,0,0,-1,3.008,127.303)"/>
<path style="fill-rule:nonzero;fill:rgb(0%,0%,0%);fill-opacity:1;stroke-width:0.3985;stroke-linecap:butt;stroke-linejoin:miter;stroke:rgb(0%,0%,0%);stroke-opacity:1;stroke-miterlimit:10;" d="M 75.89825 24.803 C 75.89825 25.627219 75.230281 26.291281 74.409969 26.291281 C 73.589656 26.291281 72.921688 25.627219 72.921688 24.803 C 72.921688 23.982687 73.589656 23.314719 74.409969 23.314719 C 75.230281 23.314719 75.89825 23.982687 75.89825 24.803 Z M 75.89825 24.803 " transform="matrix(1,0,0,-1,3.008,127.303)"/>
<path style="fill-rule:nonzero;fill:rgb(0%,0%,0%);fill-opacity:1;stroke-width:0.3985;stroke-linecap:butt;stroke-linejoin:miter;stroke:rgb(0%,0%,0%);stroke-opacity:1;stroke-miterlimit:10;" d="M 125.503719 24.803 C 125.503719 25.627219 124.839656 26.291281 124.015438 26.291281 C 123.195125 26.291281 122.531063 25.627219 122.531063 24.803 C 122.531063 23.982687 123.195125 23.314719 124.015438 23.314719 C 124.839656 23.314719 125.503719 23.982687 125.503719 24.803 Z M 125.503719 24.803 " transform="matrix(1,0,0,-1,3.008,127.303)"/>
<path style="fill:none;stroke-width:0.3985;stroke-linecap:butt;stroke-linejoin:miter;stroke:rgb(0%,0%,0%);stroke-opacity:1;stroke-miterlimit:10;" d="M 9.921688 49.607687 L 109.136531 49.607687 M 22.324031 62.010031 L 121.534969 62.010031 M 34.726375 74.408469 L 133.937313 74.408469 " transform="matrix(1,0,0,-1,3.008,127.303)"/>
<path style="fill-rule:nonzero;fill:rgb(0%,0%,0%);fill-opacity:1;stroke-width:0.3985;stroke-linecap:butt;stroke-linejoin:miter;stroke:rgb(0%,0%,0%);stroke-opacity:1;stroke-miterlimit:10;" d="M 11.409969 49.607687 C 11.409969 50.428 10.742 51.095969 9.921688 51.095969 C 9.097469 51.095969 8.433406 50.428 8.433406 49.607687 C 8.433406 48.783469 9.097469 48.119406 9.921688 48.119406 C 10.742 48.119406 11.409969 48.783469 11.409969 49.607687 Z M 11.409969 49.607687 " transform="matrix(1,0,0,-1,3.008,127.303)"/>
<path style="fill-rule:nonzero;fill:rgb(0%,0%,0%);fill-opacity:1;stroke-width:0.3985;stroke-linecap:butt;stroke-linejoin:miter;stroke:rgb(0%,0%,0%);stroke-opacity:1;stroke-miterlimit:10;" d="M 61.015438 49.607687 C 61.015438 50.428 60.351375 51.095969 59.527156 51.095969 C 58.706844 51.095969 58.038875 50.428 58.038875 49.607687 C 58.038875 48.783469 58.706844 48.119406 59.527156 48.119406 C 60.351375 48.119406 61.015438 48.783469 61.015438 49.607687 Z M 61.015438 49.607687 " transform="matrix(1,0,0,-1,3.008,127.303)"/>
<path style="fill-rule:nonzero;fill:rgb(0%,0%,0%);fill-opacity:1;stroke-width:0.3985;stroke-linecap:butt;stroke-linejoin:miter;stroke:rgb(0%,0%,0%);stroke-opacity:1;stroke-miterlimit:10;" d="M 110.624813 49.607687 C 110.624813 50.428 109.956844 51.095969 109.136531 51.095969 C 108.312313 51.095969 107.64825 50.428 107.64825 49.607687 C 107.64825 48.783469 108.312313 48.119406 109.136531 48.119406 C 109.956844 48.119406 110.624813 48.783469 110.624813 49.607687 Z M 110.624813 49.607687 " transform="matrix(1,0,0,-1,3.008,127.303)"/>
<path style="fill-rule:nonzero;fill:rgb(0%,0%,0%);fill-opacity:1;stroke-width:0.3985;stroke-linecap:butt;stroke-linejoin:miter;stroke:rgb(0%,0%,0%);stroke-opacity:1;stroke-miterlimit:10;" d="M 23.812313 62.010031 C 23.812313 62.830344 23.144344 63.498312 22.324031 63.498312 C 21.499813 63.498312 20.83575 62.830344 20.83575 62.010031 C 20.83575 61.185812 21.499813 60.52175 22.324031 60.52175 C 23.144344 60.52175 23.812313 61.185812 23.812313 62.010031 Z M 23.812313 62.010031 " transform="matrix(1,0,0,-1,3.008,127.303)"/>
<path style="fill-rule:nonzero;fill:rgb(0%,0%,0%);fill-opacity:1;stroke-width:0.3985;stroke-linecap:butt;stroke-linejoin:miter;stroke:rgb(0%,0%,0%);stroke-opacity:1;stroke-miterlimit:10;" d="M 73.417781 62.010031 C 73.417781 62.830344 72.749813 63.498312 71.9295 63.498312 C 71.109188 63.498312 70.441219 62.830344 70.441219 62.010031 C 70.441219 61.185812 71.109188 60.52175 71.9295 60.52175 C 72.749813 60.52175 73.417781 61.185812 73.417781 62.010031 Z M 73.417781 62.010031 " transform="matrix(1,0,0,-1,3.008,127.303)"/>
<path style="fill-rule:nonzero;fill:rgb(0%,0%,0%);fill-opacity:1;stroke-width:0.3985;stroke-linecap:butt;stroke-linejoin:miter;stroke:rgb(0%,0%,0%);stroke-opacity:1;stroke-miterlimit:10;" d="M 123.02325 62.010031 C 123.02325 62.830344 122.359188 63.498312 121.534969 63.498312 C 120.714656 63.498312 120.046688 62.830344 120.046688 62.010031 C 120.046688 61.185812 120.714656 60.52175 121.534969 60.52175 C 122.359188 60.52175 123.02325 61.185812 123.02325 62.010031 Z M 123.02325 62.010031 " transform="matrix(1,0,0,-1,3.008,127.303)"/>
<path style="fill-rule:nonzero;fill:rgb(0%,0%,0%);fill-opacity:1;stroke-width:0.3985;stroke-linecap:butt;stroke-linejoin:miter;stroke:rgb(0%,0%,0%);stroke-opacity:1;stroke-miterlimit:10;" d="M 36.214656 74.408469 C 36.214656 75.232687 35.546688 75.89675 34.726375 75.89675 C 33.902156 75.89675 33.238094 75.232687 33.238094 74.408469 C 33.238094 73.588156 33.902156 72.924094 34.726375 72.924094 C 35.546688 72.924094 36.214656 73.588156 36.214656 74.408469 Z M 36.214656 74.408469 " transform="matrix(1,0,0,-1,3.008,127.303)"/>
<path style="fill-rule:nonzero;fill:rgb(0%,0%,0%);fill-opacity:1;stroke-width:0.3985;stroke-linecap:butt;stroke-linejoin:miter;stroke:rgb(0%,0%,0%);stroke-opacity:1;stroke-miterlimit:10;" d="M 85.820125 74.408469 C 85.820125 75.232687 85.152156 75.89675 84.331844 75.89675 C 83.511531 75.89675 82.843563 75.232687 82.843563 74.408469 C 82.843563 73.588156 83.511531 72.924094 84.331844 72.924094 C 85.152156 72.924094 85.820125 73.588156 85.820125 74.408469 Z M 85.820125 74.408469 " transform="matrix(1,0,0,-1,3.008,127.303)"/>
<path style="fill-rule:nonzero;fill:rgb(0%,0%,0%);fill-opacity:1;stroke-width:0.3985;stroke-linecap:butt;stroke-linejoin:miter;stroke:rgb(0%,0%,0%);stroke-opacity:1;stroke-miterlimit:10;" d="M 135.425594 74.408469 C 135.425594 75.232687 134.761531 75.89675 133.937313 75.89675 C 133.117 75.89675 132.449031 75.232687 132.449031 74.408469 C 132.449031 73.588156 133.117 72.924094 133.937313 72.924094 C 134.761531 72.924094 135.425594 73.588156 135.425594 74.408469 Z M 135.425594 74.408469 " transform="matrix(1,0,0,-1,3.008,127.303)"/>
<path style="fill:none;stroke-width:0.3985;stroke-linecap:butt;stroke-linejoin:miter;stroke:rgb(0%,0%,0%);stroke-opacity:1;stroke-miterlimit:10;" d="M 19.843563 99.213156 L 119.0545 99.213156 M 32.245906 111.6155 L 131.456844 111.6155 M 44.644344 124.017844 L 143.859188 124.017844 " transform="matrix(1,0,0,-1,3.008,127.303)"/>
<path style="fill-rule:nonzero;fill:rgb(0%,0%,0%);fill-opacity:1;stroke-width:0.3985;stroke-linecap:butt;stroke-linejoin:miter;stroke:rgb(0%,0%,0%);stroke-opacity:1;stroke-miterlimit:10;" d="M 21.331844 99.213156 C 21.331844 100.037375 20.663875 100.701437 19.843563 100.701437 C 19.019344 100.701437 18.355281 100.037375 18.355281 99.213156 C 18.355281 98.392844 19.019344 97.724875 19.843563 97.724875 C 20.663875 97.724875 21.331844 98.392844 21.331844 99.213156 Z M 21.331844 99.213156 " transform="matrix(1,0,0,-1,3.008,127.303)"/>
<path style="fill-rule:nonzero;fill:rgb(0%,0%,0%);fill-opacity:1;stroke-width:0.3985;stroke-linecap:butt;stroke-linejoin:miter;stroke:rgb(0%,0%,0%);stroke-opacity:1;stroke-miterlimit:10;" d="M 70.937313 99.213156 C 70.937313 100.037375 70.269344 100.701437 69.449031 100.701437 C 68.628719 100.701437 67.96075 100.037375 67.96075 99.213156 C 67.96075 98.392844 68.628719 97.724875 69.449031 97.724875 C 70.269344 97.724875 70.937313 98.392844 70.937313 99.213156 Z M 70.937313 99.213156 " transform="matrix(1,0,0,-1,3.008,127.303)"/>
<path style="fill-rule:nonzero;fill:rgb(0%,0%,0%);fill-opacity:1;stroke-width:0.3985;stroke-linecap:butt;stroke-linejoin:miter;stroke:rgb(0%,0%,0%);stroke-opacity:1;stroke-miterlimit:10;" d="M 120.542781 99.213156 C 120.542781 100.037375 119.878719 100.701437 119.0545 100.701437 C 118.234188 100.701437 117.566219 100.037375 117.566219 99.213156 C 117.566219 98.392844 118.234188 97.724875 119.0545 97.724875 C 119.878719 97.724875 120.542781 98.392844 120.542781 99.213156 Z M 120.542781 99.213156 " transform="matrix(1,0,0,-1,3.008,127.303)"/>
<path style="fill-rule:nonzero;fill:rgb(0%,0%,0%);fill-opacity:1;stroke-width:0.3985;stroke-linecap:butt;stroke-linejoin:miter;stroke:rgb(0%,0%,0%);stroke-opacity:1;stroke-miterlimit:10;" d="M 33.734188 111.6155 C 33.734188 112.435812 33.066219 113.103781 32.245906 113.103781 C 31.421688 113.103781 30.757625 112.435812 30.757625 111.6155 C 30.757625 110.795187 31.421688 110.127219 32.245906 110.127219 C 33.066219 110.127219 33.734188 110.795187 33.734188 111.6155 Z M 33.734188 111.6155 " transform="matrix(1,0,0,-1,3.008,127.303)"/>
<path style="fill-rule:nonzero;fill:rgb(0%,0%,0%);fill-opacity:1;stroke-width:0.3985;stroke-linecap:butt;stroke-linejoin:miter;stroke:rgb(0%,0%,0%);stroke-opacity:1;stroke-miterlimit:10;" d="M 83.339656 111.6155 C 83.339656 112.435812 82.671688 113.103781 81.851375 113.103781 C 81.031063 113.103781 80.363094 112.435812 80.363094 111.6155 C 80.363094 110.795187 81.031063 110.127219 81.851375 110.127219 C 82.671688 110.127219 83.339656 110.795187 83.339656 111.6155 Z M 83.339656 111.6155 " transform="matrix(1,0,0,-1,3.008,127.303)"/>
<path style="fill-rule:nonzero;fill:rgb(0%,0%,0%);fill-opacity:1;stroke-width:0.3985;stroke-linecap:butt;stroke-linejoin:miter;stroke:rgb(0%,0%,0%);stroke-opacity:1;stroke-miterlimit:10;" d="M 132.945125 111.6155 C 132.945125 112.435812 132.281063 113.103781 131.456844 113.103781 C 130.636531 113.103781 129.968563 112.435812 129.968563 111.6155 C 129.968563 110.795187 130.636531 110.127219 131.456844 110.127219 C 132.281063 110.127219 132.945125 110.795187 132.945125 111.6155 Z M 132.945125 111.6155 " transform="matrix(1,0,0,-1,3.008,127.303)"/>
<path style="fill-rule:nonzero;fill:rgb(0%,0%,0%);fill-opacity:1;stroke-width:0.3985;stroke-linecap:butt;stroke-linejoin:miter;stroke:rgb(0%,0%,0%);stroke-opacity:1;stroke-miterlimit:10;" d="M 46.132625 124.017844 C 46.132625 124.838156 45.468563 125.506125 44.644344 125.506125 C 43.824031 125.506125 43.156063 124.838156 43.156063 124.017844 C 43.156063 123.193625 43.824031 122.529562 44.644344 122.529562 C 45.468563 122.529562 46.132625 123.193625 46.132625 124.017844 Z M 46.132625 124.017844 " transform="matrix(1,0,0,-1,3.008,127.303)"/>
<path style="fill-rule:nonzero;fill:rgb(0%,0%,0%);fill-opacity:1;stroke-width:0.3985;stroke-linecap:butt;stroke-linejoin:miter;stroke:rgb(0%,0%,0%);stroke-opacity:1;stroke-miterlimit:10;" d="M 95.742 124.017844 C 95.742 124.838156 95.074031 125.506125 94.253719 125.506125 C 93.4295 125.506125 92.765438 124.838156 92.765438 124.017844 C 92.765438 123.193625 93.4295 122.529562 94.253719 122.529562 C 95.074031 122.529562 95.742 123.193625 95.742 124.017844 Z M 95.742 124.017844 " transform="matrix(1,0,0,-1,3.008,127.303)"/>
<path style="fill-rule:nonzero;fill:rgb(0%,0%,0%);fill-opacity:1;stroke-width:0.3985;stroke-linecap:butt;stroke-linejoin:miter;stroke:rgb(0%,0%,0%);stroke-opacity:1;stroke-miterlimit:10;" d="M 145.347469 124.017844 C 145.347469 124.838156 144.683406 125.506125 143.859188 125.506125 C 143.038875 125.506125 142.370906 124.838156 142.370906 124.017844 C 142.370906 123.193625 143.038875 122.529562 143.859188 122.529562 C 144.683406 122.529562 145.347469 123.193625 145.347469 124.017844 Z M 145.347469 124.017844 " transform="matrix(1,0,0,-1,3.008,127.303)"/>
<path style="fill:none;stroke-width:0.3985;stroke-linecap:butt;stroke-linejoin:miter;stroke:rgb(0%,0%,0%);stroke-opacity:1;stroke-miterlimit:10;" d="M -0.0001875 -0.0016875 L 19.843563 99.213156 M 12.402156 12.400656 L 32.245906 111.6155 M 24.8045 24.803 L 44.644344 124.017844 " transform="matrix(1,0,0,-1,3.008,127.303)"/>
<path style="fill:none;stroke-width:0.3985;stroke-linecap:butt;stroke-linejoin:miter;stroke:rgb(0%,0%,0%);stroke-opacity:1;stroke-miterlimit:10;" d="M 49.605281 -0.0016875 L 69.449031 99.213156 M 62.007625 12.400656 L 81.851375 111.6155 M 74.409969 24.803 L 94.253719 124.017844 " transform="matrix(1,0,0,-1,3.008,127.303)"/>
<path style="fill:none;stroke-width:0.3985;stroke-linecap:butt;stroke-linejoin:miter;stroke:rgb(0%,0%,0%);stroke-opacity:1;stroke-miterlimit:10;" d="M 99.214656 -0.0016875 L 119.0545 99.213156 M 111.617 111.6155 L 131.456844 111.6155 M 124.015438 24.803 L 143.859188 124.017844 " transform="matrix(1,0,0,-1,3.008,127.303)"/>
<path style="fill:none;stroke-width:0.3985;stroke-linecap:butt;stroke-linejoin:miter;stroke:rgb(0%,0%,0%);stroke-opacity:1;stroke-miterlimit:10;" d="M -0.0001875 -0.0016875 L 24.8045 24.803 M 49.605281 -0.0016875 L 74.409969 24.803 M 99.214656 -0.0016875 L 124.015438 24.803 " transform="matrix(1,0,0,-1,3.008,127.303)"/>
<path style="fill:none;stroke-width:0.3985;stroke-linecap:butt;stroke-linejoin:miter;stroke:rgb(0%,0%,0%);stroke-opacity:1;stroke-miterlimit:10;" d="M 9.921688 49.607687 L 34.726375 74.408469 M 59.527156 49.607687 L 84.331844 74.408469 M 109.136531 49.607687 L 133.937313 74.408469 " transform="matrix(1,0,0,-1,3.008,127.303)"/>
<path style="fill:none;stroke-width:0.3985;stroke-linecap:butt;stroke-linejoin:miter;stroke:rgb(0%,0%,0%);stroke-opacity:1;stroke-miterlimit:10;" d="M 19.843563 99.213156 L 44.644344 124.017844 M 69.449031 99.213156 L 94.253719 124.017844 M 119.0545 99.213156 L 143.859188 124.017844 " transform="matrix(1,0,0,-1,3.008,127.303)"/>
</g>
</svg>
