<?xml version="1.0" encoding="UTF-8"?>
<svg xmlns="http://www.w3.org/2000/svg" xmlns:xlink="http://www.w3.org/1999/xlink" width="315pt" height="124pt" viewBox="0 0 315 124" version="1.1">
<g id="surface1">
<path style="fill:none;stroke-width:0.3985;stroke-linecap:butt;stroke-linejoin:miter;stroke:rgb(0%,0%,0%);stroke-opacity:1;stroke-miterlimit:10;" d="M -0.00046875 0.00028125 L 28.347188 -21.261438 L 56.694844 0.00028125 L 85.038594 -21.261438 L 113.38625 0.00028125 L 141.733906 -21.261438 L 170.081563 0.00028125 L 198.429219 -21.261438 L 226.772969 0.00028125 L 255.120625 -21.261438 L 283.468281 0.00028125 " transform="matrix(1,0,0,-1,1.52,101.012)"/>
<path style="fill:none;stroke-width:0.3985;stroke-linecap:butt;stroke-linejoin:miter;stroke:rgb(0%,0%,0%);stroke-opacity:1;stroke-miterlimit:10;" d="M -0.00046875 14.172156 L 28.347188 -7.085656 L 56.694844 14.172156 L 85.038594 -7.085656 L 113.38625 14.172156 L 141.733906 -7.085656 L 170.081563 14.172156 L 198.429219 -7.085656 L 226.772969 14.172156 L 255.120625 -7.085656 L 283.468281 14.172156 L 311.815938 -7.085656 " transform="matrix(1,0,0,-1,1.52,101.012)"/>
<path style="fill:none;stroke-width:0.3985;stroke-linecap:butt;stroke-linejoin:miter;stroke:rgb(0%,0%,0%);stroke-opacity:1;stroke-miterlimit:10;" d="M -0.00046875 28.347937 L 28.347188 7.086219 L 56.694844 28.347937 L 85.038594 7.086219 L 113.38625 28.347937 L 141.733906 7.086219 L 170.081563 28.347937 L 198.429219 7.086219 L 226.772969 28.347937 L 255.120625 7.086219 L 283.468281 28.347937 L 311.815938 7.086219 " transform="matrix(1,0,0,-1,1.52,101.012)"/>
<path style="fill:none;stroke-width:0.3985;stroke-linecap:butt;stroke-linejoin:miter;stroke:rgb(0%,0%,0%);stroke-opacity:1;stroke-miterlimit:10;" d="M -0.00046875 42.519812 L 28.347188 21.262 L 56.694844 42.519812 L 85.038594 21.262 L 113.38625 42.519812 L 141.733906 21.262 L 170.081563 42.519812 L 198.429219 21.262 L 226.772969 42.519812 L 255.120625 21.262 L 283.468281 42.519812 L 311.815938 21.262 " transform="matrix(1,0,0,-1,1.52,101.012)"/>
<path style="fill:none;stroke-width:0.3985;stroke-linecap:butt;stroke-linejoin:miter;stroke:rgb(0%,0%,0%);stroke-opacity:1;stroke-miterlimit:10;" d="M -0.00046875 56.691687 L 28.347188 35.433875 L 56.694844 56.691687 L 85.038594 35.433875 L 113.38625 56.691687 L 141.733906 35.433875 L 170.081563 56.691687 L 198.429219 35.433875 L 226.772969 56.691687 L 255.120625 35.433875 L 283.468281 56.691687 L 311.815938 35.433875 " transform="matrix(1,0,0,-1,1.52,101.012)"/>
<path style="fill:none;stroke-width:0.3985;stroke-linecap:butt;stroke-linejoin:miter;stroke:rgb(0%,0%,0%);stroke-opacity:1;stroke-miterlimit:10;" d="M -0.00046875 70.867469 L 28.347188 49.60575 L 56.694844 70.867469 L 85.038594 49.60575 L 113.38625 70.867469 L 141.733906 49.60575 L 170.081563 70.867469 L 198.429219 49.60575 L 226.772969 70.867469 L 255.120625 49.60575 L 283.468281 70.867469 L 311.815938 49.60575 " transform="matrix(1,0,0,-1,1.52,101.012)"/>
<path style="fill:none;stroke-width:0.3985;stroke-linecap:butt;stroke-linejoin:miter;stroke:rgb(0%,0%,0%);stroke-opacity:1;stroke-miterlimit:10;" d="M -0.00046875 85.039344 L 28.347188 63.781531 L 56.694844 85.039344 L 85.038594 63.781531 L 113.38625 85.039344 L 141.733906 63.781531 L 170.081563 85.039344 L 198.429219 63.781531 L 226.772969 85.039344 L 255.120625 63.781531 L 283.468281 85.039344 L 311.815938 63.781531 " transform="matrix(1,0,0,-1,1.52,101.012)"/>
<path style="fill:none;stroke-width:0.3985;stroke-linecap:butt;stroke-linejoin:miter;stroke:rgb(0%,0%,0%);stroke-opacity:1;stroke-miterlimit:10;" d="M -0.00046875 99.215125 L 28.347188 77.953406 L 56.694844 99.215125 L 85.038594 77.953406 L 113.38625 99.215125 L 141.733906 77.953406 L 170.081563 99.215125 L 198.429219 77.953406 L 226.772969 99.215125 L 255.120625 77.953406 L 283.468281 99.215125 " transform="matrix(1,0,0,-1,1.52,101.012)"/>
<path style="fill:none;stroke-width:0.3985;stroke-linecap:butt;stroke-linejoin:miter;stroke:rgb(0%,0%,0%);stroke-opacity:1;stroke-miterlimit:10;" d="M -0.00046875 0.00028125 L -0.00046875 14.172156 M -0.00046875 28.347937 L -0.00046875 42.519812 M -0.00046875 56.691687 L -0.00046875 70.867469 M -0.00046875 85.039344 L -0.00046875 99.215125 " transform="matrix(1,0,0,-1,1.52,101.012)"/>
<path style="fill:none;stroke-width:0.3985;stroke-linecap:butt;stroke-linejoin:miter;stroke:rgb(0%,0%,0%);stroke-opacity:1;stroke-miterlimit:10;" d="M 56.694844 0.00028125 L 56.694844 14.172156 M 56.694844 28.347937 L 56.694844 42.519812 M 56.694844 56.691687 L 56.694844 70.867469 M 56.694844 85.039344 L 56.694844 99.215125 " transform="matrix(1,0,0,-1,1.52,101.012)"/>
<path style="fill:none;stroke-width:0.3985;stroke-linecap:butt;stroke-linejoin:miter;stroke:rgb(0%,0%,0%);stroke-opacity:1;stroke-miterlimit:10;" d="M 113.38625 0.00028125 L 113.38625 14.172156 M 113.38625 28.347937 L 113.38625 42.519812 M 113.38625 56.691687 L 113.38625 70.867469 M 113.38625 85.039344 L 113.38625 99.215125 " transform="matrix(1,0,0,-1,1.52,101.012)"/>
<path style="fill:none;stroke-width:0.3985;stroke-linecap:butt;stroke-linejoin:miter;stroke:rgb(0%,0%,0%);stroke-opacity:1;stroke-miterlimit:10;" d="M 170.081563 0.00028125 L 170.081563 14.172156 M 170.081563 28.347937 L 170.081563 42.519812 M 170.081563 56.691687 L 170.081563 70.867469 M 170.081563 85.039344 L 170.081563 99.215125 " transform="matrix(1,0,0,-1,1.52,101.012)"/>
<path style="fill:none;stroke-width:0.3985;stroke-linecap:butt;stroke-linejoin:miter;stroke:rgb(0%,0%,0%);stroke-opacity:1;stroke-miterlimit:10;" d="M 226.772969 0.00028125 L 226.772969 14.172156 M 226.772969 28.347937 L 226.772969 42.519812 M 226.772969 56.691687 L 226.772969 70.867469 M 226.772969 85.039344 L 226.772969 99.215125 " transform="matrix(1,0,0,-1,1.52,101.012)"/>
<path style="fill:none;stroke-width:0.3985;stroke-linecap:butt;stroke-linejoin:miter;stroke:rgb(0%,0%,0%);stroke-opacity:1;stroke-miterlimit:10;" d="M 283.468281 0.00028125 L 283.468281 14.172156 M 283.468281 28.347937 L 283.468281 42.519812 M 283.468281 56.691687 L 283.468281 70.867469 M 283.468281 85.039344 L 283.468281 99.215125 " transform="matrix(1,0,0,-1,1.52,101.012)"/>
<path style="fill:none;stroke-width:0.3985;stroke-linecap:butt;stroke-linejoin:miter;stroke:rgb(0%,0%,0%);stroke-opacity:1;stroke-miterlimit:10;" d="M 28.347188 -7.085656 L 28.347188 7.086219 M 28.347188 21.262 L 28.347188 35.433875 M 28.347188 49.60575 L 28.347188 63.781531 " transform="matrix(1,0,0,-1,1.52,101.012)"/>
<path style="fill:none;stroke-width:0.3985;stroke-linecap:butt;stroke-linejoin:miter;stroke:rgb(0%,0%,0%);stroke-opacity:1;stroke-miterlimit:10;" d="M 85.038594 -7.085656 L 85.038594 7.086219 M 85.038594 21.262 L 85.038594 35.433875 M 85.038594 49.60575 L 85.038594 63.781531 " transform="matrix(1,0,0,-1,1.52,101.012)"/>
<path style="fill:none;stroke-width:0.3985;stroke-linecap:butt;stroke-linejoin:miter;stroke:rgb(0%,0%,0%);stroke-opacity:1;stroke-miterlimit:10;" d="M 141.733906 -7.085656 L 141.733906 7.086219 M 141.733906 21.262 L 141.733906 35.433875 M 141.733906 49.60575 L 141.733906 63.781531 " transform="matrix(1,0,0,-1,1.52,101.012)"/>
<path style="fill:none;stroke-width:0.3985;stroke-linecap:butt;stroke-linejoin:miter;stroke:rgb(0%,0%,0%);stroke-opacity:1;stroke-miterlimit:10;" d="M 198.429219 -7.085656 L 198.429219 7.086219 M 198.429219 21.262 L 198.429219 35.433875 M 198.429219 49.60575 L 198.429219 63.781531 " transform="matrix(1,0,0,-1,1.52,101.012)"/>
<path style="fill:none;stroke-width:0.3985;stroke-linecap:butt;stroke-linejoin:miter;stroke:rgb(0%,0%,0%);stroke-opacity:1;stroke-miterlimit:10;" d="M 255.120625 -7.085656 L 255.120625 7.086219 M 255.120625 21.262 L 255.120625 35.433875 M 255.120625 49.60575 L 255.120625 63.781531 " transform="matrix(1,0,0,-1,1.52,101.012)"/>
<path style="fill:none;stroke-width:0.3985;stroke-linecap:butt;stroke-linejoin:miter;stroke:rgb(0%,0%,0%);stroke-opacity:1;stroke-miterlimit:10;" d="M 311.815938 -7.085656 L 311.815938 7.086219 M 311.815938 21.262 L 311.815938 35.433875 M 311.815938 49.60575 L 311.815938 63.781531 " transform="matrix(1,0,0,-1,1.52,101.012)"/>
</g>
</svg>
