<?xml version="1.0" encoding="UTF-8"?>
<svg xmlns="http://www.w3.org/2000/svg" xmlns:xlink="http://www.w3.org/1999/xlink" width="316pt" height="124pt" viewBox="0 0 316 124" version="1.1">
<g id="surface1">
<path style="fill:none;stroke-width:0.3985;stroke-linecap:butt;stroke-linejoin:miter;stroke:rgb(0%,0%,0%);stroke-opacity:1;stroke-miterlimit:10;" d="M -0.00191188 -0.00107452 L 28.345177 -21.258249 L 56.692267 -0.00107452 L 85.039356 -21.258249 L 113.386445 -0.00107452 L 141.733535 -21.258249 L 170.080624 -0.00107452 L 198.427713 -21.258249 L 226.774803 -0.00107452 L 255.121892 -21.258249 L 283.468981 -0.00107452 " transform="matrix(1.00002,0,0,-1.00003,2.095662,101.01455)"/>
<path style="fill:none;stroke-width:0.3985;stroke-linecap:butt;stroke-linejoin:miter;stroke:rgb(0%,0%,0%);stroke-opacity:1;stroke-miterlimit:10;" d="M -0.00191188 14.174281 L 28.345177 -7.086799 L 56.692267 14.174281 L 85.039356 -7.086799 L 113.386445 14.174281 L 141.733535 -7.086799 L 170.080624 14.174281 L 198.427713 -7.086799 L 226.774803 14.174281 L 255.121892 -7.086799 L 283.468981 14.174281 L 311.816071 -7.086799 " transform="matrix(1.00002,0,0,-1.00003,2.095662,101.01455)"/>
<path style="fill:none;stroke-width:0.3985;stroke-linecap:butt;stroke-linejoin:miter;stroke:rgb(0%,0%,0%);stroke-opacity:1;stroke-miterlimit:10;" d="M -0.00191188 28.345731 L 28.345177 7.088557 L 56.692267 28.345731 L 85.039356 7.088557 L 113.386445 28.345731 L 141.733535 7.088557 L 170.080624 28.345731 L 198.427713 7.088557 L 226.774803 28.345731 L 255.121892 7.088557 L 283.468981 28.345731 L 311.816071 7.088557 " transform="matrix(1.00002,0,0,-1.00003,2.095662,101.01455)"/>
<path style="fill:none;stroke-width:0.3985;stroke-linecap:butt;stroke-linejoin:miter;stroke:rgb(0%,0%,0%);stroke-opacity:1;stroke-miterlimit:10;" d="M -0.00191188 42.521087 L 28.345177 21.260006 L 56.692267 42.521087 L 85.039356 21.260006 L 113.386445 42.521087 L 141.733535 21.260006 L 170.080624 42.521087 L 198.427713 21.260006 L 226.774803 42.521087 L 255.121892 21.260006 L 283.468981 42.521087 L 311.816071 21.260006 " transform="matrix(1.00002,0,0,-1.00003,2.095662,101.01455)"/>
<path style="fill:none;stroke-width:0.3985;stroke-linecap:butt;stroke-linejoin:miter;stroke:rgb(0%,0%,0%);stroke-opacity:1;stroke-miterlimit:10;" d="M -0.00191188 56.692537 L 28.345177 35.435362 L 56.692267 56.692537 L 85.039356 35.435362 L 113.386445 56.692537 L 141.733535 35.435362 L 170.080624 56.692537 L 198.427713 35.435362 L 226.774803 56.692537 L 255.121892 35.435362 L 283.468981 56.692537 L 311.816071 35.435362 " transform="matrix(1.00002,0,0,-1.00003,2.095662,101.01455)"/>
<path style="fill:none;stroke-width:0.3985;stroke-linecap:butt;stroke-linejoin:miter;stroke:rgb(0%,0%,0%);stroke-opacity:1;stroke-miterlimit:10;" d="M -0.00191188 70.867893 L 28.345177 49.606812 L 56.692267 70.867893 L 85.039356 49.606812 L 113.386445 70.867893 L 141.733535 49.606812 L 170.080624 70.867893 L 198.427713 49.606812 L 226.774803 70.867893 L 255.121892 49.606812 L 283.468981 70.867893 L 311.816071 49.606812 " transform="matrix(1.00002,0,0,-1.00003,2.095662,101.01455)"/>
<path style="fill:none;stroke-width:0.3985;stroke-linecap:butt;stroke-linejoin:miter;stroke:rgb(0%,0%,0%);stroke-opacity:1;stroke-miterlimit:10;" d="M -0.00191188 85.039343 L 28.345177 63.782168 L 56.692267 85.039343 L 85.039356 63.782168 L 113.386445 85.039343 L 141.733535 63.782168 L 170.080624 85.039343 L 198.427713 63.782168 L 226.774803 85.039343 L 255.121892 63.782168 L 283.468981 85.039343 L 311.816071 63.782168 " transform="matrix(1.00002,0,0,-1.00003,2.095662,101.01455)"/>
<path style="fill:none;stroke-width:0.3985;stroke-linecap:butt;stroke-linejoin:miter;stroke:rgb(0%,0%,0%);stroke-opacity:1;stroke-miterlimit:10;" d="M -0.00191188 99.214699 L 28.345177 77.953618 L 56.692267 99.214699 L 85.039356 77.953618 L 113.386445 99.214699 L 141.733535 77.953618 L 170.080624 99.214699 L 198.427713 77.953618 L 226.774803 99.214699 L 255.121892 77.953618 L 283.468981 99.214699 " transform="matrix(1.00002,0,0,-1.00003,2.095662,101.01455)"/>
<path style="fill:none;stroke-width:0.3985;stroke-linecap:butt;stroke-linejoin:miter;stroke:rgb(0%,0%,0%);stroke-opacity:1;stroke-miterlimit:10;" d="M -0.00191188 -0.00107452 L -0.00191188 14.174281 M -0.00191188 28.345731 L -0.00191188 42.521087 M -0.00191188 56.692537 L -0.00191188 70.867893 M -0.00191188 85.039343 L -0.00191188 99.214699 " transform="matrix(1.00002,0,0,-1.00003,2.095662,101.01455)"/>
<path style="fill:none;stroke-width:0.3985;stroke-linecap:butt;stroke-linejoin:miter;stroke:rgb(0%,0%,0%);stroke-opacity:1;stroke-miterlimit:10;" d="M 56.692267 -0.00107452 L 56.692267 14.174281 M 56.692267 28.345731 L 56.692267 42.521087 M 56.692267 56.692537 L 56.692267 70.867893 M 56.692267 85.039343 L 56.692267 99.214699 " transform="matrix(1.00002,0,0,-1.00003,2.095662,101.01455)"/>
<path style="fill:none;stroke-width:0.3985;stroke-linecap:butt;stroke-linejoin:miter;stroke:rgb(0%,0%,0%);stroke-opacity:1;stroke-miterlimit:10;" d="M 113.386445 -0.00107452 L 113.386445 14.174281 M 113.386445 28.345731 L 113.386445 42.521087 M 113.386445 56.692537 L 113.386445 70.867893 M 113.386445 85.039343 L 113.386445 99.214699 " transform="matrix(1.00002,0,0,-1.00003,2.095662,101.01455)"/>
<path style="fill:none;stroke-width:0.3985;stroke-linecap:butt;stroke-linejoin:miter;stroke:rgb(0%,0%,0%);stroke-opacity:1;stroke-miterlimit:10;" d="M 170.080624 -0.00107452 L 170.080624 14.174281 M 170.080624 28.345731 L 170.080624 42.521087 M 170.080624 56.692537 L 170.080624 70.867893 M 170.080624 85.039343 L 170.080624 99.214699 " transform="matrix(1.00002,0,0,-1.00003,2.095662,101.01455)"/>
<path style="fill:none;stroke-width:0.3985;stroke-linecap:butt;stroke-linejoin:miter;stroke:rgb(0%,0%,0%);stroke-opacity:1;stroke-miterlimit:10;" d="M 226.774803 -0.00107452 L 226.774803 14.174281 M 226.774803 28.345731 L 226.774803 42.521087 M 226.774803 56.692537 L 226.774803 70.867893 M 226.774803 85.039343 L 226.774803 99.214699 " transform="matrix(1.00002,0,0,-1.00003,2.095662,101.01455)"/>
<path style="fill:none;stroke-width:0.3985;stroke-linecap:butt;stroke-linejoin:miter;stroke:rgb(0%,0%,0%);stroke-opacity:1;stroke-miterlimit:10;" d="M 283.468981 -0.00107452 L 283.468981 14.174281 M 283.468981 28.345731 L 283.468981 42.521087 M 283.468981 56.692537 L 283.468981 70.867893 M 283.468981 85.039343 L 283.468981 99.214699 " transform="matrix(1.00002,0,0,-1.00003,2.095662,101.01455)"/>
<path style="fill:none;stroke-width:0.3985;stroke-linecap:butt;stroke-linejoin:miter;stroke:rgb(0%,0%,0%);stroke-opacity:1;stroke-miterlimit:10;" d="M 28.345177 -7.086799 L 28.345177 7.088557 M 28.345177 21.260006 L 28.345177 35.435362 M 28.345177 49.606812 L 28.345177 63.782168 " transform="matrix(1.00002,0,0,-1.00003,2.095662,101.01455)"/>
<path style="fill:none;stroke-width:0.3985;stroke-linecap:butt;stroke-linejoin:miter;stroke:rgb(0%,0%,0%);stroke-opacity:1;stroke-miterlimit:10;" d="M 85.039356 -7.086799 L 85.039356 7.088557 M 85.039356 21.260006 L 85.039356 35.435362 M 85.039356 49.606812 L 85.039356 63.782168 " transform="matrix(1.00002,0,0,-1.00003,2.095662,101.01455)"/>
<path style="fill:none;stroke-width:0.3985;stroke-linecap:butt;stroke-linejoin:miter;stroke:rgb(0%,0%,0%);stroke-opacity:1;stroke-miterlimit:10;" d="M 141.733535 -7.086799 L 141.733535 7.088557 M 141.733535 21.260006 L 141.733535 35.435362 M 141.733535 49.606812 L 141.733535 63.782168 " transform="matrix(1.00002,0,0,-1.00003,2.095662,101.01455)"/>
<path style="fill:none;stroke-width:0.3985;stroke-linecap:butt;stroke-linejoin:miter;stroke:rgb(0%,0%,0%);stroke-opacity:1;stroke-miterlimit:10;" d="M 198.427713 -7.086799 L 198.427713 7.088557 M 198.427713 21.260006 L 198.427713 35.435362 M 198.427713 49.606812 L 198.427713 63.782168 " transform="matrix(1.00002,0,0,-1.00003,2.095662,101.01455)"/>
<path style="fill:none;stroke-width:0.3985;stroke-linecap:butt;stroke-linejoin:miter;stroke:rgb(0%,0%,0%);stroke-opacity:1;stroke-miterlimit:10;" d="M 255.121892 -7.086799 L 255.121892 7.088557 M 255.121892 21.260006 L 255.121892 35.435362 M 255.121892 49.606812 L 255.121892 63.782168 " transform="matrix(1.00002,0,0,-1.00003,2.095662,101.01455)"/>
<path style="fill:none;stroke-width:0.3985;stroke-linecap:butt;stroke-linejoin:miter;stroke:rgb(0%,0%,0%);stroke-opacity:1;stroke-miterlimit:10;" d="M 311.816071 -7.086799 L 311.816071 7.088557 M 311.816071 21.260006 L 311.816071 35.435362 M 311.816071 49.606812 L 311.816071 63.782168 " transform="matrix(1.00002,0,0,-1.00003,2.095662,101.01455)"/>
</g>
</svg>
