<?xml version="1.0" encoding="utf-8" standalone="no"?>
<!DOCTYPE svg PUBLIC "-//W3C//DTD SVG 1.1//EN"
  "http://www.w3.org/Graphics/SVG/1.1/DTD/svg11.dtd">
<!-- Created with matplotlib (http://matplotlib.org/) -->
<svg height="420pt" version="1.1" viewBox="0 0 347 420" width="347pt" xmlns="http://www.w3.org/2000/svg" xmlns:xlink="http://www.w3.org/1999/xlink">
 <defs>
  <style type="text/css">
*{stroke-linecap:butt;stroke-linejoin:round;}
  </style>
 </defs>
 <g id="figure_1">
  <g id="patch_1">
   <path d="
M7.10543e-15 420.801
L347.783 420.801
L347.783 0
L7.10543e-15 0
z
" style="fill:#ffffff;"/>
  </g>
  <g id="axes_1">
   <g id="patch_2">
    <path d="
M7.2 413.601
L322.143 413.601
L322.143 32.6206
L7.2 32.6206
z
" style="fill:#ffffff;"/>
   </g>
   <g id="line2d_1">
    <path clip-path="url(#pa36c822140)" d="
M13.2566 288.672
L15.6368 258.897
L18.0852 231.04
L20.4594 206.564
L22.7449 185.233
L24.9955 166.244
L27.2069 149.43
L29.3556 134.746
L31.4673 121.814
L33.5142 110.619
L35.4995 100.953
L37.3784 92.8271
L39.1922 85.8755
L41.0534 79.6055
L42.8313 74.3886
L44.5471 70.0314
L46.1337 66.5637
L47.6653 63.7019
L49.2579 61.2063
L50.759 59.2795
L52.1259 57.8663
L53.4395 56.7998
L54.7564 56.0041
L56.0275 55.4836
L57.3632 55.186
L58.5964 55.1272
L59.9982 55.2994
L61.3707 55.7013
L62.8796 56.3944
L64.4668 57.3898
L66.0718 58.6556
L67.8825 60.3735
L69.8669 62.5802
L72.0196 65.3215
L74.5172 68.9053
L77.2413 73.2446
L80.3405 78.6425
L83.7537 85.0486
L87.7986 93.1168
L92.8515 103.682
L114.955 150.535
L120.429 161.308
L125.674 171.125
L130.518 179.727
L135.637 188.343
L140.633 196.309
L145.89 204.269
L151.529 212.412
L158.914 222.64
L178.854 249.938
L184.702 258.46
L189.85 266.346
L194.769 274.28
L199.44 282.214
L203.975 290.307
L208.879 299.497
L214.285 310.131
L220.119 322.124
L227.696 338.264
L240.174 364.934
L244.91 374.502
L248.826 381.91
L252.082 387.596
L254.933 392.131
L257.513 395.807
L259.774 398.645
L261.723 400.767
L263.572 402.474
L265.231 403.729
L266.844 404.678
L268.293 405.287
L269.652 405.634
L270.924 405.751
L272.223 405.653
L273.528 405.32
L274.677 404.824
L276.03 403.984
L277.327 402.906
L278.695 401.466
L280.08 399.675
L281.476 397.516
L282.981 394.768
L284.542 391.434
L286.123 387.531
L287.679 383.145
L289.388 377.672
L291.163 371.227
L293.017 363.615
L294.887 354.986
L296.8 345.108
L298.72 334.064
L300.767 320.985
L302.837 306.307
L305.013 289.218
L307.208 270.164
L309.4 249.201
L311.726 224.723
L314.068 197.628
L316.087 172.202
L316.087 172.202" style="fill:none;stroke:#000000;stroke-linecap:square;stroke-width:2.0;"/>
   </g>
   <g id="line2d_2">
    <path clip-path="url(#pa36c822140)" d="
M7.2 394.063
L322.143 394.063" style="fill:none;stroke:#000000;stroke-dasharray:1.000000,3.000000;stroke-dashoffset:0.0;stroke-width:0.5;"/>
   </g>
   <g id="line2d_3">
    <path clip-path="url(#pa36c822140)" d="
M7.2 369.641
L322.143 369.641" style="fill:none;stroke:#000000;stroke-dasharray:1.000000,3.000000;stroke-dashoffset:0.0;stroke-width:0.5;"/>
   </g>
   <g id="line2d_4">
    <path clip-path="url(#pa36c822140)" d="
M7.2 345.22
L322.143 345.22" style="fill:none;stroke:#000000;stroke-dasharray:1.000000,3.000000;stroke-dashoffset:0.0;stroke-width:0.5;"/>
   </g>
   <g id="line2d_5">
    <path clip-path="url(#pa36c822140)" d="
M7.2 320.798
L322.143 320.798" style="fill:none;stroke:#000000;stroke-dasharray:1.000000,3.000000;stroke-dashoffset:0.0;stroke-width:0.5;"/>
   </g>
   <g id="line2d_6">
    <path clip-path="url(#pa36c822140)" d="
M7.2 296.376
L322.143 296.376" style="fill:none;stroke:#000000;stroke-dasharray:1.000000,3.000000;stroke-dashoffset:0.0;stroke-width:0.5;"/>
   </g>
   <g id="line2d_7">
    <path clip-path="url(#pa36c822140)" d="
M7.2 271.954
L322.143 271.954" style="fill:none;stroke:#000000;stroke-dasharray:1.000000,3.000000;stroke-dashoffset:0.0;stroke-width:0.5;"/>
   </g>
   <g id="line2d_8">
    <path clip-path="url(#pa36c822140)" d="
M7.2 247.532
L322.143 247.532" style="fill:none;stroke:#000000;stroke-dasharray:1.000000,3.000000;stroke-dashoffset:0.0;stroke-width:0.5;"/>
   </g>
   <g id="line2d_9">
    <path clip-path="url(#pa36c822140)" d="
M7.2 223.111
L322.143 223.111" style="fill:none;stroke:#000000;stroke-dasharray:1.000000,3.000000;stroke-dashoffset:0.0;stroke-width:0.5;"/>
   </g>
   <g id="line2d_10">
    <path clip-path="url(#pa36c822140)" d="
M7.2 198.689
L322.143 198.689" style="fill:none;stroke:#000000;stroke-dasharray:1.000000,3.000000;stroke-dashoffset:0.0;stroke-width:0.5;"/>
   </g>
   <g id="line2d_11">
    <path clip-path="url(#pa36c822140)" d="
M7.2 174.267
L322.143 174.267" style="fill:none;stroke:#000000;stroke-dasharray:1.000000,3.000000;stroke-dashoffset:0.0;stroke-width:0.5;"/>
   </g>
   <g id="line2d_12">
    <path clip-path="url(#pa36c822140)" d="
M7.2 149.845
L322.143 149.845" style="fill:none;stroke:#000000;stroke-dasharray:1.000000,3.000000;stroke-dashoffset:0.0;stroke-width:0.5;"/>
   </g>
   <g id="line2d_13">
    <path clip-path="url(#pa36c822140)" d="
M7.2 125.423
L322.143 125.423" style="fill:none;stroke:#000000;stroke-dasharray:1.000000,3.000000;stroke-dashoffset:0.0;stroke-width:0.5;"/>
   </g>
   <g id="line2d_14">
    <path clip-path="url(#pa36c822140)" d="
M7.2 101.002
L322.143 101.002" style="fill:none;stroke:#000000;stroke-dasharray:1.000000,3.000000;stroke-dashoffset:0.0;stroke-width:0.5;"/>
   </g>
   <g id="line2d_15">
    <path clip-path="url(#pa36c822140)" d="
M7.2 76.5799
L322.143 76.5799" style="fill:none;stroke:#000000;stroke-dasharray:1.000000,3.000000;stroke-dashoffset:0.0;stroke-width:0.5;"/>
   </g>
   <g id="line2d_16">
    <path clip-path="url(#pa36c822140)" d="
M7.2 52.1581
L322.143 52.1581" style="fill:none;stroke:#000000;stroke-dasharray:1.000000,3.000000;stroke-dashoffset:0.0;stroke-width:0.5;"/>
   </g>
   <g id="line2d_17">
    <path clip-path="url(#pa36c822140)" d="
M18.141 413.601
L18.141 32.6206" style="fill:none;stroke:#000000;stroke-dasharray:1.000000,3.000000;stroke-dashoffset:0.0;stroke-width:0.5;"/>
   </g>
   <g id="line2d_18">
    <path clip-path="url(#pa36c822140)" d="
M66.9846 413.601
L66.9846 32.6206" style="fill:none;stroke:#000000;stroke-dasharray:1.000000,3.000000;stroke-dashoffset:0.0;stroke-width:0.5;"/>
   </g>
   <g id="line2d_19">
    <path clip-path="url(#pa36c822140)" d="
M115.828 413.601
L115.828 32.6206" style="fill:none;stroke:#000000;stroke-dasharray:1.000000,3.000000;stroke-dashoffset:0.0;stroke-width:0.5;"/>
   </g>
   <g id="line2d_20">
    <path clip-path="url(#pa36c822140)" d="
M164.672 413.601
L164.672 32.6206" style="fill:none;stroke:#000000;stroke-dasharray:1.000000,3.000000;stroke-dashoffset:0.0;stroke-width:0.5;"/>
   </g>
   <g id="line2d_21">
    <path clip-path="url(#pa36c822140)" d="
M213.515 413.601
L213.515 32.6206" style="fill:none;stroke:#000000;stroke-dasharray:1.000000,3.000000;stroke-dashoffset:0.0;stroke-width:0.5;"/>
   </g>
   <g id="line2d_22">
    <path clip-path="url(#pa36c822140)" d="
M262.359 413.601
L262.359 32.6206" style="fill:none;stroke:#000000;stroke-dasharray:1.000000,3.000000;stroke-dashoffset:0.0;stroke-width:0.5;"/>
   </g>
   <g id="line2d_23">
    <path clip-path="url(#pa36c822140)" d="
M311.203 413.601
L311.203 32.6206" style="fill:none;stroke:#000000;stroke-dasharray:1.000000,3.000000;stroke-dashoffset:0.0;stroke-width:0.5;"/>
   </g>
   <g id="matplotlib.axis_1">
    <g id="xtick_1">
     <g id="line2d_24">
      <defs>
       <path d="
M0 0
L0 -4" id="m93b0483c22" style="stroke:#000000;stroke-width:0.5;"/>
      </defs>
      <g>
       <use style="stroke:#000000;stroke-width:0.5;" x="18.1409641026" xlink:href="#m93b0483c22" y="223.110625"/>
      </g>
     </g>
     <g id="text_1">
      <!-- -3 -->
      <defs>
       <path d="
M40.5781 39.3125
Q47.6562 37.7969 51.625 33
Q55.6094 28.2188 55.6094 21.1875
Q55.6094 10.4062 48.1875 4.48438
Q40.7656 -1.42188 27.0938 -1.42188
Q22.5156 -1.42188 17.6562 -0.515625
Q12.7969 0.390625 7.625 2.20312
L7.625 11.7188
Q11.7188 9.32812 16.5938 8.10938
Q21.4844 6.89062 26.8125 6.89062
Q36.0781 6.89062 40.9375 10.5469
Q45.7969 14.2031 45.7969 21.1875
Q45.7969 27.6406 41.2812 31.2656
Q36.7656 34.9062 28.7188 34.9062
L20.2188 34.9062
L20.2188 43.0156
L29.1094 43.0156
Q36.375 43.0156 40.2344 45.9219
Q44.0938 48.8281 44.0938 54.2969
Q44.0938 59.9062 40.1094 62.9062
Q36.1406 65.9219 28.7188 65.9219
Q24.6562 65.9219 20.0156 65.0312
Q15.375 64.1562 9.8125 62.3125
L9.8125 71.0938
Q15.4375 72.6562 20.3438 73.4375
Q25.25 74.2188 29.5938 74.2188
Q40.8281 74.2188 47.3594 69.1094
Q53.9062 64.0156 53.9062 55.3281
Q53.9062 49.2656 50.4375 45.0938
Q46.9688 40.9219 40.5781 39.3125" id="BitstreamVeraSans-Roman-33"/>
       <path d="
M4.89062 31.3906
L31.2031 31.3906
L31.2031 23.3906
L4.89062 23.3906
z
" id="BitstreamVeraSans-Roman-2d"/>
      </defs>
      <g transform="translate(10.3292453526 240.7878125)scale(0.18 -0.18)">
       <use xlink:href="#BitstreamVeraSans-Roman-2d"/>
       <use x="36.083984375" xlink:href="#BitstreamVeraSans-Roman-33"/>
      </g>
     </g>
    </g>
    <g id="xtick_2">
     <g id="line2d_25">
      <g>
       <use style="stroke:#000000;stroke-width:0.5;" x="66.9845538462" xlink:href="#m93b0483c22" y="223.110625"/>
      </g>
     </g>
     <g id="text_2">
      <!-- -2 -->
      <defs>
       <path d="
M19.1875 8.29688
L53.6094 8.29688
L53.6094 0
L7.32812 0
L7.32812 8.29688
Q12.9375 14.1094 22.625 23.8906
Q32.3281 33.6875 34.8125 36.5312
Q39.5469 41.8438 41.4219 45.5312
Q43.3125 49.2188 43.3125 52.7812
Q43.3125 58.5938 39.2344 62.25
Q35.1562 65.9219 28.6094 65.9219
Q23.9688 65.9219 18.8125 64.3125
Q13.6719 62.7031 7.8125 59.4219
L7.8125 69.3906
Q13.7656 71.7812 18.9375 73
Q24.125 74.2188 28.4219 74.2188
Q39.75 74.2188 46.4844 68.5469
Q53.2188 62.8906 53.2188 53.4219
Q53.2188 48.9219 51.5312 44.8906
Q49.8594 40.875 45.4062 35.4062
Q44.1875 33.9844 37.6406 27.2188
Q31.1094 20.4531 19.1875 8.29688" id="BitstreamVeraSans-Roman-32"/>
      </defs>
      <g transform="translate(59.3528350962 240.7878125)scale(0.18 -0.18)">
       <use xlink:href="#BitstreamVeraSans-Roman-2d"/>
       <use x="36.083984375" xlink:href="#BitstreamVeraSans-Roman-32"/>
      </g>
     </g>
    </g>
    <g id="xtick_3">
     <g id="line2d_26">
      <g>
       <use style="stroke:#000000;stroke-width:0.5;" x="115.82814359" xlink:href="#m93b0483c22" y="223.110625"/>
      </g>
     </g>
     <g id="text_3">
      <!-- -1 -->
      <defs>
       <path d="
M12.4062 8.29688
L28.5156 8.29688
L28.5156 63.9219
L10.9844 60.4062
L10.9844 69.3906
L28.4219 72.9062
L38.2812 72.9062
L38.2812 8.29688
L54.3906 8.29688
L54.3906 0
L12.4062 0
z
" id="BitstreamVeraSans-Roman-31"/>
      </defs>
      <g transform="translate(108.12611234 240.7878125)scale(0.18 -0.18)">
       <use xlink:href="#BitstreamVeraSans-Roman-2d"/>
       <use x="36.083984375" xlink:href="#BitstreamVeraSans-Roman-31"/>
      </g>
     </g>
    </g>
    <g id="xtick_4">
     <g id="line2d_27">
      <g>
       <use style="stroke:#000000;stroke-width:0.5;" x="164.671733333" xlink:href="#m93b0483c22" y="223.110625"/>
      </g>
     </g>
    </g>
    <g id="xtick_5">
     <g id="line2d_28">
      <g>
       <use style="stroke:#000000;stroke-width:0.5;" x="213.515323077" xlink:href="#m93b0483c22" y="223.110625"/>
      </g>
     </g>
     <g id="text_4">
      <!-- 1 -->
      <g transform="translate(209.608760577 240.7878125)scale(0.18 -0.18)">
       <use xlink:href="#BitstreamVeraSans-Roman-31"/>
      </g>
     </g>
    </g>
    <g id="xtick_6">
     <g id="line2d_29">
      <g>
       <use style="stroke:#000000;stroke-width:0.5;" x="262.358912821" xlink:href="#m93b0483c22" y="223.110625"/>
      </g>
     </g>
     <g id="text_5">
      <!-- 2 -->
      <g transform="translate(258.193600321 240.7878125)scale(0.18 -0.18)">
       <use xlink:href="#BitstreamVeraSans-Roman-32"/>
      </g>
     </g>
    </g>
    <g id="xtick_7">
     <g id="line2d_30">
      <g>
       <use style="stroke:#000000;stroke-width:0.5;" x="311.202502564" xlink:href="#m93b0483c22" y="223.110625"/>
      </g>
     </g>
     <g id="text_6">
      <!-- 3 -->
      <g transform="translate(306.883908814 240.7878125)scale(0.18 -0.18)">
       <use xlink:href="#BitstreamVeraSans-Roman-33"/>
      </g>
     </g>
    </g>
    <g id="xtick_8">
     <g id="line2d_31">
      <defs>
       <path d="
M0 0
L0 -2" id="m177f7580d0" style="stroke:#000000;stroke-width:0.5;"/>
      </defs>
      <g>
       <use style="stroke:#000000;stroke-width:0.5;" x="8.37224615385" xlink:href="#m177f7580d0" y="223.110625"/>
      </g>
     </g>
    </g>
    <g id="xtick_9">
     <g id="line2d_32">
      <g>
       <use style="stroke:#000000;stroke-width:0.5;" x="27.9096820513" xlink:href="#m177f7580d0" y="223.110625"/>
      </g>
     </g>
    </g>
    <g id="xtick_10">
     <g id="line2d_33">
      <g>
       <use style="stroke:#000000;stroke-width:0.5;" x="37.6784" xlink:href="#m177f7580d0" y="223.110625"/>
      </g>
     </g>
    </g>
    <g id="xtick_11">
     <g id="line2d_34">
      <g>
       <use style="stroke:#000000;stroke-width:0.5;" x="47.4471179487" xlink:href="#m177f7580d0" y="223.110625"/>
      </g>
     </g>
    </g>
    <g id="xtick_12">
     <g id="line2d_35">
      <g>
       <use style="stroke:#000000;stroke-width:0.5;" x="57.2158358974" xlink:href="#m177f7580d0" y="223.110625"/>
      </g>
     </g>
    </g>
    <g id="xtick_13">
     <g id="line2d_36">
      <g>
       <use style="stroke:#000000;stroke-width:0.5;" x="76.7532717949" xlink:href="#m177f7580d0" y="223.110625"/>
      </g>
     </g>
    </g>
    <g id="xtick_14">
     <g id="line2d_37">
      <g>
       <use style="stroke:#000000;stroke-width:0.5;" x="86.5219897436" xlink:href="#m177f7580d0" y="223.110625"/>
      </g>
     </g>
    </g>
    <g id="xtick_15">
     <g id="line2d_38">
      <g>
       <use style="stroke:#000000;stroke-width:0.5;" x="96.2907076923" xlink:href="#m177f7580d0" y="223.110625"/>
      </g>
     </g>
    </g>
    <g id="xtick_16">
     <g id="line2d_39">
      <g>
       <use style="stroke:#000000;stroke-width:0.5;" x="106.059425641" xlink:href="#m177f7580d0" y="223.110625"/>
      </g>
     </g>
    </g>
    <g id="xtick_17">
     <g id="line2d_40">
      <g>
       <use style="stroke:#000000;stroke-width:0.5;" x="115.82814359" xlink:href="#m177f7580d0" y="223.110625"/>
      </g>
     </g>
    </g>
    <g id="xtick_18">
     <g id="line2d_41">
      <g>
       <use style="stroke:#000000;stroke-width:0.5;" x="125.596861538" xlink:href="#m177f7580d0" y="223.110625"/>
      </g>
     </g>
    </g>
    <g id="xtick_19">
     <g id="line2d_42">
      <g>
       <use style="stroke:#000000;stroke-width:0.5;" x="135.365579487" xlink:href="#m177f7580d0" y="223.110625"/>
      </g>
     </g>
    </g>
    <g id="xtick_20">
     <g id="line2d_43">
      <g>
       <use style="stroke:#000000;stroke-width:0.5;" x="145.134297436" xlink:href="#m177f7580d0" y="223.110625"/>
      </g>
     </g>
    </g>
    <g id="xtick_21">
     <g id="line2d_44">
      <g>
       <use style="stroke:#000000;stroke-width:0.5;" x="154.903015385" xlink:href="#m177f7580d0" y="223.110625"/>
      </g>
     </g>
    </g>
    <g id="xtick_22">
     <g id="line2d_45">
      <g>
       <use style="stroke:#000000;stroke-width:0.5;" x="164.671733333" xlink:href="#m177f7580d0" y="223.110625"/>
      </g>
     </g>
    </g>
    <g id="xtick_23">
     <g id="line2d_46">
      <g>
       <use style="stroke:#000000;stroke-width:0.5;" x="174.440451282" xlink:href="#m177f7580d0" y="223.110625"/>
      </g>
     </g>
    </g>
    <g id="xtick_24">
     <g id="line2d_47">
      <g>
       <use style="stroke:#000000;stroke-width:0.5;" x="184.209169231" xlink:href="#m177f7580d0" y="223.110625"/>
      </g>
     </g>
    </g>
    <g id="xtick_25">
     <g id="line2d_48">
      <g>
       <use style="stroke:#000000;stroke-width:0.5;" x="193.977887179" xlink:href="#m177f7580d0" y="223.110625"/>
      </g>
     </g>
    </g>
    <g id="xtick_26">
     <g id="line2d_49">
      <g>
       <use style="stroke:#000000;stroke-width:0.5;" x="203.746605128" xlink:href="#m177f7580d0" y="223.110625"/>
      </g>
     </g>
    </g>
    <g id="xtick_27">
     <g id="line2d_50">
      <g>
       <use style="stroke:#000000;stroke-width:0.5;" x="213.515323077" xlink:href="#m177f7580d0" y="223.110625"/>
      </g>
     </g>
    </g>
    <g id="xtick_28">
     <g id="line2d_51">
      <g>
       <use style="stroke:#000000;stroke-width:0.5;" x="223.284041026" xlink:href="#m177f7580d0" y="223.110625"/>
      </g>
     </g>
    </g>
    <g id="xtick_29">
     <g id="line2d_52">
      <g>
       <use style="stroke:#000000;stroke-width:0.5;" x="233.052758974" xlink:href="#m177f7580d0" y="223.110625"/>
      </g>
     </g>
    </g>
    <g id="xtick_30">
     <g id="line2d_53">
      <g>
       <use style="stroke:#000000;stroke-width:0.5;" x="242.821476923" xlink:href="#m177f7580d0" y="223.110625"/>
      </g>
     </g>
    </g>
    <g id="xtick_31">
     <g id="line2d_54">
      <g>
       <use style="stroke:#000000;stroke-width:0.5;" x="252.590194872" xlink:href="#m177f7580d0" y="223.110625"/>
      </g>
     </g>
    </g>
    <g id="xtick_32">
     <g id="line2d_55">
      <g>
       <use style="stroke:#000000;stroke-width:0.5;" x="262.358912821" xlink:href="#m177f7580d0" y="223.110625"/>
      </g>
     </g>
    </g>
    <g id="xtick_33">
     <g id="line2d_56">
      <g>
       <use style="stroke:#000000;stroke-width:0.5;" x="272.127630769" xlink:href="#m177f7580d0" y="223.110625"/>
      </g>
     </g>
    </g>
    <g id="xtick_34">
     <g id="line2d_57">
      <g>
       <use style="stroke:#000000;stroke-width:0.5;" x="281.896348718" xlink:href="#m177f7580d0" y="223.110625"/>
      </g>
     </g>
    </g>
    <g id="xtick_35">
     <g id="line2d_58">
      <g>
       <use style="stroke:#000000;stroke-width:0.5;" x="291.665066667" xlink:href="#m177f7580d0" y="223.110625"/>
      </g>
     </g>
    </g>
    <g id="xtick_36">
     <g id="line2d_59">
      <g>
       <use style="stroke:#000000;stroke-width:0.5;" x="301.433784615" xlink:href="#m177f7580d0" y="223.110625"/>
      </g>
     </g>
    </g>
    <g id="xtick_37">
     <g id="line2d_60">
      <g>
       <use style="stroke:#000000;stroke-width:0.5;" x="311.202502564" xlink:href="#m177f7580d0" y="223.110625"/>
      </g>
     </g>
    </g>
    <g id="text_7">
     <!-- $x$ -->
     <defs>
      <path d="
M7.8125 2.875
Q9.57812 1.51562 12.7969 1.51562
Q15.9219 1.51562 18.3125 4.51562
Q20.7031 7.51562 21.5781 11.0781
L26.125 28.8125
Q27.2031 33.6406 27.2031 35.4062
Q27.2031 37.8906 25.8125 39.75
Q24.4219 41.6094 21.9219 41.6094
Q18.75 41.6094 15.9688 39.625
Q13.1875 37.6406 11.2812 34.5938
Q9.375 31.5469 8.59375 28.4219
Q8.40625 27.7812 7.8125 27.7812
L6.59375 27.7812
Q5.8125 27.7812 5.8125 28.7188
L5.8125 29
Q6.78125 32.7188 9.125 36.25
Q11.4688 39.7969 14.8594 41.9844
Q18.2656 44.1875 22.125 44.1875
Q25.7812 44.1875 28.7344 42.2344
Q31.6875 40.2812 32.9062 36.9219
Q34.625 39.9844 37.2812 42.0781
Q39.9375 44.1875 43.1094 44.1875
Q45.2656 44.1875 47.5 43.4219
Q49.75 42.6719 51.1719 41.1094
Q52.5938 39.5469 52.5938 37.2031
Q52.5938 34.6719 50.9531 32.8281
Q49.3125 31 46.7812 31
Q45.1719 31 44.0938 32.0312
Q43.0156 33.0625 43.0156 34.625
Q43.0156 36.7188 44.4531 38.2969
Q45.9062 39.8906 47.9062 40.1875
Q46.0938 41.6094 42.9219 41.6094
Q39.7031 41.6094 37.3281 38.625
Q34.9688 35.6406 33.9844 31.9844
L29.5938 14.3125
Q28.5156 10.2969 28.5156 7.71875
Q28.5156 5.17188 29.9531 3.34375
Q31.3906 1.51562 33.7969 1.51562
Q38.4844 1.51562 42.1562 5.64062
Q45.8438 9.76562 47.0156 14.7031
Q47.2188 15.2812 47.7969 15.2812
L49.0312 15.2812
Q49.4219 15.2812 49.6562 15.0156
Q49.9062 14.75 49.9062 14.4062
Q49.9062 14.3125 49.8125 14.1094
Q48.3906 8.15625 43.8438 3.51562
Q39.3125 -1.125 33.5938 -1.125
Q29.9375 -1.125 26.9844 0.84375
Q24.0312 2.82812 22.7969 6.20312
Q21.2344 3.26562 18.4688 1.0625
Q15.7188 -1.125 12.5938 -1.125
Q10.4531 -1.125 8.17188 -0.359375
Q5.90625 0.390625 4.48438 1.95312
Q3.07812 3.51562 3.07812 5.90625
Q3.07812 8.25 4.70312 10.1719
Q6.34375 12.1094 8.79688 12.1094
Q10.4531 12.1094 11.5781 11.1094
Q12.7031 10.1094 12.7031 8.5
Q12.7031 6.39062 11.2969 4.82812
Q9.90625 3.26562 7.8125 2.875" id="Cmmi10-78"/>
     </defs>
     <g transform="translate(330.143466667 223.110625)scale(0.18 -0.18)">
      <use transform="translate(0.0 0.8125)" xlink:href="#Cmmi10-78"/>
     </g>
    </g>
   </g>
   <g id="matplotlib.axis_2">
    <g id="ytick_1">
     <g id="line2d_61">
      <defs>
       <path d="
M0 0
L4 0" id="m728421d6d4" style="stroke:#000000;stroke-width:0.5;"/>
      </defs>
      <g>
       <use style="stroke:#000000;stroke-width:0.5;" x="164.671733333" xlink:href="#m728421d6d4" y="369.641394231"/>
      </g>
     </g>
     <g id="text_8">
      <!-- -60 -->
      <defs>
       <path d="
M31.7812 66.4062
Q24.1719 66.4062 20.3281 58.9062
Q16.5 51.4219 16.5 36.375
Q16.5 21.3906 20.3281 13.8906
Q24.1719 6.39062 31.7812 6.39062
Q39.4531 6.39062 43.2812 13.8906
Q47.125 21.3906 47.125 36.375
Q47.125 51.4219 43.2812 58.9062
Q39.4531 66.4062 31.7812 66.4062
M31.7812 74.2188
Q44.0469 74.2188 50.5156 64.5156
Q56.9844 54.8281 56.9844 36.375
Q56.9844 17.9688 50.5156 8.26562
Q44.0469 -1.42188 31.7812 -1.42188
Q19.5312 -1.42188 13.0625 8.26562
Q6.59375 17.9688 6.59375 36.375
Q6.59375 54.8281 13.0625 64.5156
Q19.5312 74.2188 31.7812 74.2188" id="BitstreamVeraSans-Roman-30"/>
       <path d="
M33.0156 40.375
Q26.375 40.375 22.4844 35.8281
Q18.6094 31.2969 18.6094 23.3906
Q18.6094 15.5312 22.4844 10.9531
Q26.375 6.39062 33.0156 6.39062
Q39.6562 6.39062 43.5312 10.9531
Q47.4062 15.5312 47.4062 23.3906
Q47.4062 31.2969 43.5312 35.8281
Q39.6562 40.375 33.0156 40.375
M52.5938 71.2969
L52.5938 62.3125
Q48.875 64.0625 45.0938 64.9844
Q41.3125 65.9219 37.5938 65.9219
Q27.8281 65.9219 22.6719 59.3281
Q17.5312 52.7344 16.7969 39.4062
Q19.6719 43.6562 24.0156 45.9219
Q28.375 48.1875 33.5938 48.1875
Q44.5781 48.1875 50.9531 41.5156
Q57.3281 34.8594 57.3281 23.3906
Q57.3281 12.1562 50.6875 5.35938
Q44.0469 -1.42188 33.0156 -1.42188
Q20.3594 -1.42188 13.6719 8.26562
Q6.98438 17.9688 6.98438 36.375
Q6.98438 53.6562 15.1875 63.9375
Q23.3906 74.2188 37.2031 74.2188
Q40.9219 74.2188 44.7031 73.4844
Q48.4844 72.75 52.5938 71.2969" id="BitstreamVeraSans-Roman-36"/>
      </defs>
      <g transform="translate(133.348295833 374.608269231)scale(0.18 -0.18)">
       <use xlink:href="#BitstreamVeraSans-Roman-2d"/>
       <use x="36.083984375" xlink:href="#BitstreamVeraSans-Roman-36"/>
       <use x="99.70703125" xlink:href="#BitstreamVeraSans-Roman-30"/>
      </g>
     </g>
    </g>
    <g id="ytick_2">
     <g id="line2d_62">
      <g>
       <use style="stroke:#000000;stroke-width:0.5;" x="164.671733333" xlink:href="#m728421d6d4" y="320.797804487"/>
      </g>
     </g>
     <g id="text_9">
      <!-- -40 -->
      <defs>
       <path d="
M37.7969 64.3125
L12.8906 25.3906
L37.7969 25.3906
z

M35.2031 72.9062
L47.6094 72.9062
L47.6094 25.3906
L58.0156 25.3906
L58.0156 17.1875
L47.6094 17.1875
L47.6094 0
L37.7969 0
L37.7969 17.1875
L4.89062 17.1875
L4.89062 26.7031
z
" id="BitstreamVeraSans-Roman-34"/>
      </defs>
      <g transform="translate(133.348295833 325.764679487)scale(0.18 -0.18)">
       <use xlink:href="#BitstreamVeraSans-Roman-2d"/>
       <use x="36.083984375" xlink:href="#BitstreamVeraSans-Roman-34"/>
       <use x="99.70703125" xlink:href="#BitstreamVeraSans-Roman-30"/>
      </g>
     </g>
    </g>
    <g id="ytick_3">
     <g id="line2d_63">
      <g>
       <use style="stroke:#000000;stroke-width:0.5;" x="164.671733333" xlink:href="#m728421d6d4" y="271.954214744"/>
      </g>
     </g>
     <g id="text_10">
      <!-- -20 -->
      <g transform="translate(133.348295833 276.921089744)scale(0.18 -0.18)">
       <use xlink:href="#BitstreamVeraSans-Roman-2d"/>
       <use x="36.083984375" xlink:href="#BitstreamVeraSans-Roman-32"/>
       <use x="99.70703125" xlink:href="#BitstreamVeraSans-Roman-30"/>
      </g>
     </g>
    </g>
    <g id="ytick_4">
     <g id="line2d_64">
      <g>
       <use style="stroke:#000000;stroke-width:0.5;" x="164.671733333" xlink:href="#m728421d6d4" y="223.110625"/>
      </g>
     </g>
    </g>
    <g id="ytick_5">
     <g id="line2d_65">
      <g>
       <use style="stroke:#000000;stroke-width:0.5;" x="164.671733333" xlink:href="#m728421d6d4" y="174.267035256"/>
      </g>
     </g>
     <g id="text_11">
      <!-- 20 -->
      <g transform="translate(140.281108333 179.233910256)scale(0.18 -0.18)">
       <use xlink:href="#BitstreamVeraSans-Roman-32"/>
       <use x="63.623046875" xlink:href="#BitstreamVeraSans-Roman-30"/>
      </g>
     </g>
    </g>
    <g id="ytick_6">
     <g id="line2d_66">
      <g>
       <use style="stroke:#000000;stroke-width:0.5;" x="164.671733333" xlink:href="#m728421d6d4" y="125.423445513"/>
      </g>
     </g>
     <g id="text_12">
      <!-- 40 -->
      <g transform="translate(139.842358333 130.390320513)scale(0.18 -0.18)">
       <use xlink:href="#BitstreamVeraSans-Roman-34"/>
       <use x="63.623046875" xlink:href="#BitstreamVeraSans-Roman-30"/>
      </g>
     </g>
    </g>
    <g id="ytick_7">
     <g id="line2d_67">
      <g>
       <use style="stroke:#000000;stroke-width:0.5;" x="164.671733333" xlink:href="#m728421d6d4" y="76.5798557692"/>
      </g>
     </g>
     <g id="text_13">
      <!-- 60 -->
      <g transform="translate(140.219233333 81.5467307692)scale(0.18 -0.18)">
       <use xlink:href="#BitstreamVeraSans-Roman-36"/>
       <use x="63.623046875" xlink:href="#BitstreamVeraSans-Roman-30"/>
      </g>
     </g>
    </g>
    <g id="ytick_8">
     <g id="line2d_68">
      <defs>
       <path d="
M0 0
L2 0" id="mf0c55a9a47" style="stroke:#000000;stroke-width:0.5;"/>
      </defs>
      <g>
       <use style="stroke:#000000;stroke-width:0.5;" x="164.671733333" xlink:href="#mf0c55a9a47" y="406.274086538"/>
      </g>
     </g>
    </g>
    <g id="ytick_9">
     <g id="line2d_69">
      <g>
       <use style="stroke:#000000;stroke-width:0.5;" x="164.671733333" xlink:href="#mf0c55a9a47" y="394.063189103"/>
      </g>
     </g>
    </g>
    <g id="ytick_10">
     <g id="line2d_70">
      <g>
       <use style="stroke:#000000;stroke-width:0.5;" x="164.671733333" xlink:href="#mf0c55a9a47" y="381.852291667"/>
      </g>
     </g>
    </g>
    <g id="ytick_11">
     <g id="line2d_71">
      <g>
       <use style="stroke:#000000;stroke-width:0.5;" x="164.671733333" xlink:href="#mf0c55a9a47" y="357.430496795"/>
      </g>
     </g>
    </g>
    <g id="ytick_12">
     <g id="line2d_72">
      <g>
       <use style="stroke:#000000;stroke-width:0.5;" x="164.671733333" xlink:href="#mf0c55a9a47" y="345.219599359"/>
      </g>
     </g>
    </g>
    <g id="ytick_13">
     <g id="line2d_73">
      <g>
       <use style="stroke:#000000;stroke-width:0.5;" x="164.671733333" xlink:href="#mf0c55a9a47" y="333.008701923"/>
      </g>
     </g>
    </g>
    <g id="ytick_14">
     <g id="line2d_74">
      <g>
       <use style="stroke:#000000;stroke-width:0.5;" x="164.671733333" xlink:href="#mf0c55a9a47" y="308.586907051"/>
      </g>
     </g>
    </g>
    <g id="ytick_15">
     <g id="line2d_75">
      <g>
       <use style="stroke:#000000;stroke-width:0.5;" x="164.671733333" xlink:href="#mf0c55a9a47" y="296.376009615"/>
      </g>
     </g>
    </g>
    <g id="ytick_16">
     <g id="line2d_76">
      <g>
       <use style="stroke:#000000;stroke-width:0.5;" x="164.671733333" xlink:href="#mf0c55a9a47" y="284.165112179"/>
      </g>
     </g>
    </g>
    <g id="ytick_17">
     <g id="line2d_77">
      <g>
       <use style="stroke:#000000;stroke-width:0.5;" x="164.671733333" xlink:href="#mf0c55a9a47" y="259.743317308"/>
      </g>
     </g>
    </g>
    <g id="ytick_18">
     <g id="line2d_78">
      <g>
       <use style="stroke:#000000;stroke-width:0.5;" x="164.671733333" xlink:href="#mf0c55a9a47" y="247.532419872"/>
      </g>
     </g>
    </g>
    <g id="ytick_19">
     <g id="line2d_79">
      <g>
       <use style="stroke:#000000;stroke-width:0.5;" x="164.671733333" xlink:href="#mf0c55a9a47" y="235.321522436"/>
      </g>
     </g>
    </g>
    <g id="ytick_20">
     <g id="line2d_80">
      <g>
       <use style="stroke:#000000;stroke-width:0.5;" x="164.671733333" xlink:href="#mf0c55a9a47" y="210.899727564"/>
      </g>
     </g>
    </g>
    <g id="ytick_21">
     <g id="line2d_81">
      <g>
       <use style="stroke:#000000;stroke-width:0.5;" x="164.671733333" xlink:href="#mf0c55a9a47" y="198.688830128"/>
      </g>
     </g>
    </g>
    <g id="ytick_22">
     <g id="line2d_82">
      <g>
       <use style="stroke:#000000;stroke-width:0.5;" x="164.671733333" xlink:href="#mf0c55a9a47" y="186.477932692"/>
      </g>
     </g>
    </g>
    <g id="ytick_23">
     <g id="line2d_83">
      <g>
       <use style="stroke:#000000;stroke-width:0.5;" x="164.671733333" xlink:href="#mf0c55a9a47" y="162.056137821"/>
      </g>
     </g>
    </g>
    <g id="ytick_24">
     <g id="line2d_84">
      <g>
       <use style="stroke:#000000;stroke-width:0.5;" x="164.671733333" xlink:href="#mf0c55a9a47" y="149.845240385"/>
      </g>
     </g>
    </g>
    <g id="ytick_25">
     <g id="line2d_85">
      <g>
       <use style="stroke:#000000;stroke-width:0.5;" x="164.671733333" xlink:href="#mf0c55a9a47" y="137.634342949"/>
      </g>
     </g>
    </g>
    <g id="ytick_26">
     <g id="line2d_86">
      <g>
       <use style="stroke:#000000;stroke-width:0.5;" x="164.671733333" xlink:href="#mf0c55a9a47" y="113.212548077"/>
      </g>
     </g>
    </g>
    <g id="ytick_27">
     <g id="line2d_87">
      <g>
       <use style="stroke:#000000;stroke-width:0.5;" x="164.671733333" xlink:href="#mf0c55a9a47" y="101.001650641"/>
      </g>
     </g>
    </g>
    <g id="ytick_28">
     <g id="line2d_88">
      <g>
       <use style="stroke:#000000;stroke-width:0.5;" x="164.671733333" xlink:href="#mf0c55a9a47" y="88.7907532051"/>
      </g>
     </g>
    </g>
    <g id="ytick_29">
     <g id="line2d_89">
      <g>
       <use style="stroke:#000000;stroke-width:0.5;" x="164.671733333" xlink:href="#mf0c55a9a47" y="64.3689583333"/>
      </g>
     </g>
    </g>
    <g id="ytick_30">
     <g id="line2d_90">
      <g>
       <use style="stroke:#000000;stroke-width:0.5;" x="164.671733333" xlink:href="#mf0c55a9a47" y="52.1580608974"/>
      </g>
     </g>
    </g>
    <g id="text_14">
     <!-- $y$ -->
     <defs>
      <path d="
M8.40625 -14.3125
Q10.5 -17.9219 15.7188 -17.9219
Q20.4531 -17.9219 23.9219 -14.5938
Q27.3906 -11.2812 29.5156 -6.5625
Q31.6406 -1.85938 32.8125 3.07812
Q28.375 -1.125 23.1875 -1.125
Q19.2344 -1.125 16.4531 0.234375
Q13.6719 1.60938 12.125 4.3125
Q10.5938 7.03125 10.5938 10.8906
Q10.5938 14.1562 11.4688 17.5938
Q12.3594 21.0469 13.9375 25.2656
Q15.5312 29.5 16.7031 32.625
Q18.0156 36.2812 18.0156 38.625
Q18.0156 41.6094 15.8281 41.6094
Q11.8594 41.6094 9.29688 37.5312
Q6.73438 33.4531 5.51562 28.4219
Q5.32812 27.7812 4.6875 27.7812
L3.51562 27.7812
Q2.6875 27.7812 2.6875 28.7188
L2.6875 29
Q4.29688 34.9688 7.60938 39.5781
Q10.9375 44.1875 16.0156 44.1875
Q19.5781 44.1875 22.0469 41.8438
Q24.5156 39.5 24.5156 35.8906
Q24.5156 34.0312 23.6875 31.9844
Q23.25 30.7656 21.6875 26.6562
Q20.125 22.5625 19.2812 19.875
Q18.4531 17.1875 17.9219 14.5938
Q17.3906 12.0156 17.3906 9.42188
Q17.3906 6.10938 18.7969 3.8125
Q20.2188 1.51562 23.2969 1.51562
Q29.5 1.51562 34.4219 9.07812
L42 39.8906
Q42.3281 41.2188 43.5469 42.1562
Q44.7812 43.1094 46.1875 43.1094
Q47.4062 43.1094 48.3125 42.3281
Q49.2188 41.5469 49.2188 40.2812
Q49.2188 39.7031 49.125 39.5
L39.2031 -0.296875
Q37.8906 -5.42188 34.375 -10.1094
Q30.8594 -14.7969 25.9062 -17.6562
Q20.9531 -20.5156 15.5781 -20.5156
Q12.9844 -20.5156 10.4375 -19.5
Q7.90625 -18.5 6.34375 -16.5
Q4.78125 -14.5 4.78125 -11.8125
Q4.78125 -9.07812 6.39062 -7.07812
Q8.01562 -5.07812 10.6875 -5.07812
Q12.3125 -5.07812 13.4062 -6.07812
Q14.5 -7.07812 14.5 -8.6875
Q14.5 -10.9844 12.7812 -12.6875
Q11.0781 -14.4062 8.79688 -14.4062
Q8.6875 -14.3594 8.59375 -14.3281
Q8.5 -14.3125 8.40625 -14.3125" id="Cmmi10-79"/>
     </defs>
     <g transform="translate(160.171733333 20.840625)scale(0.18 -0.18)">
      <use transform="translate(0.0 0.8125)" xlink:href="#Cmmi10-79"/>
     </g>
    </g>
   </g>
   <g id="patch_3">
    <path d="
M7.2 223.111
L322.143 223.111" style="fill:none;stroke:#000000;stroke-width:0.8;"/>
   </g>
   <g id="patch_4">
    <path d="
M164.672 413.601
L164.672 32.6206" style="fill:none;stroke:#000000;stroke-width:0.8;"/>
   </g>
   <g id="text_15">
    <!-- $f(x)= x^5-6x^3-27x-3$ -->
    <defs>
     <path d="
M9.51562 7.71875
Q11.8594 4.29688 15.8125 2.64062
Q19.7812 0.984375 24.3125 0.984375
Q30.125 0.984375 32.5625 5.9375
Q35.0156 10.8906 35.0156 17.1875
Q35.0156 20.0156 34.5 22.8438
Q33.9844 25.6875 32.7656 28.125
Q31.5469 30.5625 29.4219 32.0312
Q27.2969 33.5 24.2188 33.5
L17.5781 33.5
Q16.7031 33.5 16.7031 34.4219
L16.7031 35.2969
Q16.7031 36.0781 17.5781 36.0781
L23.0938 36.5312
Q26.6094 36.5312 28.9219 39.1562
Q31.25 41.7969 32.3281 45.5781
Q33.4062 49.3594 33.4062 52.7812
Q33.4062 57.5625 31.1562 60.6406
Q28.9062 63.7188 24.3125 63.7188
Q20.5156 63.7188 17.0469 62.2812
Q13.5781 60.8438 11.5312 57.9062
Q11.7188 57.9531 11.8594 57.9844
Q12.0156 58.0156 12.2031 58.0156
Q14.4531 58.0156 15.9688 56.4531
Q17.4844 54.8906 17.4844 52.6875
Q17.4844 50.5312 15.9688 48.9688
Q14.4531 47.4062 12.2031 47.4062
Q10.0156 47.4062 8.45312 48.9688
Q6.89062 50.5312 6.89062 52.6875
Q6.89062 56.9844 9.46875 60.1562
Q12.0625 63.3281 16.1406 64.9688
Q20.2188 66.6094 24.3125 66.6094
Q27.3438 66.6094 30.7031 65.7031
Q34.0781 64.7969 36.8125 63.1094
Q39.5469 61.4219 41.2812 58.7812
Q43.0156 56.1562 43.0156 52.7812
Q43.0156 48.5781 41.1406 45.0156
Q39.2656 41.4531 35.9844 38.8594
Q32.7188 36.2812 28.8125 35.0156
Q33.1562 34.1875 37.0625 31.7344
Q40.9688 29.2969 43.3281 25.4844
Q45.7031 21.6875 45.7031 17.2812
Q45.7031 11.7656 42.6719 7.29688
Q39.6562 2.82812 34.7188 0.3125
Q29.7812 -2.20312 24.3125 -2.20312
Q19.625 -2.20312 14.9062 -0.40625
Q10.2031 1.375 7.20312 4.9375
Q4.20312 8.5 4.20312 13.4844
Q4.20312 15.9688 5.85938 17.625
Q7.51562 19.2812 10.0156 19.2812
Q11.625 19.2812 12.9688 18.5312
Q14.3125 17.7812 15.0625 16.4062
Q15.8281 15.0469 15.8281 13.4844
Q15.8281 11.0312 14.1094 9.375
Q12.4062 7.71875 10.0156 7.71875
z
" id="Cmr10-33"/>
     <path d="
M4.98438 0
L4.98438 2.6875
Q4.98438 2.9375 5.17188 3.21875
L20.7031 20.4062
Q24.2188 24.2188 26.4062 26.7969
Q28.6094 29.3906 30.75 32.7656
Q32.9062 36.1406 34.1562 39.625
Q35.4062 43.1094 35.4062 47.0156
Q35.4062 51.125 33.8906 54.8594
Q32.375 58.5938 29.375 60.8438
Q26.375 63.0938 22.125 63.0938
Q17.7812 63.0938 14.3125 60.4688
Q10.8438 57.8594 9.42188 53.7188
Q9.8125 53.8125 10.5 53.8125
Q12.75 53.8125 14.3281 52.2969
Q15.9219 50.7812 15.9219 48.3906
Q15.9219 46.0938 14.3281 44.5
Q12.75 42.9219 10.5 42.9219
Q8.15625 42.9219 6.5625 44.5469
Q4.98438 46.1875 4.98438 48.3906
Q4.98438 52.1562 6.39062 55.4375
Q7.8125 58.7344 10.4688 61.2969
Q13.1406 63.875 16.4844 65.2344
Q19.8281 66.6094 23.5781 66.6094
Q29.2969 66.6094 34.2188 64.1875
Q39.1562 61.7656 42.0312 57.3438
Q44.9219 52.9375 44.9219 47.0156
Q44.9219 42.6719 43.0156 38.7656
Q41.1094 34.8594 38.125 31.6562
Q35.1562 28.4688 30.5156 24.4062
Q25.875 20.3594 24.4219 19
L13.0938 8.10938
L22.7031 8.10938
Q29.7812 8.10938 34.5469 8.21875
Q39.3125 8.34375 39.5938 8.59375
Q40.7656 9.85938 42 17.8281
L44.9219 17.8281
L42.0938 0
z
" id="Cmr10-32"/>
     <path d="
M10.2031 23
Q9.375 23 8.82812 23.625
Q8.29688 24.2656 8.29688 25
Q8.29688 25.7344 8.82812 26.3594
Q9.375 27 10.2031 27
L67.5781 27
Q68.3594 27 68.875 26.3594
Q69.3906 25.7344 69.3906 25
Q69.3906 24.2656 68.875 23.625
Q68.3594 23 67.5781 23
z
" id="Cmsy10-a1"/>
     <path d="
M17.3906 2.59375
Q17.3906 8.15625 18.3594 13.4688
Q19.3438 18.7969 21.2188 24
Q23.0938 29.2031 25.75 34.2031
Q28.4219 39.2031 31.5938 43.6094
L40.7188 56.2969
L29.2969 56.2969
Q11.5312 56.2969 10.9844 55.8125
Q9.67188 54.2031 8.5 46.5781
L5.60938 46.5781
L8.89062 67.5781
L11.8125 67.5781
L11.8125 67.2812
Q11.8125 65.4844 17.9219 64.9375
Q24.0312 64.4062 29.8906 64.4062
L48.4844 64.4062
L48.4844 61.8125
Q48.4844 61.7188 48.4531 61.6719
Q48.4375 61.625 48.3906 61.5312
L34.625 42.1875
Q29.5469 34.6719 28.2656 25.4844
Q27 16.3125 27 2.59375
Q27 0.640625 25.5781 -0.78125
Q24.1719 -2.20312 22.2188 -2.20312
Q20.2188 -2.20312 18.7969 -0.78125
Q17.3906 0.640625 17.3906 2.59375" id="Cmr10-37"/>
     <path d="
M25 -2.20312
Q18.7969 -2.20312 14.6406 1.09375
Q10.5 4.39062 8.21875 9.64062
Q5.95312 14.8906 5.07812 20.6562
Q4.20312 26.4219 4.20312 32.3281
Q4.20312 40.2344 7.28125 48.1875
Q10.3594 56.1562 16.3281 61.375
Q22.3125 66.6094 30.5156 66.6094
Q33.9375 66.6094 36.8906 65.3125
Q39.8438 64.0156 41.5312 61.5
Q43.2188 58.9844 43.2188 55.4219
Q43.2188 53.375 41.8281 51.9844
Q40.4375 50.5938 38.375 50.5938
Q36.4219 50.5938 35 52
Q33.5938 53.4219 33.5938 55.4219
Q33.5938 57.375 35 58.7812
Q36.4219 60.2031 38.375 60.2031
L38.9219 60.2031
Q37.6406 62.0156 35.3281 62.8594
Q33.0156 63.7188 30.5156 63.7188
Q27.4844 63.7188 24.9219 62.3906
Q22.3594 61.0781 20.3125 58.8281
Q18.2656 56.5938 16.8906 53.875
Q15.5312 51.1719 14.7656 47.7031
Q14.0156 44.2344 13.8125 41.2031
Q13.625 38.1875 13.625 33.5938
Q15.375 37.7031 18.5938 40.3125
Q21.8281 42.9219 25.875 42.9219
Q30.3281 42.9219 33.9844 41.1094
Q37.6406 39.3125 40.2812 36.1094
Q42.9219 32.9062 44.3125 28.7969
Q45.7031 24.7031 45.7031 20.5156
Q45.7031 14.6562 43.0938 9.34375
Q40.4844 4.04688 35.7344 0.921875
Q31 -2.20312 25 -2.20312
M25 0.984375
Q28.8594 0.984375 31.2031 2.73438
Q33.5469 4.5 34.6406 7.39062
Q35.75 10.2969 36.0156 13.25
Q36.2812 16.2188 36.2812 20.5156
Q36.2812 26.1719 35.7344 30.1719
Q35.2031 34.1875 32.8125 37.2344
Q30.4219 40.2812 25.4844 40.2812
Q21.4375 40.2812 18.8281 37.5469
Q16.2188 34.8125 15.0156 30.6406
Q13.8125 26.4688 13.8125 22.6094
Q13.8125 21.2969 13.9219 20.6094
Q13.9219 20.4531 13.8906 20.3594
Q13.875 20.2656 13.8125 20.125
Q13.8125 15.8281 14.6875 11.4219
Q15.5781 7.03125 18.0625 4
Q20.5625 0.984375 25 0.984375" id="Cmr10-36"/>
     <path d="
M8.6875 11.375
Q9.71875 8.45312 11.8438 6.04688
Q13.9688 3.65625 16.875 2.3125
Q19.7812 0.984375 22.9062 0.984375
Q30.125 0.984375 32.8594 6.59375
Q35.5938 12.2031 35.5938 20.2188
Q35.5938 23.6875 35.4688 26.0469
Q35.3594 28.4219 34.8125 30.6094
Q33.8906 34.125 31.5625 36.7656
Q29.25 39.4062 25.875 39.4062
Q22.5156 39.4062 20.0938 38.375
Q17.6719 37.3594 16.1562 35.9844
Q14.6562 34.625 13.4844 33.1094
Q12.3125 31.5938 12.0156 31.5
L10.8906 31.5
Q10.6406 31.5 10.2656 31.8125
Q9.90625 32.125 9.90625 32.4219
L9.90625 65.8281
Q9.90625 66.0625 10.2188 66.3281
Q10.5469 66.6094 10.8906 66.6094
L11.1875 66.6094
Q17.9219 63.375 25.4844 63.375
Q32.9062 63.375 39.7969 66.6094
L40.0938 66.6094
Q40.4375 66.6094 40.7188 66.3594
Q41.0156 66.1094 41.0156 65.8281
L41.0156 64.8906
Q41.0156 64.4062 40.8281 64.4062
Q37.4062 59.8594 32.25 57.3125
Q27.0938 54.7812 21.5781 54.7812
Q17.5781 54.7812 13.375 55.9062
L13.375 37.0156
Q16.7031 39.7031 19.3125 40.8438
Q21.9219 42 25.9844 42
Q31.5 42 35.8594 38.8125
Q40.2344 35.6406 42.5781 30.5312
Q44.9219 25.4375 44.9219 20.125
Q44.9219 14.1094 41.9688 8.98438
Q39.0156 3.85938 33.9375 0.828125
Q28.8594 -2.20312 22.9062 -2.20312
Q17.9688 -2.20312 13.8438 0.328125
Q9.71875 2.875 7.34375 7.17188
Q4.98438 11.4688 4.98438 16.3125
Q4.98438 18.5625 6.4375 19.9688
Q7.90625 21.3906 10.1094 21.3906
Q12.3125 21.3906 13.7969 19.9375
Q15.2812 18.5 15.2812 16.3125
Q15.2812 14.1562 13.7969 12.6719
Q12.3125 11.1875 10.1094 11.1875
Q9.76562 11.1875 9.32812 11.25
Q8.89062 11.3281 8.6875 11.375" id="Cmr10-35"/>
     <path d="
M31 -24.8125
Q25.4375 -20.4062 21.4062 -14.7188
Q17.3906 -9.03125 14.8125 -2.57812
Q12.25 3.85938 10.9844 10.8906
Q9.71875 17.9219 9.71875 25
Q9.71875 32.1719 10.9844 39.2031
Q12.25 46.2344 14.8594 52.7344
Q17.4844 59.2344 21.5312 64.8906
Q25.5938 70.5625 31 74.8125
Q31 75 31.5 75
L32.4219 75
Q32.7188 75 32.9531 74.7344
Q33.2031 74.4688 33.2031 74.125
Q33.2031 73.6875 33.0156 73.4844
Q28.125 68.7031 24.875 63.2344
Q21.625 57.7656 19.6406 51.5781
Q17.6719 45.4062 16.7969 38.7812
Q15.9219 32.1719 15.9219 25
Q15.9219 -6.78125 32.9062 -23.2969
Q33.2031 -23.5781 33.2031 -24.125
Q33.2031 -24.3594 32.9375 -24.6719
Q32.6719 -25 32.4219 -25
L31.5 -25
Q31 -25 31 -24.8125" id="Cmr10-28"/>
     <path d="
M6.5 -25
Q5.60938 -25 5.60938 -24.125
Q5.60938 -23.6875 5.8125 -23.4844
Q22.9062 -6.78125 22.9062 25
Q22.9062 56.7812 6 73.2969
Q5.60938 73.5312 5.60938 74.125
Q5.60938 74.4688 5.875 74.7344
Q6.15625 75 6.5 75
L7.42188 75
Q7.71875 75 7.90625 74.8125
Q15.0938 69.1406 19.875 61.0312
Q24.6562 52.9375 26.875 43.75
Q29.1094 34.5781 29.1094 25
Q29.1094 17.9219 27.9062 11.0625
Q26.7031 4.20312 24.0938 -2.45312
Q21.4844 -9.125 17.4844 -14.7656
Q13.4844 -20.4062 7.90625 -24.8125
Q7.71875 -25 7.42188 -25
z
" id="Cmr10-29"/>
     <path d="
M9.71875 -16.5
Q11.5781 -17.9219 14.2031 -17.9219
Q17.7812 -17.9219 20.0156 -10.0156
Q20.9531 -6.20312 25.0938 15.0938
L29.6875 39.5938
L21.0938 39.5938
Q20.125 39.5938 20.125 40.9219
Q20.5156 43.1094 21.3906 43.1094
L30.3281 43.1094
L31.5 49.6094
Q32.0781 52.6406 32.5625 54.8125
Q33.0625 56.9844 33.625 58.8281
Q34.1875 60.6875 35.2969 62.9844
Q37.0156 66.2656 39.9219 68.3906
Q42.8281 70.5156 46.1875 70.5156
Q48.3906 70.5156 50.4688 69.7031
Q52.5469 68.8906 53.8594 67.2812
Q55.1719 65.6719 55.1719 63.4844
Q55.1719 60.9375 53.4844 59.0469
Q51.8125 57.1719 49.4219 57.1719
Q47.7969 57.1719 46.6562 58.1719
Q45.5156 59.1875 45.5156 60.7969
Q45.5156 62.9844 47 64.625
Q48.4844 66.2656 50.6875 66.5
Q48.8281 67.9219 46.0938 67.9219
Q44.5781 67.9219 43.2344 66.5
Q41.8906 65.0938 41.5 63.4844
Q40.875 60.9375 38.7188 49.7031
L37.5 43.1094
L47.7969 43.1094
Q48.7812 43.1094 48.7812 41.7969
Q48.7344 41.5469 48.5781 40.9375
Q48.4375 40.3281 48.1719 39.9531
Q47.9062 39.5938 47.5156 39.5938
L36.8125 39.5938
L32.1719 15.1875
Q31.2969 9.85938 30.1406 4.35938
Q29 -1.125 26.9219 -6.90625
Q24.8594 -12.7031 21.625 -16.6094
Q18.4062 -20.5156 14.0156 -20.5156
Q10.6406 -20.5156 7.98438 -18.5781
Q5.32812 -16.6562 5.32812 -13.4844
Q5.32812 -10.9375 6.95312 -9.04688
Q8.59375 -7.17188 11.0781 -7.17188
Q12.75 -7.17188 13.8594 -8.17188
Q14.9844 -9.1875 14.9844 -10.7969
Q14.9844 -12.9375 13.3906 -14.7188
Q11.8125 -16.5 9.71875 -16.5" id="Cmmi10-66"/>
     <path d="
M7.51562 13.2812
Q6.6875 13.2812 6.14062 13.9062
Q5.60938 14.5469 5.60938 15.2812
Q5.60938 16.1094 6.14062 16.6875
Q6.6875 17.2812 7.51562 17.2812
L70.3125 17.2812
Q71.0469 17.2812 71.5781 16.6875
Q72.125 16.1094 72.125 15.2812
Q72.125 14.5469 71.5781 13.9062
Q71.0469 13.2812 70.3125 13.2812
z

M7.51562 32.7188
Q6.6875 32.7188 6.14062 33.2969
Q5.60938 33.8906 5.60938 34.7188
Q5.60938 35.4531 6.14062 36.0781
Q6.6875 36.7188 7.51562 36.7188
L70.3125 36.7188
Q71.0469 36.7188 71.5781 36.0781
Q72.125 35.4531 72.125 34.7188
Q72.125 33.8906 71.5781 33.2969
Q71.0469 32.7188 70.3125 32.7188
z
" id="Cmr10-3d"/>
    </defs>
    <g transform="translate(175.554553846 118.412548077)scale(0.16 -0.16)">
     <use transform="translate(0.0 0.8578125)" xlink:href="#Cmmi10-66"/>
     <use transform="translate(48.876953125 0.8578125)" xlink:href="#Cmr10-28"/>
     <use transform="translate(87.6953125 0.8578125)" xlink:href="#Cmmi10-78"/>
     <use transform="translate(144.775390625 0.8578125)" xlink:href="#Cmr10-29"/>
     <use transform="translate(201.15234375 0.8578125)" xlink:href="#Cmr10-3d"/>
     <use transform="translate(285.2109375 0.8578125)" xlink:href="#Cmmi10-78"/>
     <use transform="translate(342.291015625 43.3734375)scale(0.7)" xlink:href="#Cmr10-35"/>
     <use transform="translate(409.297265625 0.8578125)" xlink:href="#Cmsy10-a1"/>
     <use transform="translate(486.9828125 0.8578125)" xlink:href="#Cmr10-36"/>
     <use transform="translate(536.9828125 0.8578125)" xlink:href="#Cmmi10-78"/>
     <use transform="translate(594.062890625 43.3734375)scale(0.7)" xlink:href="#Cmr10-33"/>
     <use transform="translate(661.069140625 0.8578125)" xlink:href="#Cmsy10-a1"/>
     <use transform="translate(738.7546875 0.8578125)" xlink:href="#Cmr10-32"/>
     <use transform="translate(788.7546875 0.8578125)" xlink:href="#Cmr10-37"/>
     <use transform="translate(838.7546875 0.8578125)" xlink:href="#Cmmi10-78"/>
     <use transform="translate(895.834765625 0.8578125)" xlink:href="#Cmsy10-a1"/>
     <use transform="translate(973.5203125 0.8578125)" xlink:href="#Cmr10-33"/>
    </g>
   </g>
  </g>
 </g>
 <defs>
  <clipPath id="pa36c822140">
   <rect height="380.98" width="314.943466667" x="7.2" y="32.620625"/>
  </clipPath>
 </defs>
</svg>
