<?xml version="1.0" encoding="UTF-8"?>
<svg xmlns="http://www.w3.org/2000/svg" xmlns:xlink="http://www.w3.org/1999/xlink" width="316.19pt" height="124.86pt" viewBox="0 0 316.19 124.86" version="1.1">
<defs>
<clipPath id="clip1">
  <path d="M 0 95 L 292 95 L 292 124.859375 L 0 124.859375 Z M 0 95 "/>
</clipPath>
<clipPath id="clip2">
  <path d="M 0 81 L 316.191406 81 L 316.191406 115 L 0 115 Z M 0 81 "/>
</clipPath>
<clipPath id="clip3">
  <path d="M 0 67 L 316.191406 67 L 316.191406 100 L 0 100 Z M 0 67 "/>
</clipPath>
<clipPath id="clip4">
  <path d="M 0 53 L 316.191406 53 L 316.191406 86 L 0 86 Z M 0 53 "/>
</clipPath>
<clipPath id="clip5">
  <path d="M 0 39 L 316.191406 39 L 316.191406 72 L 0 72 Z M 0 39 "/>
</clipPath>
<clipPath id="clip6">
  <path d="M 0 24 L 316.191406 24 L 316.191406 58 L 0 58 Z M 0 24 "/>
</clipPath>
<clipPath id="clip7">
  <path d="M 0 10 L 316.191406 10 L 316.191406 44 L 0 44 Z M 0 10 "/>
</clipPath>
</defs>
<g id="surface1">
<g clip-path="url(#clip1)" clip-rule="nonzero">
<path style="fill:none;stroke-width:0.3985;stroke-linecap:butt;stroke-linejoin:miter;stroke:rgb(0%,0%,0%);stroke-opacity:1;stroke-miterlimit:10;" d="M 0.00140625 0.0015625 L 28.345156 -21.260156 L 56.692813 0.0015625 L 85.040469 -21.260156 L 113.388125 0.0015625 L 141.735781 -21.260156 L 170.079531 0.0015625 L 198.427188 -21.260156 L 226.774844 0.0015625 L 255.1225 -21.260156 L 283.46625 0.0015625 " transform="matrix(1,0,0,-1,2.19,101.4)"/>
</g>
<g clip-path="url(#clip2)" clip-rule="nonzero">
<path style="fill:none;stroke-width:0.3985;stroke-linecap:butt;stroke-linejoin:miter;stroke:rgb(0%,0%,0%);stroke-opacity:1;stroke-miterlimit:10;" d="M 0.00140625 14.173438 L 28.345156 -7.088281 L 56.692813 14.173438 L 85.040469 -7.088281 L 113.388125 14.173438 L 141.735781 -7.088281 L 170.079531 14.173438 L 198.427188 -7.088281 L 226.774844 14.173438 L 255.1225 -7.088281 L 283.46625 14.173438 L 311.813906 -7.088281 " transform="matrix(1,0,0,-1,2.19,101.4)"/>
</g>
<g clip-path="url(#clip3)" clip-rule="nonzero">
<path style="fill:none;stroke-width:0.3985;stroke-linecap:butt;stroke-linejoin:miter;stroke:rgb(0%,0%,0%);stroke-opacity:1;stroke-miterlimit:10;" d="M 0.00140625 28.345313 L 28.345156 7.0875 L 56.692813 28.345313 L 85.040469 7.0875 L 113.388125 28.345313 L 141.735781 7.0875 L 170.079531 28.345313 L 198.427188 7.0875 L 226.774844 28.345313 L 255.1225 7.0875 L 283.46625 28.345313 L 311.813906 7.0875 " transform="matrix(1,0,0,-1,2.19,101.4)"/>
</g>
<g clip-path="url(#clip4)" clip-rule="nonzero">
<path style="fill:none;stroke-width:0.3985;stroke-linecap:butt;stroke-linejoin:miter;stroke:rgb(0%,0%,0%);stroke-opacity:1;stroke-miterlimit:10;" d="M 0.00140625 42.521094 L 28.345156 21.259375 L 56.692813 42.521094 L 85.040469 21.259375 L 113.388125 42.521094 L 141.735781 21.259375 L 170.079531 42.521094 L 198.427188 21.259375 L 226.774844 42.521094 L 255.1225 21.259375 L 283.46625 42.521094 L 311.813906 21.259375 " transform="matrix(1,0,0,-1,2.19,101.4)"/>
</g>
<g clip-path="url(#clip5)" clip-rule="nonzero">
<path style="fill:none;stroke-width:0.3985;stroke-linecap:butt;stroke-linejoin:miter;stroke:rgb(0%,0%,0%);stroke-opacity:1;stroke-miterlimit:10;" d="M 0.00140625 56.692969 L 28.345156 35.435156 L 56.692813 56.692969 L 85.040469 35.435156 L 113.388125 56.692969 L 141.735781 35.435156 L 170.079531 56.692969 L 198.427188 35.435156 L 226.774844 56.692969 L 255.1225 35.435156 L 283.46625 56.692969 L 311.813906 35.435156 " transform="matrix(1,0,0,-1,2.19,101.4)"/>
</g>
<g clip-path="url(#clip6)" clip-rule="nonzero">
<path style="fill:none;stroke-width:0.3985;stroke-linecap:butt;stroke-linejoin:miter;stroke:rgb(0%,0%,0%);stroke-opacity:1;stroke-miterlimit:10;" d="M 0.00140625 70.86875 L 28.345156 49.607031 L 56.692813 70.86875 L 85.040469 49.607031 L 113.388125 70.86875 L 141.735781 49.607031 L 170.079531 70.86875 L 198.427188 49.607031 L 226.774844 70.86875 L 255.1225 49.607031 L 283.46625 70.86875 L 311.813906 49.607031 " transform="matrix(1,0,0,-1,2.19,101.4)"/>
</g>
<g clip-path="url(#clip7)" clip-rule="nonzero">
<path style="fill:none;stroke-width:0.3985;stroke-linecap:butt;stroke-linejoin:miter;stroke:rgb(0%,0%,0%);stroke-opacity:1;stroke-miterlimit:10;" d="M 0.00140625 85.040625 L 28.345156 63.778906 L 56.692813 85.040625 L 85.040469 63.778906 L 113.388125 85.040625 L 141.735781 63.778906 L 170.079531 85.040625 L 198.427188 63.778906 L 226.774844 85.040625 L 255.1225 63.778906 L 283.46625 85.040625 L 311.813906 63.778906 " transform="matrix(1,0,0,-1,2.19,101.4)"/>
</g>
<path style="fill:none;stroke-width:0.3985;stroke-linecap:butt;stroke-linejoin:miter;stroke:rgb(0%,0%,0%);stroke-opacity:1;stroke-miterlimit:10;" d="M 0.00140625 99.2125 L 28.345156 77.954688 L 56.692813 99.2125 L 85.040469 77.954688 L 113.388125 99.2125 L 141.735781 77.954688 L 170.079531 99.2125 L 198.427188 77.954688 L 226.774844 99.2125 L 255.1225 77.954688 L 283.46625 99.2125 " transform="matrix(1,0,0,-1,2.19,101.4)"/>
<path style="fill:none;stroke-width:0.3985;stroke-linecap:butt;stroke-linejoin:miter;stroke:rgb(0%,0%,0%);stroke-opacity:1;stroke-miterlimit:10;" d="M 0.00140625 0.0015625 L 0.00140625 14.173438 M 0.00140625 28.345313 L 0.00140625 42.521094 M 0.00140625 56.692969 L 0.00140625 70.86875 M 0.00140625 85.040625 L 0.00140625 99.2125 " transform="matrix(1,0,0,-1,2.19,101.4)"/>
<path style="fill:none;stroke-width:0.3985;stroke-linecap:butt;stroke-linejoin:miter;stroke:rgb(0%,0%,0%);stroke-opacity:1;stroke-miterlimit:10;" d="M 56.692813 0.0015625 L 56.692813 14.173438 M 56.692813 28.345313 L 56.692813 42.521094 M 56.692813 56.692969 L 56.692813 70.86875 M 56.692813 85.040625 L 56.692813 99.2125 " transform="matrix(1,0,0,-1,2.19,101.4)"/>
<path style="fill:none;stroke-width:0.3985;stroke-linecap:butt;stroke-linejoin:miter;stroke:rgb(0%,0%,0%);stroke-opacity:1;stroke-miterlimit:10;" d="M 113.388125 0.0015625 L 113.388125 14.173438 M 113.388125 28.345313 L 113.388125 42.521094 M 113.388125 56.692969 L 113.388125 70.86875 M 113.388125 85.040625 L 113.388125 99.2125 " transform="matrix(1,0,0,-1,2.19,101.4)"/>
<path style="fill:none;stroke-width:0.3985;stroke-linecap:butt;stroke-linejoin:miter;stroke:rgb(0%,0%,0%);stroke-opacity:1;stroke-miterlimit:10;" d="M 170.079531 0.0015625 L 170.079531 14.173438 M 170.079531 28.345313 L 170.079531 42.521094 M 170.079531 56.692969 L 170.079531 70.86875 M 170.079531 85.040625 L 170.079531 99.2125 " transform="matrix(1,0,0,-1,2.19,101.4)"/>
<path style="fill:none;stroke-width:0.3985;stroke-linecap:butt;stroke-linejoin:miter;stroke:rgb(0%,0%,0%);stroke-opacity:1;stroke-miterlimit:10;" d="M 226.774844 0.0015625 L 226.774844 14.173438 M 226.774844 28.345313 L 226.774844 42.521094 M 226.774844 56.692969 L 226.774844 70.86875 M 226.774844 85.040625 L 226.774844 99.2125 " transform="matrix(1,0,0,-1,2.19,101.4)"/>
<path style="fill:none;stroke-width:0.3985;stroke-linecap:butt;stroke-linejoin:miter;stroke:rgb(0%,0%,0%);stroke-opacity:1;stroke-miterlimit:10;" d="M 283.46625 0.0015625 L 283.46625 14.173438 M 283.46625 28.345313 L 283.46625 42.521094 M 283.46625 56.692969 L 283.46625 70.86875 M 283.46625 85.040625 L 283.46625 99.2125 " transform="matrix(1,0,0,-1,2.19,101.4)"/>
<path style="fill:none;stroke-width:0.3985;stroke-linecap:butt;stroke-linejoin:miter;stroke:rgb(0%,0%,0%);stroke-opacity:1;stroke-miterlimit:10;" d="M 28.345156 -7.088281 L 28.345156 7.0875 M 28.345156 21.259375 L 28.345156 35.435156 M 28.345156 49.607031 L 28.345156 63.778906 " transform="matrix(1,0,0,-1,2.19,101.4)"/>
<path style="fill:none;stroke-width:0.3985;stroke-linecap:butt;stroke-linejoin:miter;stroke:rgb(0%,0%,0%);stroke-opacity:1;stroke-miterlimit:10;" d="M 85.040469 -7.088281 L 85.040469 7.0875 M 85.040469 21.259375 L 85.040469 35.435156 M 85.040469 49.607031 L 85.040469 63.778906 " transform="matrix(1,0,0,-1,2.19,101.4)"/>
<path style="fill:none;stroke-width:0.3985;stroke-linecap:butt;stroke-linejoin:miter;stroke:rgb(0%,0%,0%);stroke-opacity:1;stroke-miterlimit:10;" d="M 141.735781 -7.088281 L 141.735781 7.0875 M 141.735781 21.259375 L 141.735781 35.435156 M 141.735781 49.607031 L 141.735781 63.778906 " transform="matrix(1,0,0,-1,2.19,101.4)"/>
<path style="fill:none;stroke-width:0.3985;stroke-linecap:butt;stroke-linejoin:miter;stroke:rgb(0%,0%,0%);stroke-opacity:1;stroke-miterlimit:10;" d="M 198.427188 -7.088281 L 198.427188 7.0875 M 198.427188 21.259375 L 198.427188 35.435156 M 198.427188 49.607031 L 198.427188 63.778906 " transform="matrix(1,0,0,-1,2.19,101.4)"/>
<path style="fill:none;stroke-width:0.3985;stroke-linecap:butt;stroke-linejoin:miter;stroke:rgb(0%,0%,0%);stroke-opacity:1;stroke-miterlimit:10;" d="M 255.1225 -7.088281 L 255.1225 7.0875 M 255.1225 21.259375 L 255.1225 35.435156 M 255.1225 49.607031 L 255.1225 63.778906 " transform="matrix(1,0,0,-1,2.19,101.4)"/>
<path style="fill:none;stroke-width:0.3985;stroke-linecap:butt;stroke-linejoin:miter;stroke:rgb(0%,0%,0%);stroke-opacity:1;stroke-miterlimit:10;" d="M 311.813906 -7.088281 L 311.813906 7.0875 M 311.813906 21.259375 L 311.813906 35.435156 M 311.813906 49.607031 L 311.813906 63.778906 " transform="matrix(1,0,0,-1,2.19,101.4)"/>
</g>
</svg>
