<?xml version="1.0" encoding="UTF-8"?>
<svg xmlns="http://www.w3.org/2000/svg" xmlns:xlink="http://www.w3.org/1999/xlink" width="151.22pt" height="131.38pt" viewBox="0 0 151.22 131.38" version="1.1">
<defs>
<clipPath id="clip1">
  <path d="M 0 120 L 11 120 L 11 131.378906 L 0 131.378906 Z M 0 120 "/>
</clipPath>
<clipPath id="clip2">
  <path d="M 46 120 L 61 120 L 61 131.378906 L 46 131.378906 Z M 46 120 "/>
</clipPath>
<clipPath id="clip3">
  <path d="M 95 120 L 111 120 L 111 131.378906 L 95 131.378906 Z M 95 120 "/>
</clipPath>
<clipPath id="clip4">
  <path d="M 140 0 L 151.21875 0 L 151.21875 11 L 140 11 Z M 140 0 "/>
</clipPath>
<clipPath id="clip5">
  <path d="M 0 0 L 54 0 L 54 131.378906 L 0 131.378906 Z M 0 0 "/>
</clipPath>
<clipPath id="clip6">
  <path d="M 47 0 L 104 0 L 104 131.378906 L 47 131.378906 Z M 47 0 "/>
</clipPath>
<clipPath id="clip7">
  <path d="M 97 0 L 151.21875 0 L 151.21875 131.378906 L 97 131.378906 Z M 97 0 "/>
</clipPath>
<clipPath id="clip8">
  <path d="M 0 97 L 134 97 L 134 131.378906 L 0 131.378906 Z M 0 97 "/>
</clipPath>
<clipPath id="clip9">
  <path d="M 17 0 L 151.21875 0 L 151.21875 35 L 17 35 Z M 17 0 "/>
</clipPath>
</defs>
<g id="surface1">
<path style="fill:none;stroke-width:0.3985;stroke-linecap:butt;stroke-linejoin:miter;stroke:rgb(0%,0%,0%);stroke-opacity:1;stroke-miterlimit:10;" d="M -0.0003125 0.00078125 L 99.214531 0.00078125 M 12.402031 12.403125 L 111.616875 12.403125 M 24.804375 24.801563 L 124.015312 24.801563 " transform="matrix(1,0,0,-1,3.68,127.7)"/>
<path style=" stroke:none;fill-rule:nonzero;fill:rgb(0%,0%,0%);fill-opacity:1;" d="M 5.167969 127.699219 C 5.167969 126.878906 4.5 126.210938 3.679688 126.210938 C 2.859375 126.210938 2.191406 126.878906 2.191406 127.699219 C 2.191406 128.523438 2.859375 129.1875 3.679688 129.1875 C 4.5 129.1875 5.167969 128.523438 5.167969 127.699219 Z M 5.167969 127.699219 "/>
<g clip-path="url(#clip1)" clip-rule="nonzero">
<path style="fill:none;stroke-width:0.3985;stroke-linecap:butt;stroke-linejoin:miter;stroke:rgb(0%,0%,0%);stroke-opacity:1;stroke-miterlimit:10;" d="M 1.487969 0.00078125 C 1.487969 0.821094 0.82 1.489063 -0.0003125 1.489063 C -0.820625 1.489063 -1.488594 0.821094 -1.488594 0.00078125 C -1.488594 -0.823437 -0.820625 -1.4875 -0.0003125 -1.4875 C 0.82 -1.4875 1.487969 -0.823437 1.487969 0.00078125 Z M 1.487969 0.00078125 " transform="matrix(1,0,0,-1,3.68,127.7)"/>
</g>
<path style=" stroke:none;fill-rule:nonzero;fill:rgb(0%,0%,0%);fill-opacity:1;" d="M 54.773438 127.699219 C 54.773438 126.878906 54.109375 126.210938 53.285156 126.210938 C 52.464844 126.210938 51.796875 126.878906 51.796875 127.699219 C 51.796875 128.523438 52.464844 129.1875 53.285156 129.1875 C 54.109375 129.1875 54.773438 128.523438 54.773438 127.699219 Z M 54.773438 127.699219 "/>
<g clip-path="url(#clip2)" clip-rule="nonzero">
<path style="fill:none;stroke-width:0.3985;stroke-linecap:butt;stroke-linejoin:miter;stroke:rgb(0%,0%,0%);stroke-opacity:1;stroke-miterlimit:10;" d="M 51.093437 0.00078125 C 51.093437 0.821094 50.429375 1.489063 49.605156 1.489063 C 48.784844 1.489063 48.116875 0.821094 48.116875 0.00078125 C 48.116875 -0.823437 48.784844 -1.4875 49.605156 -1.4875 C 50.429375 -1.4875 51.093437 -0.823437 51.093437 0.00078125 Z M 51.093437 0.00078125 " transform="matrix(1,0,0,-1,3.68,127.7)"/>
</g>
<path style=" stroke:none;fill-rule:nonzero;fill:rgb(0%,0%,0%);fill-opacity:1;" d="M 104.382812 127.699219 C 104.382812 126.878906 103.714844 126.210938 102.894531 126.210938 C 102.070312 126.210938 101.40625 126.878906 101.40625 127.699219 C 101.40625 128.523438 102.070312 129.1875 102.894531 129.1875 C 103.714844 129.1875 104.382812 128.523438 104.382812 127.699219 Z M 104.382812 127.699219 "/>
<g clip-path="url(#clip3)" clip-rule="nonzero">
<path style="fill:none;stroke-width:0.3985;stroke-linecap:butt;stroke-linejoin:miter;stroke:rgb(0%,0%,0%);stroke-opacity:1;stroke-miterlimit:10;" d="M 100.702812 0.00078125 C 100.702812 0.821094 100.034844 1.489063 99.214531 1.489063 C 98.390312 1.489063 97.72625 0.821094 97.72625 0.00078125 C 97.72625 -0.823437 98.390312 -1.4875 99.214531 -1.4875 C 100.034844 -1.4875 100.702812 -0.823437 100.702812 0.00078125 Z M 100.702812 0.00078125 " transform="matrix(1,0,0,-1,3.68,127.7)"/>
</g>
<path style="fill-rule:nonzero;fill:rgb(0%,0%,0%);fill-opacity:1;stroke-width:0.3985;stroke-linecap:butt;stroke-linejoin:miter;stroke:rgb(0%,0%,0%);stroke-opacity:1;stroke-miterlimit:10;" d="M 13.890312 12.403125 C 13.890312 13.223438 13.222344 13.891406 12.402031 13.891406 C 11.581719 13.891406 10.91375 13.223438 10.91375 12.403125 C 10.91375 11.578906 11.581719 10.914844 12.402031 10.914844 C 13.222344 10.914844 13.890312 11.578906 13.890312 12.403125 Z M 13.890312 12.403125 " transform="matrix(1,0,0,-1,3.68,127.7)"/>
<path style="fill-rule:nonzero;fill:rgb(0%,0%,0%);fill-opacity:1;stroke-width:0.3985;stroke-linecap:butt;stroke-linejoin:miter;stroke:rgb(0%,0%,0%);stroke-opacity:1;stroke-miterlimit:10;" d="M 63.495781 12.403125 C 63.495781 13.223438 62.831719 13.891406 62.0075 13.891406 C 61.187187 13.891406 60.519219 13.223438 60.519219 12.403125 C 60.519219 11.578906 61.187187 10.914844 62.0075 10.914844 C 62.831719 10.914844 63.495781 11.578906 63.495781 12.403125 Z M 63.495781 12.403125 " transform="matrix(1,0,0,-1,3.68,127.7)"/>
<path style="fill-rule:nonzero;fill:rgb(0%,0%,0%);fill-opacity:1;stroke-width:0.3985;stroke-linecap:butt;stroke-linejoin:miter;stroke:rgb(0%,0%,0%);stroke-opacity:1;stroke-miterlimit:10;" d="M 113.105156 12.403125 C 113.105156 13.223438 112.437187 13.891406 111.616875 13.891406 C 110.792656 13.891406 110.128594 13.223438 110.128594 12.403125 C 110.128594 11.578906 110.792656 10.914844 111.616875 10.914844 C 112.437187 10.914844 113.105156 11.578906 113.105156 12.403125 Z M 113.105156 12.403125 " transform="matrix(1,0,0,-1,3.68,127.7)"/>
<path style="fill-rule:nonzero;fill:rgb(0%,0%,0%);fill-opacity:1;stroke-width:0.3985;stroke-linecap:butt;stroke-linejoin:miter;stroke:rgb(0%,0%,0%);stroke-opacity:1;stroke-miterlimit:10;" d="M 26.292656 24.801563 C 26.292656 25.625781 25.624687 26.289844 24.804375 26.289844 C 23.980156 26.289844 23.316094 25.625781 23.316094 24.801563 C 23.316094 23.98125 23.980156 23.317188 24.804375 23.317188 C 25.624687 23.317188 26.292656 23.98125 26.292656 24.801563 Z M 26.292656 24.801563 " transform="matrix(1,0,0,-1,3.68,127.7)"/>
<path style="fill-rule:nonzero;fill:rgb(0%,0%,0%);fill-opacity:1;stroke-width:0.3985;stroke-linecap:butt;stroke-linejoin:miter;stroke:rgb(0%,0%,0%);stroke-opacity:1;stroke-miterlimit:10;" d="M 75.898125 24.801563 C 75.898125 25.625781 75.234062 26.289844 74.409844 26.289844 C 73.589531 26.289844 72.921562 25.625781 72.921562 24.801563 C 72.921562 23.98125 73.589531 23.317188 74.409844 23.317188 C 75.234062 23.317188 75.898125 23.98125 75.898125 24.801563 Z M 75.898125 24.801563 " transform="matrix(1,0,0,-1,3.68,127.7)"/>
<path style="fill-rule:nonzero;fill:rgb(0%,0%,0%);fill-opacity:1;stroke-width:0.3985;stroke-linecap:butt;stroke-linejoin:miter;stroke:rgb(0%,0%,0%);stroke-opacity:1;stroke-miterlimit:10;" d="M 125.503594 24.801563 C 125.503594 25.625781 124.839531 26.289844 124.015312 26.289844 C 123.195 26.289844 122.530937 25.625781 122.530937 24.801563 C 122.530937 23.98125 123.195 23.317188 124.015312 23.317188 C 124.839531 23.317188 125.503594 23.98125 125.503594 24.801563 Z M 125.503594 24.801563 " transform="matrix(1,0,0,-1,3.68,127.7)"/>
<path style="fill:none;stroke-width:0.3985;stroke-linecap:butt;stroke-linejoin:miter;stroke:rgb(0%,0%,0%);stroke-opacity:1;stroke-miterlimit:10;" d="M 9.921562 49.60625 L 109.136406 49.60625 M 22.323906 62.008594 L 121.534844 62.008594 M 34.72625 74.410938 L 133.937187 74.410938 " transform="matrix(1,0,0,-1,3.68,127.7)"/>
<path style="fill-rule:nonzero;fill:rgb(0%,0%,0%);fill-opacity:1;stroke-width:0.3985;stroke-linecap:butt;stroke-linejoin:miter;stroke:rgb(0%,0%,0%);stroke-opacity:1;stroke-miterlimit:10;" d="M 11.409844 49.60625 C 11.409844 50.430469 10.741875 51.094531 9.921562 51.094531 C 9.10125 51.094531 8.433281 50.430469 8.433281 49.60625 C 8.433281 48.785938 9.10125 48.117969 9.921562 48.117969 C 10.741875 48.117969 11.409844 48.785938 11.409844 49.60625 Z M 11.409844 49.60625 " transform="matrix(1,0,0,-1,3.68,127.7)"/>
<path style="fill-rule:nonzero;fill:rgb(0%,0%,0%);fill-opacity:1;stroke-width:0.3985;stroke-linecap:butt;stroke-linejoin:miter;stroke:rgb(0%,0%,0%);stroke-opacity:1;stroke-miterlimit:10;" d="M 61.015312 49.60625 C 61.015312 50.430469 60.35125 51.094531 59.527031 51.094531 C 58.706719 51.094531 58.03875 50.430469 58.03875 49.60625 C 58.03875 48.785938 58.706719 48.117969 59.527031 48.117969 C 60.35125 48.117969 61.015312 48.785938 61.015312 49.60625 Z M 61.015312 49.60625 " transform="matrix(1,0,0,-1,3.68,127.7)"/>
<path style="fill-rule:nonzero;fill:rgb(0%,0%,0%);fill-opacity:1;stroke-width:0.3985;stroke-linecap:butt;stroke-linejoin:miter;stroke:rgb(0%,0%,0%);stroke-opacity:1;stroke-miterlimit:10;" d="M 110.624687 49.60625 C 110.624687 50.430469 109.956719 51.094531 109.136406 51.094531 C 108.312187 51.094531 107.648125 50.430469 107.648125 49.60625 C 107.648125 48.785938 108.312187 48.117969 109.136406 48.117969 C 109.956719 48.117969 110.624687 48.785938 110.624687 49.60625 Z M 110.624687 49.60625 " transform="matrix(1,0,0,-1,3.68,127.7)"/>
<path style="fill-rule:nonzero;fill:rgb(0%,0%,0%);fill-opacity:1;stroke-width:0.3985;stroke-linecap:butt;stroke-linejoin:miter;stroke:rgb(0%,0%,0%);stroke-opacity:1;stroke-miterlimit:10;" d="M 23.812187 62.008594 C 23.812187 62.828906 23.144219 63.496875 22.323906 63.496875 C 21.499687 63.496875 20.835625 62.828906 20.835625 62.008594 C 20.835625 61.188281 21.499687 60.520313 22.323906 60.520313 C 23.144219 60.520313 23.812187 61.188281 23.812187 62.008594 Z M 23.812187 62.008594 " transform="matrix(1,0,0,-1,3.68,127.7)"/>
<path style="fill-rule:nonzero;fill:rgb(0%,0%,0%);fill-opacity:1;stroke-width:0.3985;stroke-linecap:butt;stroke-linejoin:miter;stroke:rgb(0%,0%,0%);stroke-opacity:1;stroke-miterlimit:10;" d="M 73.417656 62.008594 C 73.417656 62.828906 72.753594 63.496875 71.929375 63.496875 C 71.109062 63.496875 70.441094 62.828906 70.441094 62.008594 C 70.441094 61.188281 71.109062 60.520313 71.929375 60.520313 C 72.753594 60.520313 73.417656 61.188281 73.417656 62.008594 Z M 73.417656 62.008594 " transform="matrix(1,0,0,-1,3.68,127.7)"/>
<path style="fill-rule:nonzero;fill:rgb(0%,0%,0%);fill-opacity:1;stroke-width:0.3985;stroke-linecap:butt;stroke-linejoin:miter;stroke:rgb(0%,0%,0%);stroke-opacity:1;stroke-miterlimit:10;" d="M 123.023125 62.008594 C 123.023125 62.828906 122.359062 63.496875 121.534844 63.496875 C 120.714531 63.496875 120.050469 62.828906 120.050469 62.008594 C 120.050469 61.188281 120.714531 60.520313 121.534844 60.520313 C 122.359062 60.520313 123.023125 61.188281 123.023125 62.008594 Z M 123.023125 62.008594 " transform="matrix(1,0,0,-1,3.68,127.7)"/>
<path style="fill-rule:nonzero;fill:rgb(0%,0%,0%);fill-opacity:1;stroke-width:0.3985;stroke-linecap:butt;stroke-linejoin:miter;stroke:rgb(0%,0%,0%);stroke-opacity:1;stroke-miterlimit:10;" d="M 36.214531 74.410938 C 36.214531 75.23125 35.546562 75.899219 34.72625 75.899219 C 33.902031 75.899219 33.237969 75.23125 33.237969 74.410938 C 33.237969 73.586719 33.902031 72.922656 34.72625 72.922656 C 35.546562 72.922656 36.214531 73.586719 36.214531 74.410938 Z M 36.214531 74.410938 " transform="matrix(1,0,0,-1,3.68,127.7)"/>
<path style="fill-rule:nonzero;fill:rgb(0%,0%,0%);fill-opacity:1;stroke-width:0.3985;stroke-linecap:butt;stroke-linejoin:miter;stroke:rgb(0%,0%,0%);stroke-opacity:1;stroke-miterlimit:10;" d="M 85.82 74.410938 C 85.82 75.23125 85.152031 75.899219 84.331719 75.899219 C 83.511406 75.899219 82.843437 75.23125 82.843437 74.410938 C 82.843437 73.586719 83.511406 72.922656 84.331719 72.922656 C 85.152031 72.922656 85.82 73.586719 85.82 74.410938 Z M 85.82 74.410938 " transform="matrix(1,0,0,-1,3.68,127.7)"/>
<path style="fill-rule:nonzero;fill:rgb(0%,0%,0%);fill-opacity:1;stroke-width:0.3985;stroke-linecap:butt;stroke-linejoin:miter;stroke:rgb(0%,0%,0%);stroke-opacity:1;stroke-miterlimit:10;" d="M 135.425469 74.410938 C 135.425469 75.23125 134.761406 75.899219 133.937187 75.899219 C 133.116875 75.899219 132.448906 75.23125 132.448906 74.410938 C 132.448906 73.586719 133.116875 72.922656 133.937187 72.922656 C 134.761406 72.922656 135.425469 73.586719 135.425469 74.410938 Z M 135.425469 74.410938 " transform="matrix(1,0,0,-1,3.68,127.7)"/>
<path style="fill:none;stroke-width:0.3985;stroke-linecap:butt;stroke-linejoin:miter;stroke:rgb(0%,0%,0%);stroke-opacity:1;stroke-miterlimit:10;" d="M 19.843437 99.215625 L 119.054375 99.215625 M 32.245781 111.614063 L 131.456719 111.614063 M 44.644219 124.016406 L 143.859062 124.016406 " transform="matrix(1,0,0,-1,3.68,127.7)"/>
<path style="fill-rule:nonzero;fill:rgb(0%,0%,0%);fill-opacity:1;stroke-width:0.3985;stroke-linecap:butt;stroke-linejoin:miter;stroke:rgb(0%,0%,0%);stroke-opacity:1;stroke-miterlimit:10;" d="M 21.331719 99.215625 C 21.331719 100.035938 20.66375 100.7 19.843437 100.7 C 19.019219 100.7 18.355156 100.035938 18.355156 99.215625 C 18.355156 98.391406 19.019219 97.727344 19.843437 97.727344 C 20.66375 97.727344 21.331719 98.391406 21.331719 99.215625 Z M 21.331719 99.215625 " transform="matrix(1,0,0,-1,3.68,127.7)"/>
<path style="fill-rule:nonzero;fill:rgb(0%,0%,0%);fill-opacity:1;stroke-width:0.3985;stroke-linecap:butt;stroke-linejoin:miter;stroke:rgb(0%,0%,0%);stroke-opacity:1;stroke-miterlimit:10;" d="M 70.937187 99.215625 C 70.937187 100.035938 70.273125 100.7 69.448906 100.7 C 68.628594 100.7 67.960625 100.035938 67.960625 99.215625 C 67.960625 98.391406 68.628594 97.727344 69.448906 97.727344 C 70.273125 97.727344 70.937187 98.391406 70.937187 99.215625 Z M 70.937187 99.215625 " transform="matrix(1,0,0,-1,3.68,127.7)"/>
<path style="fill-rule:nonzero;fill:rgb(0%,0%,0%);fill-opacity:1;stroke-width:0.3985;stroke-linecap:butt;stroke-linejoin:miter;stroke:rgb(0%,0%,0%);stroke-opacity:1;stroke-miterlimit:10;" d="M 120.542656 99.215625 C 120.542656 100.035938 119.878594 100.7 119.054375 100.7 C 118.234062 100.7 117.57 100.035938 117.57 99.215625 C 117.57 98.391406 118.234062 97.727344 119.054375 97.727344 C 119.878594 97.727344 120.542656 98.391406 120.542656 99.215625 Z M 120.542656 99.215625 " transform="matrix(1,0,0,-1,3.68,127.7)"/>
<path style="fill-rule:nonzero;fill:rgb(0%,0%,0%);fill-opacity:1;stroke-width:0.3985;stroke-linecap:butt;stroke-linejoin:miter;stroke:rgb(0%,0%,0%);stroke-opacity:1;stroke-miterlimit:10;" d="M 33.734062 111.614063 C 33.734062 112.438281 33.066094 113.102344 32.245781 113.102344 C 31.421562 113.102344 30.7575 112.438281 30.7575 111.614063 C 30.7575 110.79375 31.421562 110.125781 32.245781 110.125781 C 33.066094 110.125781 33.734062 110.79375 33.734062 111.614063 Z M 33.734062 111.614063 " transform="matrix(1,0,0,-1,3.68,127.7)"/>
<path style="fill-rule:nonzero;fill:rgb(0%,0%,0%);fill-opacity:1;stroke-width:0.3985;stroke-linecap:butt;stroke-linejoin:miter;stroke:rgb(0%,0%,0%);stroke-opacity:1;stroke-miterlimit:10;" d="M 83.339531 111.614063 C 83.339531 112.438281 82.671562 113.102344 81.85125 113.102344 C 81.030937 113.102344 80.362969 112.438281 80.362969 111.614063 C 80.362969 110.79375 81.030937 110.125781 81.85125 110.125781 C 82.671562 110.125781 83.339531 110.79375 83.339531 111.614063 Z M 83.339531 111.614063 " transform="matrix(1,0,0,-1,3.68,127.7)"/>
<path style="fill-rule:nonzero;fill:rgb(0%,0%,0%);fill-opacity:1;stroke-width:0.3985;stroke-linecap:butt;stroke-linejoin:miter;stroke:rgb(0%,0%,0%);stroke-opacity:1;stroke-miterlimit:10;" d="M 132.945 111.614063 C 132.945 112.438281 132.280937 113.102344 131.456719 113.102344 C 130.636406 113.102344 129.968437 112.438281 129.968437 111.614063 C 129.968437 110.79375 130.636406 110.125781 131.456719 110.125781 C 132.280937 110.125781 132.945 110.79375 132.945 111.614063 Z M 132.945 111.614063 " transform="matrix(1,0,0,-1,3.68,127.7)"/>
<path style="fill-rule:nonzero;fill:rgb(0%,0%,0%);fill-opacity:1;stroke-width:0.3985;stroke-linecap:butt;stroke-linejoin:miter;stroke:rgb(0%,0%,0%);stroke-opacity:1;stroke-miterlimit:10;" d="M 46.1325 124.016406 C 46.1325 124.840625 45.468437 125.504688 44.644219 125.504688 C 43.823906 125.504688 43.155937 124.840625 43.155937 124.016406 C 43.155937 123.196094 43.823906 122.528125 44.644219 122.528125 C 45.468437 122.528125 46.1325 123.196094 46.1325 124.016406 Z M 46.1325 124.016406 " transform="matrix(1,0,0,-1,3.68,127.7)"/>
<path style="fill-rule:nonzero;fill:rgb(0%,0%,0%);fill-opacity:1;stroke-width:0.3985;stroke-linecap:butt;stroke-linejoin:miter;stroke:rgb(0%,0%,0%);stroke-opacity:1;stroke-miterlimit:10;" d="M 95.741875 124.016406 C 95.741875 124.840625 95.073906 125.504688 94.253594 125.504688 C 93.429375 125.504688 92.765312 124.840625 92.765312 124.016406 C 92.765312 123.196094 93.429375 122.528125 94.253594 122.528125 C 95.073906 122.528125 95.741875 123.196094 95.741875 124.016406 Z M 95.741875 124.016406 " transform="matrix(1,0,0,-1,3.68,127.7)"/>
<path style=" stroke:none;fill-rule:nonzero;fill:rgb(0%,0%,0%);fill-opacity:1;" d="M 149.027344 3.683594 C 149.027344 2.859375 148.363281 2.195312 147.539062 2.195312 C 146.71875 2.195312 146.050781 2.859375 146.050781 3.683594 C 146.050781 4.503906 146.71875 5.171875 147.539062 5.171875 C 148.363281 5.171875 149.027344 4.503906 149.027344 3.683594 Z M 149.027344 3.683594 "/>
<g clip-path="url(#clip4)" clip-rule="nonzero">
<path style="fill:none;stroke-width:0.3985;stroke-linecap:butt;stroke-linejoin:miter;stroke:rgb(0%,0%,0%);stroke-opacity:1;stroke-miterlimit:10;" d="M 145.347344 124.016406 C 145.347344 124.840625 144.683281 125.504688 143.859062 125.504688 C 143.03875 125.504688 142.370781 124.840625 142.370781 124.016406 C 142.370781 123.196094 143.03875 122.528125 143.859062 122.528125 C 144.683281 122.528125 145.347344 123.196094 145.347344 124.016406 Z M 145.347344 124.016406 " transform="matrix(1,0,0,-1,3.68,127.7)"/>
</g>
<g clip-path="url(#clip5)" clip-rule="nonzero">
<path style="fill:none;stroke-width:0.3985;stroke-linecap:butt;stroke-linejoin:miter;stroke:rgb(0%,0%,0%);stroke-opacity:1;stroke-miterlimit:10;" d="M -0.0003125 0.00078125 L 19.843437 99.215625 M 12.402031 12.403125 L 32.245781 111.614063 M 24.804375 24.801563 L 44.644219 124.016406 " transform="matrix(1,0,0,-1,3.68,127.7)"/>
</g>
<g clip-path="url(#clip6)" clip-rule="nonzero">
<path style="fill:none;stroke-width:0.3985;stroke-linecap:butt;stroke-linejoin:miter;stroke:rgb(0%,0%,0%);stroke-opacity:1;stroke-miterlimit:10;" d="M 49.605156 0.00078125 L 69.448906 99.215625 M 62.0075 12.403125 L 81.85125 111.614063 M 74.409844 24.801563 L 94.253594 124.016406 " transform="matrix(1,0,0,-1,3.68,127.7)"/>
</g>
<g clip-path="url(#clip7)" clip-rule="nonzero">
<path style="fill:none;stroke-width:0.3985;stroke-linecap:butt;stroke-linejoin:miter;stroke:rgb(0%,0%,0%);stroke-opacity:1;stroke-miterlimit:10;" d="M 99.214531 0.00078125 L 119.054375 99.215625 M 111.616875 111.614063 L 131.456719 111.614063 M 124.015312 24.801563 L 143.859062 124.016406 " transform="matrix(1,0,0,-1,3.68,127.7)"/>
</g>
<g clip-path="url(#clip8)" clip-rule="nonzero">
<path style="fill:none;stroke-width:0.3985;stroke-linecap:butt;stroke-linejoin:miter;stroke:rgb(0%,0%,0%);stroke-opacity:1;stroke-miterlimit:10;" d="M -0.0003125 0.00078125 L 24.804375 24.801563 M 49.605156 0.00078125 L 74.409844 24.801563 M 99.214531 0.00078125 L 124.015312 24.801563 " transform="matrix(1,0,0,-1,3.68,127.7)"/>
</g>
<path style="fill:none;stroke-width:0.3985;stroke-linecap:butt;stroke-linejoin:miter;stroke:rgb(0%,0%,0%);stroke-opacity:1;stroke-miterlimit:10;" d="M 9.921562 49.60625 L 34.72625 74.410938 M 59.527031 49.60625 L 84.331719 74.410938 M 109.136406 49.60625 L 133.937187 74.410938 " transform="matrix(1,0,0,-1,3.68,127.7)"/>
<g clip-path="url(#clip9)" clip-rule="nonzero">
<path style="fill:none;stroke-width:0.3985;stroke-linecap:butt;stroke-linejoin:miter;stroke:rgb(0%,0%,0%);stroke-opacity:1;stroke-miterlimit:10;" d="M 19.843437 99.215625 L 44.644219 124.016406 M 69.448906 99.215625 L 94.253594 124.016406 M 119.054375 99.215625 L 143.859062 124.016406 " transform="matrix(1,0,0,-1,3.68,127.7)"/>
</g>
</g>
</svg>
