<?xml version="1.0" encoding="utf-8"?>
<!DOCTYPE svg PUBLIC "-//W3C//DTD SVG 20010904//EN" "http://www.w3.org/TR/2001/REC-SVG-20010904/DTD/svg10.dtd">
<svg xmlns="http://www.w3.org/2000/svg" xml:space="preserve" xmlns:xlink="http://www.w3.org/1999/xlink" width="115" height="39.714" viewBox="0 0 115 39.714">
<desc></desc>
<rect x="0" y="0" width="115" height="39.714" style="fill:#ffffff;" />
<line fill="none" style="stroke:#000000; stroke-width:1;" x1="10.5" y1="0" x2="10.5" y2="35"/>
<line fill="none" style="stroke:#000000; stroke-width:1;" x1="12.5" y1="0" x2="12.5" y2="35"/>
<line fill="none" style="stroke:#000000; stroke-width:2;" x1="17" y1="0" x2="17" y2="35"/>
<line fill="none" style="stroke:#000000; stroke-width:1;" x1="19.5" y1="0" x2="19.5" y2="35"/>
<line fill="none" style="stroke:#000000; stroke-width:2;" x1="22" y1="0" x2="22" y2="30"/>
<line fill="none" style="stroke:#000000; stroke-width:1;" x1="26.5" y1="0" x2="26.5" y2="30"/>
<line fill="none" style="stroke:#000000; stroke-width:2;" x1="31" y1="0" x2="31" y2="30"/>
<line fill="none" style="stroke:#000000; stroke-width:1;" x1="33.5" y1="0" x2="33.5" y2="30"/>
<line fill="none" style="stroke:#000000; stroke-width:2;" x1="38" y1="0" x2="38" y2="30"/>
<line fill="none" style="stroke:#000000; stroke-width:1;" x1="40.5" y1="0" x2="40.5" y2="30"/>
<line fill="none" style="stroke:#000000; stroke-width:2;" x1="45" y1="0" x2="45" y2="30"/>
<line fill="none" style="stroke:#000000; stroke-width:1;" x1="47.5" y1="0" x2="47.5" y2="30"/>
<line fill="none" style="stroke:#000000; stroke-width:2;" x1="52" y1="0" x2="52" y2="30"/>
<line fill="none" style="stroke:#000000; stroke-width:1;" x1="54.5" y1="0" x2="54.5" y2="30"/>
<line fill="none" style="stroke:#000000; stroke-width:1;" x1="56.5" y1="0" x2="56.5" y2="35"/>
<line fill="none" style="stroke:#000000; stroke-width:1;" x1="58.5" y1="0" x2="58.5" y2="35"/>
<line fill="none" style="stroke:#000000; stroke-width:1;" x1="60.5" y1="0" x2="60.5" y2="30"/>
<line fill="none" style="stroke:#000000; stroke-width:1;" x1="65.5" y1="0" x2="65.5" y2="30"/>
<line fill="none" style="stroke:#000000; stroke-width:3;" x1="68.5" y1="0" x2="68.5" y2="30"/>
<line fill="none" style="stroke:#000000; stroke-width:1;" x1="72.5" y1="0" x2="72.5" y2="30"/>
<line fill="none" style="stroke:#000000; stroke-width:3;" x1="75.5" y1="0" x2="75.5" y2="30"/>
<line fill="none" style="stroke:#000000; stroke-width:1;" x1="79.5" y1="0" x2="79.5" y2="30"/>
<line fill="none" style="stroke:#000000; stroke-width:1;" x1="81.5" y1="0" x2="81.5" y2="30"/>
<line fill="none" style="stroke:#000000; stroke-width:3;" x1="84.5" y1="0" x2="84.5" y2="30"/>
<line fill="none" style="stroke:#000000; stroke-width:2;" x1="89" y1="0" x2="89" y2="30"/>
<line fill="none" style="stroke:#000000; stroke-width:2;" x1="92" y1="0" x2="92" y2="30"/>
<line fill="none" style="stroke:#000000; stroke-width:1;" x1="95.5" y1="0" x2="95.5" y2="35"/>
<line fill="none" style="stroke:#000000; stroke-width:1;" x1="97.5" y1="0" x2="97.5" y2="35"/>
<line fill="none" style="stroke:#000000; stroke-width:1;" x1="102.5" y1="0" x2="102.5" y2="35"/>
<line fill="none" style="stroke:#000000; stroke-width:1;" x1="104.5" y1="0" x2="104.5" y2="35"/>
<text x="5" y="37.763" text-anchor="middle" style="font-family: Tahoma; font-size: 9px; stroke: none; fill:#000000;">0</text>
<text x="37.75" y="37.763" text-anchor="middle" style="font-family: Tahoma; font-size: 9px; stroke: none; fill:#000000;">50000</text>
<text x="77.25" y="37.763" text-anchor="middle" style="font-family: Tahoma; font-size: 9px; stroke: none; fill:#000000;">30042</text>
<text x="110" y="37.763" text-anchor="middle" style="font-family: Tahoma; font-size: 9px; stroke: none; fill:#000000;">6</text>
</svg>